<svg width="234" height="320" viewBox="0 0 234 320" fill="none" xmlns="http://www.w3.org/2000/svg">
<g filter="url(#filter0_d_147_160622)">
<path d="M132.856 258.018C130.737 254.272 128.432 250.657 126.22 246.98C127.476 247.851 128.763 248.676 130.066 249.477C133.404 251.551 137.08 253.624 140.989 253.262C135.107 250.325 130.228 245.962 125.904 240.983C127.707 238.084 128.571 234.631 128.031 231.263C127.653 228.904 126.667 226.676 125.541 224.572C122.265 218.444 117.795 213.102 113.031 207.969C114.156 203.698 113.609 198.703 111.505 195.034C111.99 194.572 112.43 194.071 112.83 193.547C113.663 196.052 114.025 198.703 113.609 201.293C114.842 199.243 116.145 196.445 116.191 194.024C116.191 193.793 116.199 193.554 116.191 193.323C116.16 191.774 115.79 190.24 115.212 188.744C116.268 185.121 116.153 181.013 115.104 177.352C113.224 170.807 108.992 165.25 105.284 159.546C104.143 157.788 103.056 155.992 102.008 154.173C105.122 156.47 108.406 158.813 110.449 161.974C112.368 164.949 113.694 168.318 114.873 171.64C115.991 174.8 116.939 178.015 117.787 181.252C118.095 182.439 118.851 184.127 118.781 185.368C118.781 185.368 119.452 172.858 117.386 167.932C115.32 162.999 115.166 161.758 111.805 157.603C108.244 153.194 105.184 148.361 102.972 143.15C102.301 141.578 101.731 139.967 101.222 138.34C101.422 138.579 101.623 138.811 101.846 139.034C103.92 141.123 107.319 142.202 109.878 140.753C106.302 140.152 104.29 136.406 102.81 133.091C101.515 130.201 100.228 127.302 98.9326 124.412C98.763 118.5 99.5724 112.557 101.407 106.93C102.008 105.072 102.74 103.245 103.565 101.449C104.59 102.574 105.724 103.6 106.957 104.501C108.452 105.596 110.31 106.529 112.098 106.028C114.018 105.488 115.104 103.43 115.289 101.41C115.128 102.497 114.449 103.499 113.478 104.024C112.36 104.625 110.903 104.555 109.847 103.846C108.283 102.798 107.82 100.701 107.743 98.8205C107.674 96.9782 107.851 95.136 108.206 93.3246C109.131 91.9987 110.109 90.7115 111.15 89.4705C113.848 88.1678 116.831 87.6205 119.806 87.4509C125.85 87.1118 131.8 87.7901 137.782 87.027C142.738 86.3949 148.173 86.9037 152.844 85.0614C157.183 83.3502 161.092 80.6908 164.529 77.5613C166.957 75.3491 169.347 73.0674 172.037 71.1635C178.489 66.6002 186.436 63.6711 191.5 57.3658C194.067 54.1669 195.655 50.336 197.066 46.5204C198.499 42.6278 199.64 38.8662 199.833 34.6729C199.895 33.3702 199.879 32.0444 199.594 30.7726C199.239 29.1461 198.469 27.6507 197.713 26.1708C197.243 25.2612 196.75 24.3979 196.434 23.4421C196.364 23.2262 196.303 23.0104 196.249 22.7869C195.956 21.4842 195.84 20.1584 195.732 18.8249C195.709 18.5396 195.686 18.2313 195.817 17.9693C195.909 17.7765 196.079 17.6301 196.249 17.499C197.335 16.6897 198.754 16.5355 200.095 16.4199C200.935 16.3505 201.775 16.2811 202.608 16.2195C203.294 16.1655 203.988 16.1193 204.666 16.2195C205.575 16.3505 206.423 16.7359 207.264 17.0905C208.72 17.7072 210.208 18.2622 211.711 18.7555C212.174 18.9096 212.837 18.9713 213.014 18.5088C213.106 18.2776 213.006 18.0155 212.891 17.792C211.835 15.703 209.584 14.5083 208.073 12.72C207.055 11.5098 206.385 10.0529 205.522 8.72711C203.849 6.16799 200.056 4.88844 197.073 5.29698C196.048 5.43572 195.077 5.7826 194.16 6.24509C192.811 3.94034 191.084 2.18287 189.018 1.01122C189.111 0.62581 188.91 0.232698 188.533 0.101659C188.132 -0.0370888 187.692 0.178737 187.554 0.579563C187.415 0.980389 187.631 1.41975 188.032 1.5585C188.325 1.6587 188.641 1.56621 188.841 1.35038C190.845 2.48349 192.51 4.17927 193.82 6.41465C193.743 6.45319 193.666 6.49945 193.589 6.5457C191.562 4.31032 189.419 2.76869 187.076 1.85913C187.107 1.51226 186.922 1.17309 186.575 1.05747C186.174 0.91872 185.735 1.13455 185.596 1.53537C185.457 1.9362 185.673 2.37556 186.074 2.5143C186.405 2.62993 186.752 2.49889 186.945 2.2291C189.072 3.0693 191.053 4.41824 192.919 6.38383C192.888 6.38383 192.865 6.36842 192.834 6.36071C190.976 5.05802 186.96 2.8843 185.095 2.54514C185.033 2.30619 184.864 2.09807 184.617 2.01328C184.216 1.87453 183.777 2.09035 183.638 2.49118C183.499 2.89201 183.715 3.33139 184.116 3.47014C184.517 3.60888 184.956 3.39306 185.095 2.99223C185.095 2.96911 185.095 2.94597 185.103 2.93055C185.619 3.03847 186.436 3.32367 187.631 3.87095C189.165 4.58011 190.706 5.43572 191.847 6.16029C189.658 5.76717 186.698 5.53593 184.116 5.70551C184.139 5.36635 183.946 5.0426 183.615 4.92697C183.214 4.78823 182.775 5.00405 182.636 5.40488C182.497 5.8057 182.713 6.24509 183.114 6.38383C183.445 6.49946 183.784 6.36842 183.977 6.09863C187.269 5.84426 190.652 6.26049 192.703 6.73069C189.265 6.45319 186.051 6.90798 182.952 8.10275C182.867 7.98712 182.752 7.89463 182.605 7.84067C182.204 7.70192 181.765 7.91775 181.626 8.31857C181.487 8.7194 181.703 9.15878 182.104 9.29753C182.505 9.43628 182.944 9.22045 183.083 8.81963C183.122 8.71942 183.129 8.61149 183.122 8.51128C185.827 7.47067 188.625 6.99278 191.585 7.10069C189.057 7.66339 184.894 9.18962 182.836 10.4306C182.759 10.3613 182.674 10.3073 182.574 10.2765C182.173 10.1377 181.734 10.3535 181.595 10.7544C181.457 11.1552 181.672 11.5946 182.073 11.7333C182.474 11.8721 182.913 11.6562 183.052 11.2554C183.114 11.0858 183.098 10.9085 183.037 10.7544C185.395 9.29752 190.167 7.74818 192.302 7.33964C192.233 7.38589 192.156 7.43985 192.078 7.4861C190.614 8.50358 189.026 9.59044 188.062 11.1244C187.446 12.1187 187.161 13.3135 186.744 14.4081C186.182 15.888 185.789 17.2139 185.904 18.8172C185.989 20.0659 186.251 21.2915 186.367 22.5325C187.269 32.1523 178.52 40.3307 168.969 39.4289C164.437 38.9972 160.213 36.9854 155.742 36.1606C151.387 35.3512 146.862 35.1046 142.492 35.174C138.884 35.2279 135.254 35.49 131.716 36.2685C121.78 38.4576 112.877 43.6915 104.899 49.8581C101.954 52.132 98.9018 54.2826 96.0343 56.6567C95.1787 57.3658 94.3385 58.0827 93.4289 58.7148C89.8909 61.1428 85.3122 61.983 81.1498 60.981C79.3152 60.5416 77.3959 59.5858 76.7253 57.8283C76.6328 59.1696 77.0953 60.5416 77.9663 61.5668C78.845 62.592 80.1246 63.2549 81.4658 63.3782C80.7952 64.0643 79.8163 64.0797 78.9992 64.4728C77.9355 64.9815 76.9488 65.8217 75.9545 66.4538C73.0331 68.3192 69.9806 69.8763 66.9898 71.5952C64.6311 72.5279 62.1645 73.4066 59.6285 73.2678C57.0925 73.1291 54.464 71.7262 53.6315 69.329C54.6182 71.9806 55.7975 74.6091 57.6398 76.7519C57.8402 76.9832 58.0483 77.2067 58.2642 77.4303C57.609 77.7771 56.9615 78.1163 56.3063 78.4632C56.075 78.44 55.8438 78.4323 55.6125 78.4015C54.0709 78.1934 52.483 77.7771 51.3653 76.698C50.2476 75.6111 49.7851 74.0309 49.5308 72.4893C49.0991 69.8069 49.5616 66.4461 52.0668 65.3901C50.6485 65.6136 49.4691 66.6311 48.6366 67.8027C45.7846 71.8341 46.6556 77.7001 49.7235 81.5773C49.762 81.6235 49.8083 81.6775 49.8468 81.7237C42.6474 85.2233 33.2742 90.0332 25.4195 88.3759C27.0383 92.3379 36.8122 91.0969 40.9824 92.099C36.4962 91.0121 27.3697 95.9531 24.3943 99.1905C22.6677 101.071 20.8023 103.345 19.6923 105.835C14.8208 105.11 10.0725 103.222 5.97175 100.478C7.94505 104.255 11.6835 106.721 15.2678 109.026C16.4009 109.751 17.5495 110.483 18.7519 111.092C18.7982 111.493 18.8676 111.894 18.9755 112.294C19.4688 114.106 20.548 115.624 21.9663 116.835C22.2977 117.12 22.6985 117.343 23.1148 117.544C20.2319 118.977 17.4801 120.612 14.9749 122.639C8.84691 127.58 4.36845 135.388 5.69426 143.15C6.51133 136.768 11.2596 131.434 16.848 128.243C19.0371 126.994 21.3804 126.007 23.8085 125.314C24.8568 125.013 25.9129 124.774 26.9766 124.558C22.1127 127.349 17.8732 131.203 14.9133 135.766C11.7221 140.684 7.19736 145.17 0.961426 145.378C4.53032 147.405 9.07045 147.028 12.8475 145.424C14.6743 144.653 16.3624 143.621 17.9734 142.48C12.0689 150.203 8.63108 160.062 5.91009 169.15C5.91009 169.15 8.32275 166.198 8.67733 165.666C9.51752 164.402 10.2344 163.03 11.1208 161.773C13.1173 158.937 15.7457 156.57 18.6517 154.682C21.1029 153.094 23.7237 151.884 26.4216 150.828C24.2864 152.423 22.1975 154.081 20.3013 155.9C12.3156 163.562 7.73693 174.376 6.51133 185.376C10.3731 178.022 15.4297 171.308 21.4113 165.55C16.8326 172.203 13.3716 179.564 11.6373 187.434C9.46357 197.316 10.1804 208.138 15.3218 216.856C14.4431 199.752 20.8023 182.516 32.1025 169.69C31.7325 171.069 31.3548 172.442 30.9386 173.806C29.6205 178.107 27.9941 182.347 25.7664 186.262C23.8625 189.615 21.5654 192.444 19.9544 195.936C17.0099 202.326 15.5145 210.081 18.1584 216.895C16.2391 211.946 18.0274 206.219 21.18 201.948C23.3152 199.066 26.0054 196.676 28.7726 194.371C28.7263 194.464 28.6801 194.549 28.6339 194.641C26.5449 198.811 24.5793 203.097 23.6852 207.668C21.5809 218.475 25.6739 229.42 29.6976 239.665C28.1945 224.734 29.1811 209.109 35.8718 195.682C36.4654 194.495 37.0974 193.331 37.7526 192.174C35.4633 200.653 33.7983 209.31 32.8271 218.043C32.4571 221.335 32.1873 224.68 32.6884 227.956C33.806 235.225 38.7008 241.484 44.6206 245.847C45.669 246.617 46.7944 247.357 48.0816 247.55C48.3052 247.581 48.5364 247.589 48.7599 247.573C49.1068 248.56 49.5076 249.531 49.9778 250.487C52.8222 256.199 60.037 261.872 60.037 261.872C60.037 261.872 55.3505 253.755 54.5873 248.452C53.8242 243.156 54.0246 240.004 54.5719 234.677C55.204 228.449 55.9209 222.213 57.2158 216.085C57.6321 214.12 58.1562 212.208 58.7421 210.32C60.33 224.171 52.5755 237.961 57.7015 251.528C59.4589 256.191 62.6501 260.392 66.8434 263.028C68.1692 266.952 70.4046 270.513 73.7114 272.949C72.8481 270.382 72.2776 267.761 71.9385 265.102C72.031 265.109 72.1158 265.133 72.2083 265.133C74.8214 265.264 77.3496 263.175 77.7273 260.592C76.0932 261.957 74.1816 263.414 72.0695 263.113C71.9462 263.098 71.8306 263.059 71.715 263.036C71.2062 256.9 71.8537 250.61 73.0176 244.467C74.382 248.652 76.4247 252.499 78.0434 256.6C79.4386 260.138 80.2865 263.799 81.0881 267.53C81.6431 270.127 81.9669 272.848 81.381 275.446C80.9108 277.527 79.7161 279.801 77.8507 280.957C76.417 281.844 73.3414 282.507 72.5706 280.418C73.1101 283.054 76.4555 284.38 78.9992 283.501C81.5429 282.622 83.2541 280.194 84.1714 277.658C86.4376 271.384 84.7264 264.431 82.7993 258.049C81.2654 252.969 79.5927 247.912 78.159 242.802C83.5702 253.647 88.7038 264.462 88.8271 276.417C88.8734 280.487 88.2645 284.704 86.1139 288.165C83.9633 291.626 80.0244 294.177 75.9699 293.792C71.9154 293.406 68.2694 289.467 68.9863 285.451C66.7432 291.633 72.2699 298.655 78.768 299.665C85.266 300.675 91.7331 297.075 96.1576 292.211C102.124 285.652 105.276 276.61 104.668 267.769C104.452 264.67 103.812 261.656 102.902 258.704C103.265 259.321 103.611 259.937 103.951 260.569C106.294 264.932 107.866 269.611 108.113 274.583C108.36 279.462 106.88 283.517 104.49 287.825C103.203 290.153 100.729 295.248 98.2466 296.459C105.978 292.689 111.327 284.896 113.216 276.51C114.65 270.166 114.241 263.529 112.622 257.201C114.642 259.737 116.577 262.35 118.365 265.156C119.228 266.512 120.092 267.892 120.554 269.434C121.548 272.725 120.623 276.271 119.452 279.501C118.797 281.32 118.041 283.131 116.839 284.634C114.534 287.502 110.896 288.882 107.442 290.13C109.084 289.537 112.16 290.354 114.071 289.968C116.492 289.483 118.827 288.535 120.916 287.209C124.94 284.642 128.309 280.973 129.187 276.202C129.735 273.272 129.419 270.228 128.64 267.345C126.867 260.831 122.82 255.274 118.72 249.847C124.578 255.174 130.567 259.336 132.147 267.63C132.656 270.297 132.918 273.473 131.369 275.862C131.885 275.068 132.679 274.49 133.211 273.696C133.673 273.018 134.067 272.293 134.383 271.538C134.984 270.097 135.3 268.555 135.338 266.998C135.408 263.838 134.367 260.708 132.841 258.01L132.856 258.018ZM123.368 237.26C123.352 237.445 123.321 237.637 123.291 237.822C120.855 234.739 118.581 231.494 116.384 228.257C113.64 222.568 110.934 216.864 108.036 211.252C112.121 215.623 115.952 220.194 119.244 225.181C121.633 228.804 123.792 232.943 123.36 237.26H123.368ZM70.5587 92.4304C70.7669 92.3842 70.975 92.3379 71.1754 92.284C70.9287 92.5306 70.6743 92.785 70.4277 93.0317C70.4739 92.8313 70.5202 92.6308 70.5587 92.4304ZM110.603 205.363C103.75 198.148 96.6356 191.134 91.8333 182.647C94.9937 184.821 98.1232 187.041 100.96 189.615C105.562 193.786 109.439 199.412 110.603 205.355V205.363ZM111.127 194.379C110.95 194.109 110.772 193.839 110.58 193.585C107.812 190.008 104.575 186.393 101.314 183.271C98.4932 180.566 96.597 177.043 95.0168 173.459C94.3848 172.025 93.8298 170.561 93.3133 169.081C95.7568 171.863 98.5626 174.322 101.137 176.989C102.656 178.562 104.097 180.211 105.508 181.884C107.843 184.651 110.109 187.511 111.705 190.764C111.805 190.964 111.89 191.18 111.99 191.388C111.798 192.406 111.505 193.408 111.127 194.387V194.379ZM106.425 170.9C108.807 174.307 110.711 178.277 111.667 182.339C110.734 180.99 109.786 179.703 108.922 178.492C107.396 176.35 105.831 174.23 104.143 172.21C102.586 170.345 100.621 168.718 99.1947 166.791C96.4043 163.014 93.2439 159.654 91.9336 155.013C91.8102 154.582 91.71 154.142 91.6175 153.695C96.3812 159.569 102.093 164.687 106.425 170.892V170.9ZM26.4447 105.827C30.638 99.9305 36.4577 98.7589 43.079 97.5487C43.9886 97.3868 44.8904 97.2172 45.8 97.0554C41.3447 100.462 36.7506 103.607 31.4088 105.141C29.7284 105.619 28.0172 105.92 26.2906 106.059C26.3445 105.981 26.3908 105.904 26.4447 105.827ZM24.2864 116.973C23.8394 115.516 23.7006 114.036 23.8316 112.58C25.6893 112.718 27.5855 112.495 29.4355 112.21C34.0373 111.5 38.5928 110.46 43.0482 109.096C42.8323 109.211 42.6165 109.334 42.4007 109.45C40.3503 110.506 38.2074 111.354 36.0491 112.179C32.1102 113.69 28.102 115.17 24.2864 116.966V116.973ZM48.2281 245.793C47.411 245.353 46.6556 244.698 46.0698 243.989C41.0363 237.884 41.9767 230.446 43.3565 223.354C44.1967 219.053 45.2142 214.713 46.7712 210.589C46.6942 217.257 46.3473 223.925 46.5785 230.592C46.7558 235.764 46.8714 240.913 48.2281 245.793ZM62.7195 252.121C62.203 248.945 63.0818 244.59 63.9913 241.538C65.0705 237.915 66.458 234.423 68.0381 231.008C67.7684 232.997 67.4754 234.978 67.1594 236.951C66.1419 243.311 64.924 249.724 65.4636 256.137C65.5099 256.7 65.5792 257.27 65.6563 257.833C64.238 256.129 63.0664 254.272 62.7195 252.113V252.121Z" fill="#004B47"/>
<path d="M115.282 101.411C115.305 101.241 115.32 101.064 115.32 100.894C115.32 101.064 115.297 101.241 115.282 101.411Z" fill="#004B47"/>
</g>
<defs>
<filter id="filter0_d_147_160622" x="0.961426" y="0.0595703" width="232.089" height="319.776" filterUnits="userSpaceOnUse" color-interpolation-filters="sRGB">
<feFlood flood-opacity="0" result="BackgroundImageFix"/>
<feColorMatrix in="SourceAlpha" type="matrix" values="0 0 0 0 0 0 0 0 0 0 0 0 0 0 0 0 0 0 127 0" result="hardAlpha"/>
<feOffset dx="10" dy="10"/>
<feGaussianBlur stdDeviation="5"/>
<feColorMatrix type="matrix" values="0 0 0 0 0 0 0 0 0 0 0 0 0 0 0 0 0 0 0.5 0"/>
<feBlend mode="normal" in2="BackgroundImageFix" result="effect1_dropShadow_147_160622"/>
<feBlend mode="normal" in="SourceGraphic" in2="effect1_dropShadow_147_160622" result="shape"/>
</filter>
</defs>
</svg>
