<svg width="279" height="165" viewBox="0 0 279 165" fill="none" xmlns="http://www.w3.org/2000/svg">
<g filter="url(#filter0_d_147_160608)">
<path d="M4.17619 66.5958C4.36889 66.7114 4.60011 66.7577 4.82365 66.8039C5.76405 66.9966 6.78156 67.3435 7.74509 67.4052C8.8859 67.6441 9.65668 68.4304 10.6896 68.8851C11.9229 69.4247 13.1871 69.8486 14.3895 70.4653C15.9158 71.2515 17.3803 72.0224 18.6445 73.1863C19.4307 73.9032 20.2169 74.62 21.0186 75.3215C22.5602 76.6704 24.3331 77.7496 26.237 78.5204C26.7149 78.7131 27.1929 78.8826 27.6862 79.0368C28.1641 79.1833 28.5881 79.1833 29.0814 79.2141C30.2608 79.2912 31.4478 79.3606 32.6272 79.4377C33.2592 79.4762 33.899 79.5147 34.5388 79.507C35.0321 79.4993 35.6487 79.4608 36.0496 79.7999C37.8533 81.3261 39.657 82.8755 41.6766 84.1011C42.8097 84.7871 52.1751 89.4197 53.7707 90.0595C55.0657 90.5837 56.3992 91.0153 57.725 91.4547C59.4748 92.0174 61.2477 92.557 62.9589 93.2276C63.1053 93.2816 63.2672 93.3587 63.3212 93.5128C63.5832 94.2914 62.982 95.4861 62.6891 96.1798C62.3037 97.0817 61.8643 98.0144 61.9491 99.0165C62.0724 100.458 63.2903 101.614 64.6547 102.1C65.9959 102.578 68.5551 100.836 67.9076 100.789C67.6455 100.774 67.368 100.766 67.1368 100.643C66.867 100.504 66.5894 100.088 67.0673 99.9954C67.5684 99.9106 68.0771 99.8643 68.5473 99.6948C69.0175 99.5252 69.4723 99.2092 69.6573 98.739C69.7575 98.4769 69.7806 98.1686 69.9733 97.9681C70.2046 97.7292 70.5823 97.7446 70.9137 97.7754C75.4924 98.1994 80.0557 98.9317 84.6498 99.1861C85.1277 99.2169 85.621 99.2323 86.0758 99.0781C88.2572 98.315 85.9216 95.2163 88.0337 94.2451C89.1899 93.7132 90.5312 93.9213 91.7105 94.4455C91.934 94.9928 92.4273 95.4321 92.9129 95.7944C94.1154 96.6963 95.4258 97.4671 96.8441 97.9759C97.9464 98.3767 99.0949 98.6079 100.243 98.8161C101.831 99.1013 103.427 99.3248 105.03 99.5021C104.745 99.4327 104.537 99.1783 104.321 98.9856C104.121 98.8083 103.897 98.6619 103.674 98.5309C103.173 98.2302 102.656 97.9604 102.132 97.7215C103.65 97.9296 105.208 97.8448 106.703 97.4825C106.564 97.2975 106.317 97.2513 106.086 97.2205C104.182 96.9276 102.317 96.3648 100.559 95.5632C100.621 95.5478 100.675 95.5323 100.729 95.5092C101.477 95.7867 102.24 96.0411 103.018 96.2184C104.236 96.5036 105.508 96.6115 106.734 96.3803C105.624 95.9486 104.699 95.1546 103.743 94.4455C103.728 94.4301 103.704 94.4224 103.689 94.407C104.483 94.7384 105.192 95.0621 105.323 95.1161C107.165 95.9177 109.015 96.7194 110.858 97.5211C114.604 99.1552 118.335 100.82 122.004 102.616C134.414 108.698 146.177 116.252 158.756 122.002C160.861 123.428 162.98 124.839 165.092 126.242C169.224 128.986 173.51 131.792 178.389 132.694C173.679 130.666 169.424 127.899 165.37 124.8C166.981 125.425 168.607 126.026 170.257 126.573C170.696 126.843 171.136 127.113 171.575 127.375C177.649 130.99 184.016 134.073 190.368 137.157C194.831 139.323 199.448 141.527 204.404 141.774C195.663 139.33 188.017 134.42 180.378 129.402C180.763 129.487 181.141 129.579 181.526 129.657C185.404 130.451 189.35 131.167 192.973 132.809C193.505 133.048 194.037 133.318 194.576 133.557C194.792 133.557 195 133.549 195.216 133.541C195.64 133.75 196.072 133.95 196.496 134.15L195.786 134.035C196.118 134.143 196.449 134.228 196.789 134.281C201.051 136.247 205.491 137.85 209.985 139.23C211.635 139.739 213.299 140.201 214.972 140.641C216.807 142.83 218.541 145.088 220.175 147.416C219.605 145.204 218.641 143.169 217.431 141.265C223.783 142.822 230.234 143.971 236.702 144.926C229.957 143.932 223.22 142.29 216.66 140.117C215.836 138.945 214.918 137.827 213.947 136.74C215.643 137.11 217.339 137.457 219.05 137.758C219.959 138.166 220.877 138.567 221.794 138.945C227.483 141.273 233.433 142.892 239.384 144.441C242.984 145.381 246.738 146.306 250.391 145.589C247.324 145.119 244.286 144.418 241.319 143.477C237.488 142.267 233.803 140.672 230.127 139.037C231.645 139.107 233.156 139.138 234.674 139.091C236.401 139.045 238.297 138.583 240.001 138.691C235.337 138.382 230.682 137.889 226.057 137.218C224.762 136.648 223.474 136.085 222.172 135.546C218.865 134.181 215.496 132.963 212.128 131.745C210.401 131.121 208.667 130.497 206.933 129.88C206.247 129.256 205.568 128.631 204.874 128.007C207.033 128.67 209.183 129.34 211.349 129.965C212.768 130.45 214.194 130.913 215.627 131.352C224.338 134.027 233.325 135.723 242.336 137.049C236.316 136.162 230.296 134.759 224.407 132.917C224.569 132.94 224.723 132.963 224.885 132.986C227.298 133.31 229.787 133.472 232.2 133.256C239.083 135.361 246.052 137.126 253.159 138.344C247.493 136.486 241.866 134.513 236.27 132.447C236.794 132.277 237.311 132.077 237.819 131.846C237.233 132.085 236.632 132.247 236.023 132.354C234.751 131.884 233.472 131.406 232.208 130.921C233.025 130.998 233.85 131.067 234.674 131.121C236.547 131.237 238.428 131.275 240.301 131.221C241.596 131.183 242.992 130.913 244.325 130.828C250.268 131.73 256.404 131.676 262 129.572C246.769 130.543 232.416 123.074 217.439 120.083C220.067 119.775 222.688 119.389 225.278 118.888C236.347 120.522 247.231 123.397 258.061 126.265C249.15 123.043 240.132 119.805 230.936 117.593C235.175 116.46 239.346 114.934 243.439 112.83C236.756 113.978 230.065 115.127 223.351 116.036C222.11 115.828 220.869 115.643 219.62 115.489C227.259 113.793 234.667 111.072 241.527 106.94C235.831 110.34 229.232 111.134 222.796 111.781C227.429 111.103 231.992 109.978 236.046 107.442C234.459 107.966 232.847 108.436 231.236 108.86C219.744 111.866 207.711 112.336 195.933 111.149C190.029 110.556 184.17 109.507 178.381 108.22C171.745 106.74 165.231 105.291 158.941 102.632C158.14 102.292 157.107 101.637 156.066 100.89C158.633 101.437 161.169 102.123 163.659 102.948C161.223 101.113 158.194 100.257 155.218 99.5637C154.787 99.4635 154.355 99.3633 153.923 99.2631C153.785 99.1552 153.654 99.0473 153.522 98.9394C154.085 99.1167 154.656 99.2863 155.218 99.4482C158.14 100.281 161.161 100.897 164.191 100.735C162.21 100.196 160.429 99.1167 158.533 98.3227C157.299 97.8063 156.012 97.4132 154.725 97.0586C153.746 96.7888 152.759 96.5421 151.765 96.334L151.942 96.1798C155.164 96.8119 158.34 97.8217 161.47 98.8238C159.442 97.1049 156.953 95.9871 154.394 95.2626C154.016 95.1546 153.63 95.0545 153.253 94.962L152.281 94.1912C153.168 94.0755 154.054 93.9907 154.948 93.9753C153.908 93.8982 152.86 93.852 151.819 93.8288L151.403 93.4974C153.399 93.2045 155.403 92.9964 157.415 92.873C154.432 92.3489 151.403 91.9866 148.373 92.1407C147.657 92.1793 146.94 92.241 146.231 92.3412C146.146 92.3335 146.061 92.3258 145.976 92.3181C145.591 92.2872 143.687 92.1099 142.484 92.002C144.126 91.5472 145.714 90.9075 147.186 90.0441C144.589 90.3987 141.937 90.7456 139.37 90.2137C142.053 89.9439 144.727 89.4968 147.356 88.8802C139.386 88.0015 131.246 88.2327 123.453 86.3519C126.844 86.2594 130.228 85.9048 133.574 85.2959C130.167 85.2804 126.783 84.5636 123.391 84.3323C124.848 84.1473 126.313 84.0163 127.785 83.9855C124.632 83.7388 121.472 83.654 118.311 83.7157C122.844 82.914 127.43 82.3668 132.024 82.0893C128.116 81.4032 124.162 80.8868 120.192 80.7866C120.847 80.7172 121.503 80.6479 122.158 80.6016C119.198 79.8462 116.076 80.2239 113.062 80.7326C112.823 80.7712 112.584 80.8174 112.345 80.8559C112.299 80.8097 112.253 80.7634 112.207 80.7172C112.476 80.6864 112.746 80.6632 113.024 80.6324C116.037 80.2701 119.067 79.6843 121.796 78.3662C119.761 78.6283 117.695 78.32 115.644 78.32C114.303 78.32 112.97 78.451 111.644 78.6206C111.012 78.7054 110.38 78.7979 109.748 78.8981C109.617 78.8441 109.486 78.7979 109.347 78.7593C112.376 78.1889 115.483 77.9114 118.55 77.6416C116.014 76.8323 113.293 76.7706 110.649 77.0867C108.291 77.3719 105.986 77.95 103.689 78.5589C103.581 78.5204 103.466 78.4818 103.373 78.4279C102.787 78.0887 102.54 76.4623 102.325 75.861C102.271 75.7069 102.217 75.545 102.24 75.3831C102.348 74.8127 104.313 74.7742 104.784 74.6663C105.57 74.4813 106.549 74.1421 106.603 73.194C106.718 71.3749 103.843 68.7541 103.882 68.1528C103.92 67.5516 108.769 67.8599 108.884 66.0408C109 64.2217 106.618 63.4586 106.695 62.2484C106.772 61.0382 110.295 63.0886 110.41 61.2694C110.526 59.4503 107.535 58.6486 107.574 58.0474C107.612 57.4462 111.821 58.3172 111.937 56.4981C112.052 54.6789 109.671 53.9158 109.709 53.3146C109.748 52.7133 113.386 52.9446 112.854 51.6881C112.322 50.4394 111.112 50.3623 110.542 49.7148C109.971 49.0674 113.085 48.0499 112.553 46.8011C112.33 46.277 111.413 46.0611 110.904 46.038C110.488 46.0149 109.987 46.0534 109.755 45.7066C109.655 45.5601 109.632 45.3751 109.663 45.1979C109.724 44.8124 109.994 44.5041 110.264 44.2266C110.557 43.926 110.881 43.6331 111.266 43.4789C111.613 43.3479 112.06 43.2785 112.183 42.9239C112.253 42.7235 112.183 42.5 112.06 42.3304C111.705 41.8293 111.027 41.6829 110.41 41.6367C109.794 41.5904 109.139 41.5904 108.63 41.2435C108.576 41.2127 108.53 41.1664 108.499 41.1125C108.483 41.0816 108.476 41.0431 108.468 41.0123C108.468 40.9044 108.522 40.7965 108.591 40.704C109.308 39.6711 110.526 39.1315 111.574 38.4455C111.883 38.2451 112.199 37.9984 112.291 37.6438C112.407 37.2044 112.122 36.7419 111.736 36.4953C111.336 36.2409 110.858 36.2178 110.418 36.0713C109.94 35.9095 109.47 35.7784 108.977 35.7013C110.218 35.4932 111.127 35.2697 111.528 35.0153C113.432 33.8205 117.186 31.2768 116.253 31.3462C115.868 31.377 112.769 32.1247 108.584 32.9341C108.599 32.911 108.615 32.8955 108.63 32.8724C109.917 32.0322 110.827 31.3308 111.12 30.8837C112.353 29.0029 114.473 25.4032 113.895 25.5805C113.733 25.6344 109.925 28.7023 105.022 32.1016C105.015 32.1016 105.007 32.1016 104.992 32.1093C104.784 32.1401 104.56 32.1093 104.367 32.0322C107.289 29.7506 109.732 27.6463 110.11 26.7984C110.888 25.0409 112.923 21.842 112.692 21.8189C112.422 21.7958 109.046 25.0486 104.899 28.7563C104.175 29.3112 103.45 29.8739 102.733 30.4444C102.54 30.5908 102.34 30.7373 102.101 30.7758C101.862 30.8066 101.585 30.6679 101.554 30.4366C101.515 30.1977 101.731 29.9973 101.916 29.8508C103.18 28.8487 104.383 27.7542 105.3 26.8292C107.782 24.8482 109.755 23.0984 110.087 22.3507C111.166 20.5393 112.399 17.7721 111.929 18.1498C111.69 18.3348 105.053 24.9715 98.7249 29.82C98.4243 29.5579 98.432 29.4577 98.7711 29.1494C99.0486 28.8873 106.772 22.6899 107.451 21.5182C108.129 20.3466 109.555 15.1975 109.054 15.5367C108.661 15.7988 96.3971 29.9202 96.0348 28.7023L95.4258 28.6638C95.4258 28.6638 103.242 20.6395 103.928 19.4679C104.614 18.2962 106.055 13.1857 105.531 13.4863C105.285 13.6251 100.644 21.8189 92.4736 27.2609L91.8646 27.2223C91.8646 27.2223 98.9947 20.3774 99.7578 17.9879C100.521 15.5983 101.353 11.8676 100.752 11.9678C100.536 12.0063 95.9345 21.3102 90.084 26.5055L88.3034 25.7809C88.3034 25.7809 94.2619 18.25 94.9865 16.4694C95.7111 14.6888 95.7881 10.6111 95.3333 11.012C95.1252 11.197 87.7485 25.6884 86.4843 25.6653C86.1683 25.6653 84.0562 25.5111 84.0562 25.5111C84.0562 25.5111 85.3898 23.8538 86.3148 22.6128C86.4535 22.4278 86.5922 22.2428 86.6307 22.0193C86.6924 21.6724 86.5075 21.3333 86.4073 20.9864C86.2068 20.2541 86.4612 19.4679 86.8004 18.7896C87.1241 18.1421 87.4247 17.4868 87.7176 16.8317C88.4499 15.5136 88.9201 14.4961 88.9586 14.0028C89.1051 12.0834 89.344 9.41638 88.7351 9.37784C88.6426 9.37784 88.5424 9.56284 88.4961 9.62451C87.8718 10.5418 87.417 11.6055 86.9236 12.5999C86.0603 14.3419 85.197 16.084 84.3183 17.8183C83.8018 18.8204 83.2854 19.8225 82.7536 20.8168C82.3373 21.5876 81.9596 22.4124 81.42 23.0984C80.9267 23.7228 80.3178 24.2624 79.7319 24.7788C79.5084 24.9792 78.2982 24.9947 78.3521 24.8559C78.4292 24.6709 78.4678 24.4705 78.5526 24.2855C78.8917 23.5147 79.4698 22.8903 79.994 22.2505C81.2196 20.7629 82.2448 19.1056 83.0156 17.3327C83.1544 17.0244 83.6322 16.2073 83.1466 16.0377C82.715 15.8836 82.2139 16.1148 81.8208 16.2921C81.3198 16.5157 80.8651 16.8317 80.4334 17.1631C79.0999 18.2038 77.7972 19.2829 76.4637 20.3235C76.2401 20.5008 76.0089 20.6781 75.7853 20.8554C75.6158 20.9864 75.3383 21.1329 75.2072 21.3024C75.8933 20.3852 76.6718 19.5527 77.3115 18.6046C77.7972 17.8877 78.198 17.1169 78.5757 16.3384C78.9226 15.6215 79.2541 14.8892 79.5624 14.1569C79.7165 13.7869 79.8707 13.4169 80.0171 13.0469C80.1482 12.7155 80.31 12.3763 80.364 12.0217C80.3948 11.7828 80.3331 11.3203 79.9786 11.4128C79.8629 11.4436 79.7781 11.5207 79.6856 11.5978C79.5777 11.698 79.4544 11.7905 79.3465 11.883C78.6759 12.4457 77.9976 13.0315 77.3732 13.6559C76.7565 14.2725 76.0474 14.8275 75.3922 15.4134C73.6424 16.9704 71.9235 18.566 70.2663 20.231C69.2565 21.2485 68.2698 22.3122 67.1598 23.2295C67.4296 23.006 67.6377 22.5203 67.8382 22.2274C67.8613 21.9268 68.4394 21.3487 68.6167 21.0866C68.8942 20.6781 69.1563 20.2618 69.4338 19.8456C70.0119 18.9746 70.5978 18.1035 71.1913 17.2402C72.0392 16.0069 72.9795 14.789 73.6502 13.4478C73.8737 12.993 73.9662 12.5459 74.0201 12.0449C74.0664 11.5439 74.1357 11.0351 74.2822 10.5495C74.3593 10.2951 74.5135 9.71701 74.0741 9.72472C73.7273 9.73243 73.4498 9.97139 73.1954 10.1718C72.9333 10.3799 72.6867 10.6034 72.44 10.8193C71.8542 11.328 71.2452 11.8214 70.6208 12.2838C70.0273 12.7232 69.4184 13.1471 68.8248 13.6019C68.2467 14.049 67.7303 14.5578 67.2215 15.0896C66.1964 16.1688 65.2713 17.3481 64.3617 18.5275C63.722 19.3522 63.0976 20.1847 62.4347 20.9941C61.818 21.7572 60.9394 22.5049 60.4769 23.3682C61.5946 21.2716 62.6891 19.1595 63.8376 17.0783C64.886 15.1204 66.1038 13.1857 66.8901 11.0968C67.5375 9.38553 67.63 7.68976 67.6609 5.87833C67.6609 5.50834 67.2678 5.89372 67.1753 5.99393C65.9034 7.3737 64.6239 8.76118 63.352 10.1409C62.5812 10.9811 61.8104 11.8137 61.0704 12.677C60.3536 13.5095 59.7754 14.3265 59.2282 15.2669C58.6346 16.2921 58.041 17.3096 57.4398 18.3348C57.1469 18.8358 56.8617 19.3368 56.5688 19.8379C56.299 20.3004 55.9367 20.786 55.7363 21.2793C57.278 17.4252 58.8967 13.6019 60.3921 9.72472C60.7775 8.72265 61.3479 7.63578 61.4866 6.57976C61.5637 6.02477 61.7872 4.9996 61.1937 4.62961C60.6079 4.26733 59.4131 5.83977 59.0585 6.18663C57.5246 7.69744 55.9676 9.23141 54.5878 10.8964C53.5395 12.1605 53.0692 13.9334 52.414 15.4134C51.9515 16.454 51.5045 17.4946 51.0266 18.5275C51.6047 16.585 52.1751 14.6348 52.7533 12.6924C53.3622 10.6266 54.0405 8.5916 54.6572 6.53351C54.8576 5.8629 55.0734 5.13064 55.0889 4.42919C55.0889 4.37523 55.0889 4.32126 55.0889 4.2673C55.0041 3.24982 53.4547 4.95336 53.208 5.16919C52.1597 6.06334 51.1269 6.97289 50.1865 7.99037C49.2306 9.02327 48.3749 10.1718 47.7814 11.4513C47.157 12.7926 46.8179 14.2417 46.4402 15.66C46.155 16.7161 45.7157 17.8029 45.5461 18.8975C45.7774 17.3327 45.8776 15.7294 46.024 14.1569C46.1628 12.7001 46.2861 11.2355 46.3786 9.77868C46.4171 9.10036 46.5173 8.42974 46.5173 7.74371C46.5173 7.48934 46.5559 7.01916 46.394 6.80333C45.9777 6.25605 44.8986 7.78998 44.6596 8.05977C44.0815 8.72267 43.542 9.4087 43.0332 10.1256C42.0389 11.5516 41.2141 13.1086 40.7053 14.7813C40.2197 16.4154 40.0964 18.0727 39.9422 19.7685C39.7958 21.3949 39.6647 23.0291 39.5568 24.6632C39.5029 25.3647 39.4411 26.0584 39.4026 26.7598C39.3718 27.2917 39.1945 27.8775 39.3101 28.4017C38.6318 25.3955 37.9458 22.3893 37.491 19.3368C37.3137 18.1575 37.0748 16.9781 37.1519 15.7833C37.175 15.4442 37.2136 15.1127 37.2752 14.7813C37.3215 14.5423 37.4679 14.2263 37.3523 13.9873C37.0748 13.4015 35.9879 14.8738 35.8337 15.0896C35.3481 15.7603 34.9627 16.5156 34.7469 17.3173C33.9992 20.0229 34.3229 22.8826 34.4848 25.6422C34.5619 26.9911 34.6082 28.3554 34.9242 29.6658C35.1709 30.6987 35.5871 31.6854 36.0188 32.6566C36.62 34.0055 37.2674 35.3313 37.9612 36.634C38.1462 36.9886 38.3466 37.3509 38.4391 37.744C38.8091 39.2471 38.0074 40.65 39.0326 42.0144C39.5722 42.7312 40.1041 43.4404 40.6899 44.1187C41.5609 45.1362 42.5398 46.0766 43.1719 47.2559C43.673 48.204 43.9273 49.2601 44.1586 50.3084C45.1298 54.8254 45.9315 59.6045 45.3071 64.214C45.1529 65.3394 36.7972 68.5614 35.7412 69.0624C33.344 70.2109 30.5691 70.157 27.9175 70.0182C26.6302 69.9488 25.312 69.8641 24.1096 69.3939C22.6219 68.8234 21.4117 67.7212 20.348 66.5572C20.1244 66.3183 19.8932 66.0871 19.6619 65.8558C20.294 65.8404 20.8182 65.8327 21.1574 65.825C21.1419 66.1872 21.3423 66.5341 21.6892 66.6883C22.144 66.8964 22.6913 66.6883 22.8917 66.2335C23.0073 65.9791 22.9919 65.7094 22.8917 65.4781C23.1538 65.3779 23.3696 65.1543 23.4467 64.8614C23.5777 64.3758 23.2848 63.8748 22.7992 63.7438C22.7915 63.7438 22.7761 63.7438 22.7684 63.7438C23.0458 63.5896 23.2385 63.2967 23.2385 62.9575C23.2385 62.68 23.1152 62.4334 22.9302 62.2715C23.1306 62.0711 23.2386 61.7859 23.1923 61.4853C23.1153 60.9842 22.6527 60.645 22.1517 60.7221C21.9435 60.753 21.7586 60.8609 21.6276 61.0073C21.6353 60.8763 21.6276 60.7453 21.5659 60.6143C21.3809 60.1441 20.8567 59.9128 20.3865 60.0978C19.9163 60.2828 19.6851 60.8069 19.8701 61.2771C19.8932 61.3388 19.924 61.3927 19.9548 61.4467L17.6116 63.9288C17.3572 63.7823 17.0875 63.6512 16.8408 63.5202C15.9466 63.05 15.0987 62.734 14.0812 62.6723C13.0868 62.6107 12.0771 62.7186 11.1058 62.9267C9.22505 63.3661 8.40798 64.1677 6.67364 65.0079C6.23427 65.216 5.69469 65.2468 5.22449 65.347C4.87762 65.4241 4.53079 65.586 4.20705 65.7171C4.09143 65.7633 3.72908 65.8404 3.6597 65.9406C3.52866 66.141 3.95262 66.5033 4.14532 66.6112L4.17619 66.5958ZM205.961 123.76C205.607 123.652 205.244 123.552 204.89 123.444C204.936 123.421 204.99 123.405 205.036 123.382C205.345 123.505 205.653 123.636 205.961 123.76ZM225.687 128.4C221.37 126.681 217.084 124.908 212.822 123.066C215.458 123.513 218.079 124.037 220.676 124.677C227.537 126.365 234.196 128.84 241.111 130.281C241.774 130.42 242.444 130.543 243.123 130.659C237.28 130.188 231.46 129.433 225.687 128.4ZM203.086 124.168C203.086 124.168 203.094 124.168 203.102 124.168C205.337 125.232 208.043 125.833 210.386 126.527C213.084 127.329 215.812 128.046 218.564 128.67C218.564 128.67 218.58 128.67 218.587 128.67C221.547 129.757 224.515 130.797 227.506 131.784C221.046 130.659 214.741 128.816 208.474 126.797C206.655 125.957 204.859 125.086 203.094 124.168H203.086ZM208.659 133.865C207.842 133.665 207.025 133.464 206.216 133.256C206.316 133.256 206.408 133.256 206.509 133.249C206.909 133.241 207.387 133.164 207.565 132.825C207.935 133.164 208.297 133.518 208.659 133.865ZM212.906 134.844C212.752 134.813 212.598 134.783 212.444 134.744C212.274 134.705 212.105 134.667 211.935 134.628C211.758 134.451 211.581 134.274 211.403 134.096C211.904 134.343 212.405 134.598 212.906 134.844ZM200.219 133.418C200.558 133.41 200.889 133.403 201.229 133.387C202.423 133.734 203.633 134.05 204.751 134.382C206.755 134.975 208.775 135.507 210.81 136.008C211.773 137.01 212.714 138.035 213.631 139.084C209.037 137.434 204.543 135.53 200.211 133.418H200.219ZM198.723 126.172C199.039 126.265 199.348 126.357 199.664 126.45C200.489 127.028 201.306 127.614 202.107 128.223C201.306 127.953 200.496 127.683 199.695 127.421C199.271 127.09 198.931 126.689 198.731 126.172H198.723ZM19.0684 65.2237C20.1707 65.0233 21.1727 64.8306 21.6892 64.7304C21.7046 64.8229 21.7277 64.9154 21.7662 64.9925C21.5504 65.0773 21.3655 65.2392 21.2576 65.4704C21.2344 65.5321 21.2113 65.586 21.1958 65.6477L19.5155 65.6708C19.3614 65.5244 19.2072 65.3702 19.0608 65.216L19.0684 65.2237ZM18.5674 64.6379C19.2997 64.3065 20.0166 63.975 20.5947 63.7052C20.7257 64.0289 21.034 64.2602 21.3963 64.2756C21.535 64.2756 21.6661 64.2525 21.7894 64.1985C21.7586 64.2525 21.7355 64.3141 21.72 64.3835C21.7046 64.4452 21.6969 64.5069 21.6892 64.5686L18.9374 65.0696C18.8141 64.9308 18.6985 64.7844 18.5674 64.6456V64.6379ZM18.2436 64.3142C19.5617 63.4431 20.9415 62.495 21.5428 62.0788C21.589 62.1559 21.6507 62.2253 21.72 62.2869C21.6661 62.3409 21.6198 62.4025 21.5813 62.4642C21.5427 62.4642 21.5043 62.4488 21.4657 62.4488C20.9647 62.4257 20.5406 62.8188 20.5175 63.3198C20.5175 63.3815 20.5175 63.4432 20.533 63.5048L18.367 64.4221C18.3285 64.3836 18.2899 64.345 18.2436 64.3142ZM17.7966 63.9981C18.7447 63.0038 19.6543 62.0171 20.0859 61.5546C20.3326 61.8167 20.7257 61.9169 21.0803 61.7781C21.2113 61.7242 21.3192 61.6471 21.4117 61.5546C21.4117 61.6163 21.4117 61.6857 21.4194 61.7473C21.4271 61.809 21.4426 61.8706 21.4657 61.9246L18.1049 64.1908C18.1049 64.1908 18.0741 64.16 18.0587 64.1523C17.9739 64.0983 17.8814 64.0444 17.7966 63.9904V63.9981Z" fill="#004B47"/>
<path d="M193.05 126.473C193.559 126.458 194.075 126.442 194.584 126.435C194.985 126.612 195.386 126.774 195.787 126.912L193.042 126.481L193.05 126.473Z" fill="#004B47"/>
</g>
<defs>
<filter id="filter0_d_147_160608" x="0.63501" y="0.945801" width="278.365" height="163.47" filterUnits="userSpaceOnUse" color-interpolation-filters="sRGB">
<feFlood flood-opacity="0" result="BackgroundImageFix"/>
<feColorMatrix in="SourceAlpha" type="matrix" values="0 0 0 0 0 0 0 0 0 0 0 0 0 0 0 0 0 0 127 0" result="hardAlpha"/>
<feOffset dx="7" dy="7"/>
<feGaussianBlur stdDeviation="5"/>
<feColorMatrix type="matrix" values="0 0 0 0 0 0 0 0 0 0 0 0 0 0 0 0 0 0 0.5 0"/>
<feBlend mode="normal" in2="BackgroundImageFix" result="effect1_dropShadow_147_160608"/>
<feBlend mode="normal" in="SourceGraphic" in2="effect1_dropShadow_147_160608" result="shape"/>
</filter>
</defs>
</svg>
