<svg width="259" height="144" viewBox="0 0 259 144" fill="none" xmlns="http://www.w3.org/2000/svg">
<path d="M0.541178 62.65C0.733882 62.7656 0.965102 62.8119 1.18864 62.8581C2.12904 63.0508 3.14655 63.3977 4.11008 63.4594C5.25089 63.6983 6.02167 64.4845 7.05456 64.9393C8.28788 65.4789 9.55206 65.9028 10.7545 66.5195C12.2808 67.3057 13.7453 68.0766 15.0095 69.2405C15.7957 69.9574 16.5819 70.6742 17.3836 71.3757C18.9252 72.7246 20.6981 73.8038 22.602 74.5746C23.0799 74.7673 23.5578 74.9368 24.0512 75.091C24.5291 75.2375 24.9531 75.2375 25.4464 75.2683C26.6258 75.3454 27.8128 75.4148 28.9922 75.4919C29.6242 75.5304 30.264 75.5689 30.9038 75.5612C31.3971 75.5535 32.0137 75.515 32.4145 75.8541C34.2183 77.3803 36.022 78.9297 38.0416 80.1553C39.1747 80.8413 48.5401 85.4739 50.1357 86.1137C51.4307 86.6379 52.7642 87.0695 54.09 87.5089C55.8397 88.0716 57.6127 88.6112 59.3239 89.2818C59.4703 89.3358 59.6322 89.4129 59.6861 89.567C59.9482 90.3456 59.347 91.5403 59.0541 92.234C58.6687 93.1359 58.2293 94.0686 58.3141 95.0707C58.4374 96.5121 59.6553 97.6684 61.0196 98.154C62.3609 98.6319 64.9201 96.8898 64.2726 96.8436C64.0105 96.8282 63.733 96.8204 63.5018 96.6971C63.232 96.5584 62.9544 96.1421 63.4323 96.0496C63.9333 95.9648 64.4421 95.9186 64.9123 95.749C65.3825 95.5794 65.8373 95.2634 66.0223 94.7932C66.1225 94.5311 66.1456 94.2228 66.3383 94.0223C66.5696 93.7834 66.9472 93.7988 67.2787 93.8296C71.8574 94.2536 76.4207 94.9859 81.0148 95.2402C81.4927 95.2711 81.986 95.2865 82.4408 95.1323C84.6222 94.3692 82.2866 91.2705 84.3987 90.2993C85.5549 89.7675 86.8961 89.9755 88.0755 90.4997C88.299 91.047 88.7923 91.4863 89.2779 91.8486C90.4804 92.7505 91.7908 93.5213 93.2091 94.0301C94.3114 94.4309 95.4599 94.6621 96.6084 94.8703C98.1963 95.1555 99.7919 95.379 101.395 95.5563C101.11 95.4869 100.902 95.2325 100.686 95.0398C100.486 94.8625 100.262 94.7161 100.039 94.5851C99.5375 94.2844 99.021 94.0146 98.4969 93.7757C100.015 93.9838 101.573 93.899 103.068 93.5367C102.929 93.3517 102.682 93.3055 102.451 93.2747C100.547 92.9818 98.682 92.419 96.9245 91.6174C96.9861 91.602 97.0401 91.5865 97.094 91.5634C97.8417 91.8409 98.6048 92.0953 99.3834 92.2726C100.601 92.5578 101.873 92.6657 103.099 92.4345C101.989 92.0028 101.064 91.2088 100.108 90.4997C100.093 90.4843 100.069 90.4766 100.054 90.4612C100.848 90.7926 101.557 91.1163 101.688 91.1703C103.53 91.9719 105.38 92.7736 107.223 93.5753C110.969 95.2094 114.7 96.8744 118.369 98.6704C130.779 104.752 142.542 112.306 155.121 118.056C157.226 119.483 159.345 120.893 161.457 122.296C165.589 125.04 169.875 127.846 174.754 128.748C170.044 126.72 165.789 123.953 161.735 120.855C163.346 121.479 164.972 122.08 166.622 122.627C167.061 122.897 167.501 123.167 167.94 123.429C174.014 127.044 180.381 130.128 186.733 133.211C191.196 135.377 195.813 137.581 200.769 137.828C192.028 135.385 184.382 130.474 176.743 125.456C177.128 125.541 177.506 125.634 177.891 125.711C181.769 126.505 185.715 127.222 189.338 128.863C189.87 129.102 190.402 129.372 190.941 129.611C191.157 129.611 191.365 129.603 191.581 129.596C192.005 129.804 192.437 130.004 192.861 130.205L192.151 130.089C192.483 130.197 192.814 130.282 193.154 130.336C197.416 132.301 201.856 133.905 206.35 135.284C208 135.793 209.664 136.256 211.337 136.695C213.172 138.884 214.906 141.143 216.54 143.47C215.97 141.258 215.006 139.223 213.796 137.319C220.148 138.876 226.599 140.025 233.067 140.981C226.322 139.986 219.585 138.344 213.025 136.171C212.201 134.999 211.283 133.881 210.312 132.795C212.008 133.165 213.704 133.511 215.415 133.812C216.324 134.221 217.242 134.621 218.159 134.999C223.848 137.327 229.798 138.946 235.749 140.495C239.349 141.435 243.103 142.36 246.756 141.644C243.689 141.173 240.651 140.472 237.684 139.532C233.853 138.321 230.168 136.726 226.492 135.092C228.01 135.161 229.521 135.192 231.039 135.146C232.766 135.099 234.662 134.637 236.366 134.745C231.702 134.436 227.046 133.943 222.422 133.273C221.127 132.702 219.839 132.139 218.537 131.6C215.23 130.235 211.861 129.018 208.493 127.8C206.766 127.175 205.032 126.551 203.298 125.934C202.612 125.31 201.933 124.686 201.239 124.061C203.398 124.724 205.548 125.395 207.714 126.019C209.133 126.505 210.559 126.967 211.992 127.407C220.703 130.081 229.69 131.777 238.701 133.103C232.681 132.216 226.661 130.814 220.772 128.971C220.934 128.994 221.088 129.018 221.25 129.041C223.663 129.364 226.152 129.526 228.565 129.31C235.448 131.415 242.417 133.18 249.524 134.398C243.858 132.54 238.231 130.567 232.635 128.501C233.159 128.332 233.676 128.131 234.184 127.9C233.598 128.139 232.997 128.301 232.388 128.409C231.116 127.938 229.837 127.46 228.573 126.975C229.39 127.052 230.215 127.121 231.039 127.175C232.912 127.291 234.793 127.329 236.666 127.276C237.961 127.237 239.357 126.967 240.69 126.882C246.633 127.784 252.769 127.73 258.365 125.626C243.134 126.597 228.781 119.128 213.804 116.137C216.432 115.829 219.053 115.443 221.643 114.942C232.712 116.577 243.596 119.452 254.426 122.319C245.515 119.097 236.497 115.86 227.301 113.647C231.54 112.514 235.711 110.988 239.804 108.884C233.121 110.032 226.43 111.181 219.716 112.09C218.475 111.882 217.234 111.697 215.985 111.543C223.624 109.847 231.032 107.126 237.892 102.995C232.196 106.394 225.597 107.188 219.161 107.835C223.794 107.157 228.357 106.032 232.411 103.496C230.824 104.02 229.212 104.49 227.601 104.914C216.109 107.92 204.076 108.39 192.298 107.203C186.393 106.61 180.535 105.561 174.746 104.274C168.11 102.794 161.596 101.345 155.306 98.6858C154.505 98.3466 153.472 97.6915 152.431 96.9438C154.998 97.4911 157.534 98.1771 160.024 99.0018C157.588 97.1673 154.559 96.3117 151.583 95.6179C151.152 95.5177 150.72 95.4175 150.288 95.3173C150.15 95.2094 150.019 95.1015 149.887 94.9936C150.45 95.1709 151.021 95.3405 151.583 95.5023C154.505 96.3348 157.526 96.9515 160.556 96.7896C158.575 96.25 156.794 95.1709 154.898 94.3769C153.664 93.8605 152.377 93.4674 151.09 93.1128C150.111 92.843 149.124 92.5963 148.13 92.3882L148.307 92.234C151.529 92.8661 154.705 93.8759 157.835 94.878C155.807 93.1591 153.318 92.0413 150.758 91.3168C150.381 91.2088 149.995 91.1087 149.618 91.0162L148.646 90.2454C149.533 90.1297 150.419 90.0449 151.313 90.0295C150.273 89.9524 149.225 89.9062 148.184 89.883L147.768 89.5516C149.764 89.2587 151.768 89.0506 153.78 88.9272C150.797 88.4031 147.768 88.0408 144.738 88.1949C144.021 88.2335 143.305 88.2952 142.596 88.3954C142.511 88.3877 142.426 88.38 142.341 88.3723C141.956 88.3414 140.052 88.1641 138.849 88.0562C140.491 87.6014 142.079 86.9617 143.551 86.0983C140.954 86.4529 138.302 86.7998 135.735 86.2679C138.418 85.9981 141.092 85.5511 143.721 84.9344C135.751 84.0557 127.611 84.2869 119.818 82.4061C123.209 82.3136 126.593 81.959 129.939 81.3501C126.532 81.3346 123.148 80.6178 119.756 80.3865C121.213 80.2015 122.678 80.0705 124.15 80.0397C120.997 79.793 117.837 79.7082 114.676 79.7699C119.209 78.9682 123.795 78.421 128.389 78.1435C124.481 77.4574 120.527 76.941 116.557 76.8408C117.212 76.7714 117.868 76.702 118.523 76.6558C115.563 75.9004 112.441 76.2781 109.427 76.7868C109.188 76.8254 108.949 76.8716 108.71 76.9101C108.664 76.8639 108.618 76.8176 108.572 76.7714C108.841 76.7406 109.111 76.7174 109.389 76.6866C112.402 76.3243 115.432 75.7385 118.161 74.4204C116.126 74.6825 114.06 74.3742 112.009 74.3742C110.668 74.3742 109.335 74.5052 108.009 74.6748C107.377 74.7596 106.745 74.8521 106.113 74.9523C105.982 74.8983 105.851 74.8521 105.712 74.8135C108.741 74.2431 111.848 73.9656 114.915 73.6958C112.379 72.8865 109.658 72.8248 107.014 73.1409C104.656 73.4261 102.351 74.0042 100.054 74.6131C99.9461 74.5746 99.8305 74.536 99.738 74.4821C99.1522 74.1429 98.9054 72.5165 98.6896 71.9152C98.6356 71.7611 98.5817 71.5992 98.6048 71.4373C98.7127 70.8669 100.678 70.8284 101.149 70.7205C101.935 70.5355 102.914 70.1963 102.968 69.2482C103.083 67.4291 100.208 64.8083 100.247 64.207C100.285 63.6058 105.134 63.9141 105.249 62.095C105.365 60.2759 102.983 59.5128 103.06 58.3026C103.137 57.0924 106.66 59.1428 106.775 57.3236C106.891 55.5045 103.9 54.7028 103.939 54.1016C103.977 53.5004 108.186 54.3714 108.302 52.5522C108.417 50.7331 106.036 49.97 106.074 49.3688C106.113 48.7675 109.751 48.9988 109.219 47.7423C108.687 46.4936 107.477 46.4165 106.907 45.769C106.336 45.1216 109.45 44.1041 108.918 42.8553C108.695 42.3312 107.778 42.1153 107.269 42.0922C106.853 42.0691 106.352 42.1076 106.12 41.7608C106.02 41.6143 105.997 41.4293 106.028 41.2521C106.089 40.8666 106.359 40.5583 106.629 40.2808C106.922 39.9802 107.246 39.6873 107.631 39.5331C107.978 39.4021 108.425 39.3327 108.548 38.9781C108.618 38.7777 108.548 38.5542 108.425 38.3846C108.07 37.8835 107.392 37.7371 106.775 37.6909C106.159 37.6446 105.504 37.6446 104.995 37.2977C104.941 37.2669 104.895 37.2206 104.864 37.1667C104.848 37.1358 104.841 37.0973 104.833 37.0665C104.833 36.9586 104.887 36.8507 104.956 36.7582C105.673 35.7253 106.891 35.1857 107.939 34.4997C108.248 34.2993 108.564 34.0526 108.656 33.698C108.772 33.2586 108.487 32.7961 108.101 32.5495C107.701 32.2951 107.223 32.272 106.783 32.1255C106.305 31.9637 105.835 31.8326 105.342 31.7555C106.583 31.5474 107.492 31.3239 107.893 31.0695C109.797 29.8747 113.551 27.331 112.618 27.4004C112.233 27.4312 109.134 28.1789 104.949 28.9883C104.964 28.9652 104.98 28.9497 104.995 28.9266C106.282 28.0864 107.192 27.385 107.485 26.9379C108.718 25.0571 110.838 21.4574 110.26 21.6347C110.098 21.6886 106.29 24.7565 101.387 28.1558C101.38 28.1558 101.372 28.1558 101.357 28.1635C101.149 28.1943 100.925 28.1635 100.732 28.0864C103.654 25.8048 106.097 23.7005 106.475 22.8526C107.253 21.0951 109.288 17.8962 109.057 17.8731C108.787 17.85 105.411 21.1028 101.264 24.8105C100.54 25.3654 99.815 25.9281 99.0982 26.4986C98.9055 26.645 98.7051 26.7915 98.4661 26.83C98.2272 26.8608 97.9496 26.7221 97.9188 26.4908C97.8802 26.2519 98.0961 26.0515 98.2811 25.905C99.5453 24.9029 100.748 23.8084 101.665 22.8834C104.147 20.9024 106.12 19.1526 106.452 18.4049C107.531 16.5935 108.764 13.8263 108.294 14.204C108.055 14.389 101.418 21.0257 95.0899 25.8742C94.7893 25.6121 94.797 25.5119 95.1361 25.2036C95.4136 24.9415 103.137 18.7441 103.816 17.5724C104.494 16.4008 105.92 11.2517 105.419 11.5909C105.026 11.853 92.7621 25.9744 92.3998 24.7565L91.7908 24.718C91.7908 24.718 99.6069 16.6937 100.293 15.5221C100.979 14.3504 102.42 9.2399 101.896 9.54052C101.65 9.67927 97.0093 17.8731 88.8386 23.3151L88.2296 23.2765C88.2296 23.2765 95.3597 16.4316 96.1228 14.0421C96.8859 11.6525 97.7184 7.92177 97.1172 8.02198C96.9014 8.06052 92.2995 17.3644 86.449 22.5597L84.6684 21.8351C84.6684 21.8351 90.6269 14.3042 91.3515 12.5236C92.076 10.743 92.1531 6.66535 91.6983 7.06617C91.4902 7.25117 84.1135 21.7426 82.8493 21.7195C82.5333 21.7195 80.4212 21.5653 80.4212 21.5653C80.4212 21.5653 81.7548 19.908 82.6798 18.667C82.8185 18.482 82.9572 18.297 82.9957 18.0735C83.0574 17.7266 82.8725 17.3874 82.7722 17.0406C82.5718 16.3083 82.8262 15.5221 83.1654 14.8438C83.4891 14.1963 83.7897 13.541 84.0826 12.8859C84.8149 11.5678 85.2851 10.5503 85.3236 10.057C85.4701 8.13762 85.709 5.47058 85.1 5.43204C85.0075 5.43204 84.9074 5.61704 84.8611 5.67871C84.2368 6.59598 83.782 7.6597 83.2886 8.65406C82.4253 10.3961 81.562 12.1382 80.6833 13.8725C80.1668 14.8746 79.6504 15.8767 79.1186 16.871C78.7023 17.6418 78.3245 18.4666 77.785 19.1526C77.2916 19.777 76.6827 20.3166 76.0969 20.833C75.8734 21.0334 74.6632 21.0489 74.7171 20.9101C74.7942 20.7251 74.8328 20.5247 74.9175 20.3397C75.2567 19.5689 75.8348 18.9445 76.359 18.3047C77.5846 16.8171 78.6098 15.1598 79.3806 13.3869C79.5194 13.0786 79.9972 12.2615 79.5116 12.0919C79.0799 11.9378 78.5789 12.169 78.1858 12.3463C77.6848 12.5699 77.2301 12.8859 76.7984 13.2173C75.4649 14.258 74.1622 15.3371 72.8287 16.3777C72.6051 16.555 72.3739 16.7323 72.1503 16.9096C71.9807 17.0406 71.7033 17.1871 71.5722 17.3566C72.2582 16.4394 73.0368 15.6069 73.6765 14.6588C74.1622 13.9419 74.563 13.1711 74.9407 12.3926C75.2876 11.6757 75.619 10.9434 75.9274 10.2111C76.0815 9.84114 76.2357 9.47114 76.3821 9.10115C76.5132 8.7697 76.675 8.43052 76.729 8.07594C76.7598 7.83699 76.6981 7.37452 76.3435 7.46701C76.2279 7.49785 76.1431 7.57492 76.0506 7.652C75.9427 7.75221 75.8194 7.8447 75.7115 7.9372C75.0409 8.4999 74.3625 9.08571 73.7382 9.71008C73.1215 10.3267 72.4124 10.8817 71.7572 11.4676C70.0074 13.0246 68.2885 14.6202 66.6312 16.2852C65.6215 17.3027 64.6348 18.3664 63.5248 19.2837C63.7946 19.0602 64.0027 18.5745 64.2031 18.2816C64.2263 17.981 64.8044 17.4029 64.9817 17.1408C65.2592 16.7323 65.5213 16.316 65.7988 15.8998C66.3769 15.0288 66.9627 14.1577 67.5563 13.2944C68.4042 12.0611 69.3445 10.8432 70.0151 9.50199C70.2387 9.0472 70.3312 8.60012 70.3851 8.09909C70.4314 7.59806 70.5007 7.08932 70.6472 6.6037C70.7243 6.34933 70.8785 5.77121 70.4391 5.77892C70.0923 5.78663 69.8148 6.02559 69.5604 6.22601C69.2983 6.43413 69.0517 6.65764 68.805 6.87347C68.2192 7.38221 67.6102 7.87555 66.9858 8.33804C66.3923 8.77741 65.7833 9.20133 65.1898 9.65611C64.6117 10.1032 64.0953 10.612 63.5865 11.1438C62.5613 12.223 61.6363 13.4023 60.7267 14.5817C60.087 15.4064 59.4626 16.2389 58.7997 17.0483C58.183 17.8114 57.3044 18.5591 56.8419 19.4224C57.9596 17.3258 59.0541 15.2137 60.2026 13.1325C61.2509 11.1746 62.4688 9.23987 63.255 7.15095C63.9025 5.43973 63.995 3.74396 64.0259 1.93253C64.0259 1.56254 63.6327 1.94792 63.5402 2.04813C62.2684 3.4279 60.9889 4.81538 59.717 6.19514C58.9462 7.03534 58.1754 7.86785 57.4354 8.73117C56.7186 9.56365 56.1404 10.3807 55.5931 11.3211C54.9996 12.3463 54.406 13.3638 53.8048 14.389C53.5119 14.89 53.2267 15.391 52.9338 15.8921C52.664 16.3546 52.3017 16.8402 52.1013 17.3335C53.6429 13.4794 55.2617 9.65614 56.7571 5.77892C57.1425 4.77685 57.7128 3.68998 57.8516 2.63396C57.9287 2.07897 58.1522 1.0538 57.5587 0.68381C56.9729 0.321525 55.7781 1.89396 55.4235 2.24083C53.8896 3.75164 52.3326 5.28561 50.9528 6.95058C49.9045 8.21472 49.4342 9.9876 48.779 11.4676C48.3165 12.5082 47.8695 13.5488 47.3916 14.5817C47.9697 12.6392 48.5401 10.689 49.1182 8.74655C49.7272 6.68076 50.4055 4.6458 51.0221 2.58771C51.2226 1.9171 51.4384 1.18484 51.4538 0.483389C51.4538 0.429432 51.4538 0.375458 51.4538 0.3215C51.3691 -0.695982 49.8197 1.00756 49.573 1.22339C48.5247 2.11754 47.4918 3.02709 46.5514 4.04457C45.5956 5.07747 44.7399 6.22598 44.1464 7.50555C43.522 8.84677 43.1829 10.2959 42.8052 11.7142C42.52 12.7703 42.0807 13.8571 41.9111 14.9517C42.1423 13.3869 42.2425 11.7836 42.389 10.2111C42.5277 8.75428 42.651 7.28973 42.7435 5.83288C42.7821 5.15456 42.8823 4.48393 42.8823 3.7979C42.8823 3.54353 42.9209 3.07336 42.759 2.85753C42.3427 2.31025 41.2636 3.84418 41.0246 4.11397C40.4465 4.77687 39.907 5.4629 39.3982 6.17976C38.4039 7.60577 37.5791 9.16281 37.0703 10.8355C36.5847 12.4696 36.4614 14.1269 36.3072 15.8227C36.1608 17.4491 36.0297 19.0833 35.9218 20.7174C35.8679 21.4189 35.8061 22.1126 35.7676 22.814C35.7368 23.3459 35.5595 23.9317 35.6751 24.4559C34.9968 21.4497 34.3108 18.4435 33.856 15.391C33.6787 14.2117 33.4398 13.0323 33.5169 11.8375C33.54 11.4984 33.5786 11.1669 33.6402 10.8355C33.6865 10.5965 33.8329 10.2805 33.7173 10.0415C33.4398 9.4557 32.3529 10.928 32.1987 11.1438C31.7131 11.8145 31.3277 12.5698 31.1119 13.3715C30.3642 16.077 30.6879 18.9368 30.8498 21.6964C30.9268 23.0453 30.9731 24.4096 31.2892 25.72C31.5358 26.7529 31.9521 27.7396 32.3838 28.7108C32.985 30.0597 33.6324 31.3855 34.3262 32.6882C34.5112 33.0428 34.7116 33.4051 34.8041 33.7982C35.1741 35.3013 34.3724 36.7042 35.3976 38.0686C35.9372 38.7854 36.4691 39.4946 37.0549 40.1729C37.9259 41.1904 38.9048 42.1308 39.5369 43.3101C40.0379 44.2582 40.2923 45.3143 40.5236 46.3626C41.4948 50.8796 42.2965 55.6587 41.6721 60.2682C41.5179 61.3936 33.1622 64.6156 32.1062 65.1166C29.709 66.2651 26.9341 66.2112 24.2825 66.0724C22.9952 66.003 21.677 65.9183 20.4746 65.4481C18.9869 64.8776 17.7767 63.7754 16.713 62.6114C16.4894 62.3725 16.2582 62.1413 16.0269 61.91C16.659 61.8946 17.1832 61.8869 17.5224 61.8792C17.5069 62.2414 17.7073 62.5883 18.0542 62.7425C18.509 62.9506 19.0563 62.7425 19.2567 62.2877C19.3723 62.0333 19.3569 61.7636 19.2567 61.5323C19.5188 61.4321 19.7346 61.2085 19.8117 60.9156C19.9427 60.43 19.6498 59.929 19.1642 59.798C19.1565 59.798 19.141 59.798 19.1333 59.798C19.4108 59.6438 19.6035 59.3509 19.6035 59.0117C19.6035 58.7342 19.4802 58.4876 19.2952 58.3257C19.4956 58.1253 19.6036 57.8401 19.5573 57.5395C19.4802 57.0384 19.0177 56.6992 18.5166 56.7763C18.3085 56.8072 18.1236 56.9151 17.9925 57.0615C18.0003 56.9305 17.9926 56.7995 17.9309 56.6684C17.7459 56.1982 17.2217 55.967 16.7515 56.152C16.2813 56.337 16.0501 56.8611 16.2351 57.3313C16.2582 57.393 16.289 57.4469 16.3198 57.5009L13.9766 59.983C13.7222 59.8365 13.4524 59.7054 13.2058 59.5744C12.3116 59.1042 11.4637 58.7882 10.4462 58.7265C9.45183 58.6649 8.44207 58.7728 7.47084 58.9809C5.59004 59.4203 4.77297 60.2219 3.03863 61.0621C2.59926 61.2702 2.05968 61.301 1.58948 61.4012C1.24261 61.4783 0.895785 61.6402 0.57204 61.7713C0.456417 61.8175 0.0940683 61.8946 0.0246945 61.9948C-0.106345 62.1952 0.31761 62.5575 0.510315 62.6654L0.541178 62.65ZM202.326 119.814C201.972 119.706 201.609 119.606 201.255 119.498C201.301 119.475 201.355 119.459 201.401 119.436C201.71 119.56 202.018 119.691 202.326 119.814ZM222.052 124.454C217.735 122.735 213.449 120.962 209.187 119.12C211.823 119.567 214.444 120.091 217.041 120.731C223.902 122.419 230.561 124.894 237.476 126.335C238.139 126.474 238.809 126.597 239.488 126.713C233.645 126.243 227.825 125.487 222.052 124.454ZM199.451 120.222C199.451 120.222 199.459 120.222 199.467 120.222C201.702 121.286 204.408 121.887 206.751 122.581C209.449 123.383 212.177 124.1 214.929 124.724C214.929 124.724 214.945 124.724 214.952 124.724C217.912 125.811 220.88 126.852 223.871 127.838C217.411 126.713 211.106 124.871 204.839 122.851C203.02 122.011 201.224 121.14 199.459 120.222H199.451ZM205.024 129.919C204.207 129.719 203.39 129.519 202.581 129.31C202.681 129.31 202.773 129.31 202.874 129.303C203.274 129.295 203.752 129.218 203.93 128.879C204.3 129.218 204.662 129.573 205.024 129.919ZM209.271 130.898C209.117 130.868 208.963 130.837 208.809 130.798C208.639 130.76 208.47 130.721 208.3 130.683C208.123 130.505 207.946 130.328 207.768 130.151C208.269 130.397 208.77 130.652 209.271 130.898ZM196.584 129.472C196.923 129.465 197.254 129.457 197.594 129.442C198.788 129.788 199.998 130.104 201.116 130.436C203.12 131.029 205.14 131.561 207.175 132.062C208.138 133.064 209.079 134.09 209.996 135.138C205.402 133.488 200.908 131.584 196.576 129.472H196.584ZM195.088 122.227C195.404 122.319 195.713 122.412 196.029 122.504C196.853 123.082 197.671 123.668 198.472 124.277C197.671 124.007 196.861 123.737 196.06 123.475C195.636 123.144 195.296 122.743 195.096 122.227H195.088ZM15.4334 61.2779C16.5356 61.0775 17.5377 60.8848 18.0542 60.7846C18.0696 60.8771 18.0927 60.9696 18.1312 61.0467C17.9154 61.1315 17.7305 61.2934 17.6226 61.5246C17.5994 61.5863 17.5763 61.6402 17.5608 61.7019L15.8805 61.725C15.7263 61.5786 15.5722 61.4244 15.4257 61.2702L15.4334 61.2779ZM14.9324 60.6921C15.6647 60.3607 16.3816 60.0292 16.9597 59.7594C17.0907 60.0831 17.399 60.3144 17.7613 60.3298C17.9 60.3298 18.0311 60.3067 18.1544 60.2527C18.1236 60.3067 18.1005 60.3683 18.085 60.4377C18.0696 60.4994 18.0619 60.5611 18.0542 60.6228L15.3024 61.1238C15.1791 60.985 15.0635 60.8386 14.9324 60.6998V60.6921ZM14.6086 60.3684C15.9267 59.4973 17.3065 58.5492 17.9078 58.133C17.954 58.2101 18.0157 58.2794 18.085 58.3411C18.0311 58.3951 17.9848 58.4567 17.9462 58.5184C17.9077 58.5184 17.8692 58.503 17.8307 58.503C17.3297 58.4799 16.9056 58.873 16.8825 59.374C16.8825 59.4357 16.8825 59.4974 16.8979 59.559L14.732 60.4763C14.6934 60.4378 14.6549 60.3992 14.6086 60.3684ZM14.1616 60.0523C15.1097 59.058 16.0192 58.0713 16.4509 57.6088C16.6976 57.8709 17.0907 57.9711 17.4453 57.8323C17.5763 57.7784 17.6842 57.7013 17.7767 57.6088C17.7767 57.6705 17.7767 57.7399 17.7844 57.8015C17.7921 57.8632 17.8076 57.9248 17.8307 57.9788L14.4698 60.245C14.4698 60.245 14.4391 60.2142 14.4236 60.2065C14.3389 60.1525 14.2464 60.0986 14.1616 60.0446V60.0523Z" fill="#004B47"/>
<path d="M189.415 122.527C189.924 122.512 190.44 122.496 190.949 122.489C191.35 122.666 191.751 122.828 192.152 122.967L189.407 122.535L189.415 122.527Z" fill="#004B47"/>
</svg>
