<svg width="1920" height="165" viewBox="0 0 1920 165" fill="none" xmlns="http://www.w3.org/2000/svg">
<g filter="url(#filter0_di_147_160175)">
<path fill-rule="evenodd" clip-rule="evenodd" d="M1512.47 0.507324C1512.47 0.507324 1517.96 30.3365 1530.63 95.3071C1531.5 99.7606 1531.6 103.627 1531.11 107H1920V155H1491.93C1490.65 156.672 1486.95 156.425 1480.96 155H0V107H657.695L660.675 104.468C660.405 102.85 660.214 101.242 660.075 99.6756L651.763 95.5267L653.481 83.136L662.637 81.4562C663.169 79.9482 663.805 78.4542 664.509 77.0192L659.361 69.2789L667.034 59.4216L675.791 62.5244C677 61.4821 678.303 60.4993 679.683 59.6136L679.053 50.326L684.841 47.9894L690.619 45.629L696.66 52.7012C698.253 52.3953 699.831 52.2168 701.465 52.1061L705.579 43.7942L717.967 45.506L719.652 54.6493C721.181 55.191 722.654 55.8177 724.076 56.5311L731.839 51.363L741.718 59.0548L738.579 67.8162C739.617 69.0341 740.601 70.3123 741.519 71.6618L751.02 71.6807L755.468 82.6469L748.403 88.6951C748.691 90.2709 748.883 91.8749 748.995 93.4839L757.339 97.6024L756.034 107H1432.84C1432.28 105.622 1431.46 104.015 1430.54 102.22L1430.54 102.218C1425.26 91.8926 1416.8 75.347 1435.65 60.3396C1467.91 34.6646 1512.47 0.507324 1512.47 0.507324ZM732.722 107C735.228 100.21 735.302 92.4977 732.359 85.2702C726.174 69.9178 708.669 62.4708 693.291 68.7287C678.129 74.8574 670.706 91.8617 676.346 107H732.722ZM1447.04 107H1443.27C1443.24 106.811 1443.22 106.62 1443.21 106.428C1442.8 101.915 1444.39 97.2518 1446.27 93.0496C1446.71 92.0637 1447.17 91.0848 1447.63 90.1053L1447.64 90.088C1449.14 86.8984 1450.64 83.7037 1451.49 80.2495C1452.38 76.5954 1452.38 72.473 1450.94 69.4821C1451.78 70.6263 1452.69 71.7011 1453.6 72.7725C1455.96 75.5409 1458.3 78.2866 1459.21 82.1487C1460.4 87.2374 1458.74 93.0995 1456.14 97.8344C1456.02 98.0649 1455.89 98.2955 1455.76 98.5263C1455.64 98.7275 1455.53 98.9288 1455.41 99.1303C1455.29 99.3387 1455.17 99.5472 1455.05 99.7562L1455.01 99.8179C1453.67 102.125 1452.3 104.475 1451.76 107H1447.57C1447.6 106.61 1447.66 106.221 1447.74 105.841C1448.17 103.813 1449.2 101.988 1450.3 100.283C1450.61 99.7887 1450.94 99.2958 1451.27 98.8015C1452.97 96.2352 1454.7 93.6321 1455.31 90.5712C1456.03 87.0223 1455.08 83.7783 1454.15 80.5605L1454.15 80.5596C1454.05 80.2107 1453.94 79.8621 1453.84 79.5135C1454.68 83.6223 1453.51 88.8296 1451.8 92.6664C1451.32 93.7527 1450.76 94.7965 1450.21 95.8404C1449.69 96.814 1449.17 97.7877 1448.71 98.796C1447.77 100.86 1447.07 103.1 1446.99 105.376C1446.96 105.918 1446.98 106.463 1447.04 107ZM1449.67 67.5651C1450.06 68.2249 1450.48 68.8647 1450.94 69.4821C1450.61 68.785 1450.18 68.1393 1449.67 67.5651ZM1482.16 107H1478.44C1478.15 104.454 1477.3 101.152 1475.65 96.8827C1468 101.026 1464.8 104.379 1463.92 107H1460.36C1461.52 103.043 1466.23 97.9348 1477.96 91.5806C1480.49 98.132 1481.77 103.159 1482.16 107ZM1487.51 107H1486.72C1486.96 104.925 1486.71 102.506 1486.15 100.281C1485.43 97.4471 1484.3 94.803 1483.17 92.1625L1483.16 92.1611C1482.81 91.3426 1482.46 90.5244 1482.13 89.7011C1481.49 88.1848 1480.94 86.6357 1480.47 85.0607C1479.25 85.835 1477.97 86.5375 1476.72 87.1851C1476.6 87.2448 1476.48 87.3043 1476.37 87.3636L1476.17 87.466C1476.04 87.5292 1475.92 87.5921 1475.79 87.6548C1475.31 87.8995 1474.82 88.1415 1474.33 88.3834C1471.75 89.6589 1469.18 90.9362 1466.79 92.6294C1464.27 94.4225 1461.95 96.8521 1461.01 99.1859C1461.22 98.178 1461.35 97.1794 1461.48 96.184C1461.82 93.6116 1462.15 91.0603 1463.86 88.4232C1466.1 84.9488 1470.27 82.1658 1474.29 80.417C1474.61 80.275 1474.94 80.1359 1475.28 79.9976C1475.5 79.9042 1475.73 79.8113 1475.96 79.7183L1475.96 79.7173L1475.96 79.7164L1475.96 79.7157C1477.16 79.2231 1478.37 78.7249 1479.52 78.1325C1479.73 74.1431 1481.5 71.1302 1483.48 68.8785C1484.1 68.1645 1484.76 67.4968 1485.42 66.8295L1485.44 66.8088C1485.32 65.6536 1485.27 64.4665 1485.78 63.1603C1486.35 61.7382 1488.12 59.7462 1489.86 59.5276C1489.59 59.9846 1489.38 60.4786 1489.24 60.9948C1489.13 61.5327 1489.05 62.076 1489 62.6226C1489.09 62.4799 1489.18 62.3355 1489.27 62.1884C1489.35 62.0682 1489.42 61.9464 1489.49 61.8221C1489.52 61.7643 1489.56 61.7061 1489.59 61.6473C1489.82 61.1646 1489.98 60.6517 1490.06 60.1242C1491.25 61.4199 1491.3 64.0877 1490.81 65.5356C1490.45 66.5356 1489.86 67.4366 1489.09 68.1657C1489.11 68.4883 1489.13 68.8113 1489.15 69.1353C1489.17 69.5745 1489.19 70.0157 1489.2 70.4605C1489.24 73.6009 1488.57 77.2337 1485.84 80.5358C1485.81 80.578 1485.77 80.6183 1485.74 80.6598C1486.24 81.9667 1486.9 83.2363 1487.54 84.4908C1487.82 85.0385 1488.1 85.5832 1488.37 86.1269C1490.29 90.0621 1491.65 94.8843 1491.11 98.9848C1490.7 102.097 1489.29 104.255 1487.88 106.431C1487.76 106.621 1487.64 106.81 1487.51 107ZM1460.59 100.823C1460.76 100.274 1460.9 99.7286 1461.01 99.1859C1460.79 99.7086 1460.65 100.26 1460.59 100.823ZM1503.71 107H1499.5C1500.85 103.77 1502.91 100.514 1505.45 98.522C1505.15 98.7222 1504.85 98.921 1504.55 99.1199C1501.75 100.963 1498.92 102.82 1497.16 105.985C1497.06 106.176 1496.96 106.369 1496.86 106.564C1496.79 106.708 1496.72 106.854 1496.66 107H1492.28C1493.65 102.99 1495.88 99.2031 1499.1 96.8418C1502.3 94.4922 1505.86 93.9187 1509.45 93.3404C1510.83 93.1166 1512.23 92.8922 1513.61 92.5638C1514.31 92.2462 1515.05 92.0323 1515.82 91.9288C1515.09 92.1822 1514.35 92.3877 1513.61 92.564C1510.57 93.9083 1507.9 97.0433 1506.21 100.404C1505.14 102.523 1504.37 104.745 1503.71 107ZM1521.81 71.306C1521.61 71.6347 1521.43 71.9645 1521.26 72.2978C1521.49 71.9951 1521.68 71.6611 1521.81 71.306ZM1521.26 72.2978C1520.26 73.6556 1518.34 74.8394 1516.39 75.5774C1514.56 76.274 1512.67 76.6669 1510.78 77.0593L1510.77 77.0596L1510.77 77.06C1510.19 77.1812 1509.61 77.3022 1509.03 77.4323C1506.56 77.9835 1503.96 78.7693 1501.97 80.2048C1499.64 81.8865 1498.59 84.1335 1498.09 86.1813C1497.93 86.7983 1497.82 87.4135 1497.7 88.0283C1497.44 89.4543 1497.17 90.879 1496.46 92.3234C1496.28 92.6353 1496.06 92.9203 1495.8 93.1703C1496.97 93.322 1498.46 92.3304 1499.07 91.5022C1499.7 90.6345 1499.83 89.7435 1499.96 88.8704V88.8695L1499.98 88.705C1499.99 88.6468 1500 88.5887 1500.01 88.5306C1500.26 86.9407 1500.95 85.0933 1502.92 83.8868C1504.5 82.9215 1506.39 82.6653 1508.23 82.415C1508.64 82.3589 1509.05 82.3032 1509.46 82.2397C1512.36 81.7845 1515.54 80.6829 1517.59 78.8066C1519.14 77.3818 1519.79 75.7799 1520.45 74.1652C1520.7 73.5414 1520.95 72.9158 1521.26 72.2978ZM1516.54 58.5624C1516.45 58.8641 1516.32 59.1519 1516.16 59.4172C1516.27 59.1304 1516.39 58.8451 1516.54 58.5624ZM1516.01 59.8024C1515.99 59.8751 1515.96 59.9479 1515.94 60.0206C1515.82 60.3563 1515.72 60.6926 1515.61 61.0281C1515.19 62.4125 1514.76 63.7855 1513.58 65.0593C1512.03 66.7377 1509.49 67.8285 1507.14 68.3644C1506.81 68.4386 1506.48 68.5069 1506.14 68.5756C1504.64 68.8836 1503.11 69.1989 1501.88 70.0914C1500.34 71.2054 1499.9 72.7868 1499.8 74.1288L1499.8 74.2374L1499.79 74.3369L1499.79 74.3627L1499.79 74.3907L1499.78 74.4191C1499.74 75.1551 1499.69 75.906 1499.23 76.6628C1498.79 77.3878 1497.63 78.2977 1496.66 78.2321C1496.86 78.0086 1497.02 77.7584 1497.14 77.489C1497.63 76.246 1497.75 75.0432 1497.87 73.8397C1497.93 73.3168 1497.98 72.7938 1498.06 72.2673C1498.33 70.5291 1499.04 68.5938 1500.84 67.0642C1502.38 65.7574 1504.46 64.9611 1506.45 64.369C1506.74 64.2829 1507.03 64.1996 1507.32 64.1172L1507.65 64.0245L1507.84 63.9694C1509.38 63.5377 1510.91 63.1053 1512.38 62.422C1513.92 61.7023 1515.42 60.6117 1516.15 59.4242C1516.13 59.4877 1516.1 59.5512 1516.08 59.6148C1516.06 59.6773 1516.03 59.7399 1516.01 59.8024ZM1505.22 52.2241C1503.51 52.8552 1501.73 53.6675 1500.44 54.8867L1500.44 54.8856C1499.16 56.1151 1498.37 57.7711 1498.23 59.5407C1498.18 60.0004 1498.16 60.455 1498.13 60.9094C1498.08 61.9532 1498.02 62.9961 1497.65 64.0966C1497.55 64.3369 1497.42 64.5622 1497.26 64.7659C1498.11 64.7633 1499.09 63.9092 1499.44 63.2578C1499.81 62.5764 1499.82 61.9258 1499.83 61.2881C1499.83 61.205 1499.83 61.1222 1499.83 61.0396C1499.86 59.8771 1500.18 58.4877 1501.47 57.4343C1502.51 56.5908 1503.84 56.2261 1505.13 55.8698C1505.42 55.79 1505.71 55.7107 1505.99 55.6265C1508.03 55.022 1510.2 53.928 1511.49 52.3875C1512.47 51.2182 1512.78 50.0093 1513.09 48.7903C1513.22 48.2997 1513.34 47.8074 1513.52 47.3155C1513.64 47.0936 1513.73 46.8563 1513.79 46.6097C1513.69 46.845 1513.6 47.08 1513.52 47.3155C1512.94 48.4047 1511.67 49.4616 1510.32 50.1887C1509.08 50.864 1507.76 51.327 1506.44 51.7894L1506.44 51.7905C1506.03 51.933 1505.63 52.0754 1505.22 52.2241ZM1499.3 27.172C1498.54 27.5572 1498.05 28.7577 1498.03 29.4992C1498.02 29.9265 1498.1 30.3512 1498.26 30.7463C1497.98 30.9227 1497.7 31.1021 1497.43 31.2957C1495.95 32.2803 1494.89 33.7714 1494.43 35.4875C1494.03 37.0806 1494.14 38.8761 1494.38 40.5663C1493.34 41.7936 1492.49 43.2092 1492.16 44.6264C1491.81 46.1097 1492.08 47.3293 1492.34 48.5591L1492.34 48.5635C1492.45 49.0572 1492.56 49.5526 1492.63 50.0674C1492.62 50.1879 1492.63 50.3086 1492.64 50.4286C1492.65 50.5615 1492.67 50.6937 1492.7 50.824C1492.69 50.7062 1492.68 50.5897 1492.67 50.4744C1492.66 50.3372 1492.65 50.2016 1492.63 50.0674C1492.65 48.8354 1493.31 47.3201 1494.19 46.066C1494.46 45.6777 1494.74 45.3075 1495.04 44.9487C1495.09 45.4325 1495.13 45.9196 1495.13 46.4116C1495.15 47.9399 1494.84 49.5644 1494.17 50.5972C1494.01 50.783 1493.84 50.9771 1493.69 51.1841C1493.88 51.0108 1494.04 50.8134 1494.17 50.5972C1494.52 50.2089 1494.89 49.8589 1495.25 49.51C1496.17 48.6431 1497.07 47.7834 1497.62 46.3621C1498.15 44.9865 1498.24 43.3109 1498.06 41.6956C1499.22 40.4235 1500.34 38.9854 1500.9 37.423C1501.49 35.7494 1501.45 33.9175 1500.78 32.2733C1500.69 32.0369 1500.6 31.8057 1500.5 31.5765C1500.48 31.5217 1500.45 31.467 1500.43 31.4124C1500.76 31.1829 1501.05 30.8892 1501.27 30.5486C1501.66 29.9218 1501.94 28.6564 1501.53 27.9111C1501.42 28.1503 1501.29 28.3741 1501.13 28.576C1500.71 29.0287 1500.25 29.434 1499.74 29.7845C1499.51 29.192 1499.34 28.575 1499.25 27.9454C1499.23 27.6867 1499.24 27.4263 1499.3 27.172ZM1480.58 32.2839C1480.51 32.53 1480.42 32.7668 1480.33 32.9973C1480.38 32.7499 1480.46 32.5098 1480.58 32.2839ZM1480.9 37.2541C1480.35 35.8295 1480.07 34.2008 1480.33 32.9982C1480.28 33.1408 1480.22 33.2809 1480.16 33.4193C1480.12 33.5162 1480.07 33.6122 1480.03 33.7076L1479.98 33.8214C1479.89 34.0084 1479.8 34.1934 1479.71 34.378L1479.7 34.397C1479.15 35.5275 1478.6 36.6491 1478.59 38.1714C1478.57 40.1781 1479.51 42.4194 1480.67 44.2008C1480.83 44.4496 1481 44.6981 1481.17 44.948C1481.92 46.059 1482.69 47.1966 1482.94 48.5101C1483.24 50.1529 1482.58 51.4169 1481.85 52.3183C1481.79 52.3827 1481.74 52.4467 1481.69 52.5109C1481.28 53.0009 1480.86 53.501 1480.71 54.2601C1480.55 54.9865 1480.74 56.2673 1481.39 56.8215C1481.39 56.7127 1481.4 56.6044 1481.42 56.4971C1481.43 56.4384 1481.44 56.38 1481.45 56.322C1481.47 56.2336 1481.5 56.1462 1481.52 56.0601C1481.95 54.9794 1482.59 54.15 1483.23 53.32L1483.23 53.3191C1483.5 52.9588 1483.78 52.5984 1484.04 52.2173C1485.08 50.7783 1485.55 49.0086 1485.38 47.2427C1485.19 45.4792 1484.35 43.702 1483.46 42.111C1483.38 41.9736 1483.3 41.8366 1483.23 41.7C1483.09 41.4671 1482.96 41.235 1482.82 41.0028L1482.81 40.9876C1482.11 39.783 1481.41 38.5767 1480.9 37.2541ZM1470.74 39.601C1470.66 39.9094 1470.57 40.2063 1470.47 40.4959C1470.52 40.1867 1470.61 39.8853 1470.74 39.601ZM1470.47 40.5015C1470.26 41.8817 1470.69 43.6825 1471.4 45.2325C1472.07 46.6978 1472.95 48.0159 1473.84 49.3321C1473.97 49.5267 1474.1 49.7214 1474.23 49.9164C1474.37 50.1295 1474.51 50.343 1474.65 50.5577C1475.78 52.2978 1476.85 54.2546 1477.17 56.2468C1477.55 58.5814 1476.83 60.5123 1475.91 62.0113C1475.71 62.3415 1475.49 62.66 1475.28 62.9755C1475.23 63.0519 1475.17 63.1282 1475.12 63.2043L1475.04 63.3251L1475.04 63.326C1474.35 64.3215 1473.66 65.3168 1473.22 66.5817C1473.14 66.8672 1473.1 67.1627 1473.11 67.4592C1472.33 66.8795 1472.04 65.4362 1472.17 64.5978C1472.31 63.7217 1472.76 63.1201 1473.2 62.5306C1473.26 62.4532 1473.32 62.3761 1473.38 62.2985C1474.18 61.2151 1474.87 59.725 1474.42 57.8796C1474.06 56.4026 1473.1 55.168 1472.16 53.962C1471.95 53.692 1471.74 53.4235 1471.54 53.1539C1470.09 51.218 1468.87 48.7418 1468.77 46.457C1468.7 44.7214 1469.27 43.402 1469.84 42.0717C1470.06 41.558 1470.29 41.0428 1470.47 40.5015ZM1463.12 57.4106C1461.94 55.8868 1460.76 54.3608 1459.81 52.6405H1459.81C1458.81 50.8196 1458.12 48.6737 1458.23 46.9866C1458.32 46.6255 1458.4 46.2565 1458.46 45.8745C1458.33 46.2325 1458.25 46.6071 1458.23 46.9866C1458.07 47.6562 1457.85 48.2969 1457.64 48.9356L1457.64 48.9378C1457.09 50.5909 1456.55 52.2305 1456.81 54.3225C1457.15 57.0785 1458.85 59.979 1460.77 62.2095C1461.03 62.52 1461.31 62.8286 1461.59 63.1389C1462.83 64.5253 1464.1 65.9447 1464.67 67.7033C1465.39 69.9002 1464.72 71.7549 1463.88 73.126C1463.82 73.2245 1463.76 73.3226 1463.69 73.421C1463.23 74.1685 1462.75 74.9303 1462.67 76.0002C1462.59 77.0244 1463.08 78.7474 1464.07 79.3883C1464.04 79.0311 1464.06 78.6708 1464.12 78.3184C1464.51 76.7586 1465.23 75.5048 1465.95 74.2502L1465.95 74.2482C1466.12 73.9607 1466.28 73.6732 1466.45 73.3818C1466.59 73.1206 1466.73 72.8563 1466.87 72.5864C1467.81 70.7015 1468.47 68.3119 1467.79 65.5181C1467.2 63.1334 1465.73 60.8493 1464.22 58.8312C1463.86 58.3541 1463.49 57.8825 1463.12 57.4106ZM1498.95 32.3447C1498.48 32.6725 1498.09 33.0894 1497.78 33.5715C1497.47 34.0537 1497.26 34.5918 1497.16 35.1548C1497.04 36.0109 1497.07 36.8826 1497.26 37.7264C1497.91 37.1255 1498.44 36.4093 1498.83 35.6143C1499.3 34.5818 1499.34 33.4084 1498.95 32.3447Z" fill="#F34B4C"/>
</g>
<defs>
<filter id="filter0_di_147_160175" x="-4" y="0.507324" width="1928" height="163.656" filterUnits="userSpaceOnUse" color-interpolation-filters="sRGB">
<feFlood flood-opacity="0" result="BackgroundImageFix"/>
<feColorMatrix in="SourceAlpha" type="matrix" values="0 0 0 0 0 0 0 0 0 0 0 0 0 0 0 0 0 0 127 0" result="hardAlpha"/>
<feOffset dy="4"/>
<feGaussianBlur stdDeviation="2"/>
<feComposite in2="hardAlpha" operator="out"/>
<feColorMatrix type="matrix" values="0 0 0 0 0 0 0 0 0 0 0 0 0 0 0 0 0 0 0.25 0"/>
<feBlend mode="normal" in2="BackgroundImageFix" result="effect1_dropShadow_147_160175"/>
<feBlend mode="normal" in="SourceGraphic" in2="effect1_dropShadow_147_160175" result="shape"/>
<feColorMatrix in="SourceAlpha" type="matrix" values="0 0 0 0 0 0 0 0 0 0 0 0 0 0 0 0 0 0 127 0" result="hardAlpha"/>
<feOffset dy="4"/>
<feGaussianBlur stdDeviation="2"/>
<feComposite in2="hardAlpha" operator="arithmetic" k2="-1" k3="1"/>
<feColorMatrix type="matrix" values="0 0 0 0 0 0 0 0 0 0 0 0 0 0 0 0 0 0 0.25 0"/>
<feBlend mode="normal" in2="shape" result="effect2_innerShadow_147_160175"/>
</filter>
</defs>
</svg>
