<svg width="1920" height="220" viewBox="0 0 1920 220" fill="none" xmlns="http://www.w3.org/2000/svg">
<g filter="url(#filter0_di_147_160174)">
<path fill-rule="evenodd" clip-rule="evenodd" d="M144.561 0.312744C144.561 0.312744 174.441 29.7912 240.323 93.4385C264.298 116.6 250.46 138.267 241.825 151.789C239.34 155.68 237.286 158.897 236.687 161.28C235.792 164.842 238.604 173.822 240.949 181.31L240.95 181.313L240.951 181.317C241.868 184.244 242.713 186.942 243.237 189H1755.83L1756.62 186.759C1755.18 184.997 1753.84 183.211 1752.51 181.324L1739.46 182.156L1736.15 173.993L1732.83 165.812L1742.79 157.344C1742.41 155.063 1742.14 152.795 1741.95 150.585L1730.22 144.733L1732.65 127.258L1745.56 124.889C1746.31 122.762 1747.21 120.654 1748.2 118.63L1740.94 107.714L1751.76 93.8108L1764.11 98.187C1765.82 96.7169 1767.65 95.3308 1769.6 94.0817L1768.71 80.9824L1776.88 77.6869L1785.03 74.3577L1793.54 84.3323C1795.79 83.901 1798.02 83.6491 1800.32 83.493L1806.12 71.7698L1823.6 74.1843L1825.97 87.08C1828.13 87.844 1830.21 88.7278 1832.21 89.734L1843.16 82.4449L1857.1 93.2935L1852.67 105.651C1854.13 107.368 1855.52 109.171 1856.81 111.074L1870.21 111.101L1876.49 126.568L1866.52 135.098C1866.93 137.321 1867.2 139.583 1867.36 141.852L1879.13 147.661L1876.71 165.102L1863.76 167.548C1863.01 169.643 1862.13 171.715 1861.13 173.762L1868.41 184.701L1865.05 189H1920V220H1803.52L1803.21 220.631L1798.66 220H0V189H143.008C142.502 187.863 141.971 186.958 141.412 186.371C139.719 184.59 136.349 182.8 132.273 180.635L132.271 180.634L132.27 180.633L132.268 180.632C118.095 173.105 95.3851 161.043 104.869 129.076C121.095 74.3853 144.561 0.312744 144.561 0.312744ZM211.288 73.209C211.316 73.7446 211.374 74.2614 211.45 74.7706C211.471 74.245 211.416 73.7192 211.288 73.209ZM211.45 74.7706C211.386 77.1081 210.147 79.9725 208.528 82.3499C206.999 84.595 205.164 86.5408 203.332 88.4838L203.33 88.4867L203.324 88.4927C202.76 89.0909 202.196 89.6889 201.642 90.2952C199.284 92.8742 196.958 95.8262 195.837 99.0333C194.522 102.792 195.114 106.172 196.169 108.892C196.487 109.712 196.844 110.501 197.202 111.289C198.03 113.117 198.858 114.944 199.189 117.151C199.235 117.646 199.211 118.144 199.117 118.632C200.563 117.877 201.467 115.571 201.499 114.15C201.531 112.663 200.972 111.548 200.425 110.455C200.354 110.314 200.284 110.173 200.214 110.031C199.235 108.031 198.555 105.387 199.835 102.456C200.86 100.11 202.797 98.3231 204.689 96.5779C205.113 96.1868 205.535 95.7978 205.944 95.405C208.877 92.5861 211.61 88.8159 212.445 85.0649C213.078 82.2162 212.545 79.8842 212.008 77.5335C211.8 76.6256 211.592 75.7149 211.45 74.7706ZM195.204 62.9352C195.345 63.3456 195.428 63.7742 195.448 64.2078C195.348 63.7938 195.263 63.3709 195.204 62.9352ZM195.449 64.2188C195.634 64.9894 195.872 65.7288 196.108 66.4658C196.721 68.3748 197.33 70.2679 197.002 72.6477C196.571 75.783 194.557 79.032 192.31 81.5076C191.998 81.851 191.675 82.1921 191.35 82.5349C189.894 84.073 188.404 85.6469 187.714 87.6356C186.853 90.1186 187.605 92.2625 188.562 93.8601C188.595 93.9161 188.629 93.972 188.663 94.0278C188.699 94.0865 188.734 94.1452 188.77 94.204C189.303 95.0746 189.846 95.9628 189.922 97.1878C189.995 98.3604 189.404 100.31 188.251 101.005C188.295 100.597 188.28 100.185 188.207 99.7809C187.777 97.9828 186.96 96.5225 186.143 95.0615C185.788 94.4269 185.433 93.7922 185.11 93.1296C184.042 90.9413 183.309 88.186 184.141 85.0224C184.849 82.3206 186.579 79.7672 188.365 77.519C188.779 76.9974 189.201 76.482 189.624 75.9663L189.627 75.9625C191.024 74.2569 192.423 72.549 193.547 70.6099C194.728 68.5695 195.558 66.1479 195.449 64.2188ZM177.345 64.7161C175.904 66.7892 174.521 69.1269 174.026 71.5314L174.026 71.5298C173.548 73.9397 173.969 76.4411 175.211 78.5613C175.518 79.1221 175.852 79.6563 176.186 80.1902C176.952 81.4172 177.718 82.6429 178.166 84.1879C178.246 84.5377 178.276 84.897 178.256 85.2552C179.219 84.5773 179.646 82.8374 179.532 81.8167C179.413 80.7496 178.906 80.0054 178.41 79.2761C178.345 79.1809 178.28 79.0861 178.217 78.9908C177.324 77.6519 176.584 75.8235 177.22 73.6006C177.727 71.8219 178.943 70.3561 180.131 68.9243C180.397 68.6037 180.662 68.2849 180.916 67.9645C182.747 65.6642 184.343 62.7016 184.581 59.9349C184.761 57.834 184.156 56.2159 183.546 54.5843C183.3 53.9276 183.054 53.2687 182.858 52.5754C182.822 52.2255 182.741 51.8818 182.615 51.5533C182.681 51.9044 182.764 52.2436 182.858 52.5754C183.068 54.2678 182.464 56.4742 181.516 58.3646C180.635 60.1199 179.508 61.6901 178.382 63.2577L178.381 63.2586C178.033 63.7429 177.685 64.2269 177.345 64.7161ZM150.76 41.0004C150.204 42.0392 150.606 43.785 151.166 44.6454L151.167 44.6447C151.494 45.1375 151.921 45.5567 152.419 45.8757C152.241 46.2975 152.068 46.7218 151.911 47.1583C151.016 49.4457 150.991 51.9813 151.838 54.2864C152.639 56.4164 154.185 58.3675 155.798 60.0938C155.598 62.3056 155.752 64.5883 156.498 66.4592C157.282 68.416 158.55 69.5888 159.829 70.7713L159.83 70.7722C160.344 71.2481 160.861 71.7256 161.348 72.2563C161.537 72.5531 161.765 72.8233 162.026 73.0598C161.808 72.7763 161.581 72.5104 161.348 72.2563C160.399 70.8393 159.947 68.5968 159.943 66.4823C159.942 65.8276 159.975 65.1792 160.03 64.5347C160.47 65.0444 160.894 65.5706 161.29 66.1242C162.522 67.8432 163.462 69.929 163.519 71.6332C163.478 71.9755 163.449 72.3235 163.439 72.6802C163.512 72.3364 163.539 71.9843 163.519 71.6332C163.605 70.9177 163.745 70.2283 163.885 69.5413C164.234 67.8343 164.579 66.1414 164.073 64.0952C163.584 62.1146 162.351 60.147 160.874 58.4527C161.183 56.0884 161.308 53.5733 160.709 51.3536C160.053 48.9871 158.552 46.9431 156.491 45.6077C156.134 45.3622 155.771 45.1346 155.408 44.9109C155.604 44.3865 155.693 43.8282 155.671 43.2687C155.624 42.2433 154.932 40.5907 153.874 40.0716C153.95 40.4223 153.976 40.782 153.952 41.14C153.838 41.9834 153.632 42.8118 153.337 43.6099C152.603 43.1226 151.926 42.5536 151.32 41.9141C151.091 41.6376 150.902 41.33 150.76 41.0004ZM165.883 100.846C165.429 104.966 165.81 109.787 168.728 114.483L168.729 114.482C167.897 116.064 166.917 117.591 165.947 119.101L165.946 119.103L165.945 119.103C165.49 119.812 165.037 120.517 164.604 121.222C161.437 126.389 158.914 132.851 159.122 138.571C159.28 142.913 160.925 146.072 162.582 149.256C163.224 150.488 163.868 151.724 164.428 153.035C164.595 153.8 164.872 154.538 165.248 155.225C165.008 154.466 164.729 153.74 164.428 153.035C163.643 149.643 164.349 145.047 165.789 141.014C167.148 137.204 169.059 133.712 170.968 130.224L170.969 130.224C171.56 129.143 172.152 128.062 172.727 126.972C173.64 125.24 174.527 123.434 175.301 121.586C177.081 123.001 178.936 124.32 180.856 125.538C181.892 126.203 182.937 126.852 183.983 127.502L183.984 127.503L183.987 127.505C187.365 129.602 190.747 131.703 193.804 134.351C197.042 137.154 199.917 140.807 200.902 144.148C200.985 144.911 201.102 145.679 201.265 146.458C201.254 145.675 201.132 144.897 200.902 144.148C200.745 142.732 200.697 141.339 200.65 139.95C200.527 136.362 200.405 132.803 198.407 128.945C195.775 123.862 190.401 119.476 185.101 116.536C184.369 116.13 183.62 115.734 182.868 115.336C181.143 114.423 179.397 113.5 177.783 112.421C177.792 112.344 177.802 112.269 177.808 112.194C178.288 106.283 176.163 101.635 173.622 98.1083C172.997 97.2403 172.341 96.4124 171.68 95.5917C171.979 94.1517 171.934 92.6616 171.55 91.2419C170.961 89.2084 168.779 86.2293 166.41 85.6978C166.731 86.364 166.956 87.0724 167.079 87.8018C167.138 88.3355 167.168 88.8573 167.186 89.374C166.809 88.7145 166.468 88.0351 166.165 87.3387C165.913 86.6433 165.761 85.9158 165.713 85.1777C163.911 86.806 163.476 90.4732 163.965 92.5329C164.413 94.4249 165.413 95.7306 166.462 96.9476L166.456 96.9844L166.456 96.9852C166.242 98.2622 166.027 99.5396 165.883 100.846ZM133.869 62.64C133.729 62.3204 133.632 61.9837 133.58 61.6386C133.695 61.9738 133.788 62.3077 133.869 62.64ZM133.871 62.6439C134.521 64.2198 136.131 65.8427 137.885 67.0215C139.514 68.1161 141.267 68.9279 143.017 69.7385L143.019 69.7392L143.02 69.7399C143.281 69.8608 143.542 69.9818 143.803 70.1036C143.931 70.1635 144.059 70.2236 144.187 70.2841C144.338 70.3557 144.489 70.4277 144.64 70.5004C146.915 71.5967 149.269 72.952 150.882 74.8018C152.484 76.6642 153.347 79.0486 153.31 81.5044C153.317 82.1431 153.29 82.7715 153.262 83.3998C153.198 84.8456 153.135 86.2904 153.504 87.8564C153.607 88.2003 153.757 88.5281 153.951 88.8299C152.778 88.7137 151.552 87.4083 151.149 86.4638C150.727 85.4768 150.802 84.5798 150.876 83.7009L150.888 83.5596C150.893 83.4919 150.899 83.4241 150.904 83.3565C151.022 81.7518 150.767 79.7958 149.121 78.1731C147.804 76.8758 146.026 76.1979 144.29 75.5359C143.899 75.387 143.511 75.2388 143.13 75.0845C140.404 73.9819 137.558 72.1874 135.99 69.8953C134.8 68.1562 134.531 66.4505 134.26 64.7315C134.151 64.0388 134.041 63.3439 133.871 62.6439ZM128.631 78.9641C128.436 78.5779 128.297 78.1659 128.218 77.7405C128.38 78.1484 128.514 78.5566 128.631 78.9641ZM128.633 78.9707C129.487 80.7046 131.402 82.4066 133.435 83.6027C135.356 84.7332 137.404 85.5272 139.449 86.3199L139.45 86.3203L139.451 86.3209C140.084 86.566 140.716 86.8112 141.344 87.066C144.003 88.1453 146.766 89.5178 148.712 91.5211C150.992 93.8691 151.71 96.6274 151.856 99.0567C151.899 99.79 151.903 100.515 151.906 101.24C151.913 102.916 151.92 104.592 152.43 106.372C152.566 106.759 152.755 107.125 152.994 107.459C151.649 107.421 150.175 106.014 149.662 104.957C149.126 103.852 149.162 102.811 149.198 101.791C149.202 101.657 149.207 101.524 149.21 101.391C149.256 99.5292 148.857 97.2924 146.886 95.554C145.309 94.1628 143.238 93.5256 141.216 92.9033C140.763 92.7639 140.312 92.6253 139.87 92.4791C136.696 91.4291 133.345 89.5906 131.427 87.0734C129.971 85.1608 129.569 83.2137 129.164 81.2506C129.008 80.4927 128.851 79.7324 128.633 78.9707ZM133.704 103.977L133.703 103.976C131.153 103.186 128.6 102.395 126.164 101.193L126.165 101.192C123.587 99.9192 121.1 98.0343 119.892 96.03C119.708 95.5491 119.504 95.0689 119.265 94.5909C119.404 95.0981 119.615 95.5827 119.892 96.03C120.234 96.9232 120.501 97.8196 120.767 98.7133C121.455 101.023 122.138 103.315 124.09 105.482C126.661 108.338 130.895 110.276 134.836 111.287C135.383 111.428 135.94 111.559 136.499 111.69L136.503 111.691C139.01 112.28 141.576 112.883 143.622 114.422C146.177 116.345 146.886 118.981 147.018 121.204C147.028 121.363 147.036 121.523 147.044 121.684C147.105 122.903 147.167 124.146 147.926 125.422C148.653 126.643 150.575 128.209 152.204 128.152C151.883 127.774 151.616 127.352 151.413 126.899C150.619 124.82 150.442 122.827 150.263 120.833C150.186 119.966 150.109 119.098 149.98 118.222C149.557 115.336 148.412 112.102 145.42 109.476C142.866 107.234 139.39 105.808 136.068 104.722C135.285 104.467 134.499 104.223 133.712 103.979L133.709 103.978L133.707 103.977L133.704 103.977ZM186.4 186.478C187.301 186.84 188.141 187.339 188.889 187.957L188.89 187.956C189.607 184.88 186.837 181.268 184.392 179.912C181.841 178.494 179.108 178.392 176.431 178.292L176.402 178.291C176.06 178.278 175.718 178.265 175.378 178.249C170.502 178.026 164.919 176.719 161.586 171.914C158.92 168.07 158.516 163.233 158.122 158.509C158.033 157.451 157.945 156.398 157.832 155.363C157.023 147.934 154.266 139.963 148.873 135.142C144.779 131.482 139.951 130.221 135.083 128.949C133.199 128.457 131.309 127.963 129.454 127.328C128.529 126.798 127.531 126.405 126.493 126.161C127.46 126.599 128.448 126.989 129.454 127.328C133.454 129.582 136.728 134.254 138.611 139.107C140.393 143.694 141.22 148.51 142.045 153.319L142.046 153.321L142.046 153.323C142.301 154.806 142.555 156.289 142.838 157.765C144.036 164.022 145.934 170.569 149.973 175.365C154.705 180.983 161.455 183.108 167.697 183.872C169.587 184.104 171.479 184.24 173.371 184.375H173.373C177.728 184.688 182.08 185.001 186.4 186.478ZM187.438 168.29C187.438 168.29 153.952 178.225 177.625 130.97C221.349 160.38 187.642 168.242 187.439 168.29L187.438 168.29ZM216.656 118.586C215.908 113.434 216.46 107.756 218.835 103.826C219.538 103.037 220.212 102.219 220.837 101.354C220.053 102.077 219.378 102.91 218.833 103.827C217.53 105.292 216.128 106.651 214.73 108.006C211.116 111.508 207.533 114.981 205.769 120.181C203.445 127.032 204.966 135.329 207.914 142.194C208.325 143.15 208.766 144.109 209.209 145.073L209.21 145.075C211.19 149.383 213.217 153.793 212.787 158.451C212.249 164.274 208.031 168.158 203.895 170.751C203.6 170.936 203.303 171.119 203.005 171.302C200.72 172.707 198.39 174.14 196.864 176.632C195.406 179.015 194.771 183.522 196.908 185.848C197.255 184.941 197.741 184.094 198.348 183.336C201.383 179.925 205.019 177.512 208.657 175.097L208.658 175.097C210.238 174.048 211.819 172.999 213.35 171.868C218.41 168.132 223.241 162.962 224.598 155.743C225.756 149.582 224.185 142.948 222.153 136.909C221.671 135.477 221.161 134.053 220.65 132.627L220.65 132.626C219.007 128.04 217.361 123.448 216.656 118.586ZM154.472 47.1394C154.2 47.8826 154.078 48.6719 154.112 49.4625C154.146 50.2529 154.335 51.029 154.669 51.7462C155.207 52.8157 155.936 53.7775 156.821 54.5838C157.081 53.3872 157.118 52.1528 156.928 50.943C156.637 49.4031 155.756 48.038 154.472 47.1394ZM185.778 163.823C185.778 163.823 208.586 158.583 179.204 138.818C163.343 170.48 185.778 163.823 185.778 163.823ZM153.143 162.775C153.251 165.578 153.529 168.464 154.645 171.108C155.656 173.5 157.475 175.679 159.675 176.535C157.192 175.628 154.984 173.6 153.425 171.175C151.721 168.524 150.735 165.431 150.166 162.344C149.888 160.836 149.704 159.32 149.52 157.805L149.52 157.804C149.322 156.18 149.125 154.556 148.812 152.941C147.707 147.236 144.902 140.405 140.702 136.403C141.087 136.717 141.475 137.03 141.864 137.342L141.867 137.345L141.874 137.351C145.487 140.258 149.13 143.19 151.134 147.781C152.862 151.741 152.967 156.063 153.071 160.323C153.091 161.143 153.111 161.962 153.143 162.775ZM160.379 176.76C160.142 176.695 159.908 176.62 159.675 176.535C159.906 176.625 160.141 176.7 160.379 176.76ZM210.822 132.087C211.264 136.379 213.295 140.19 215.298 143.947C215.686 144.676 216.073 145.402 216.448 146.129C217.732 148.623 218.91 151.273 219.238 154.124C219.535 156.701 219.025 159.49 217.533 161.318C217.371 161.508 217.202 161.691 217.026 161.865C217.206 161.694 217.375 161.512 217.533 161.318C219.246 159.308 220.169 156.458 220.334 153.583C220.514 150.436 219.85 147.258 218.827 144.291C218.327 142.84 217.742 141.429 217.156 140.018L217.156 140.017C216.529 138.507 215.903 136.997 215.381 135.438C213.538 129.927 212.62 122.599 214.308 117.049C214.126 117.514 213.941 117.98 213.756 118.445C212.039 122.756 210.309 127.101 210.822 132.087ZM1788.79 106.938C1767.02 115.737 1756.57 140.432 1765.34 162.065C1774.21 183.778 1798.89 194.244 1820.66 185.453C1842.33 176.654 1852.71 151.918 1843.9 130.268C1835.17 108.615 1810.48 98.1114 1788.79 106.938Z" fill="#A51D1E"/>
</g>
<defs>
<filter id="filter0_di_147_160174" x="-4" y="0.312744" width="1928" height="228.319" filterUnits="userSpaceOnUse" color-interpolation-filters="sRGB">
<feFlood flood-opacity="0" result="BackgroundImageFix"/>
<feColorMatrix in="SourceAlpha" type="matrix" values="0 0 0 0 0 0 0 0 0 0 0 0 0 0 0 0 0 0 127 0" result="hardAlpha"/>
<feOffset dy="4"/>
<feGaussianBlur stdDeviation="2"/>
<feComposite in2="hardAlpha" operator="out"/>
<feColorMatrix type="matrix" values="0 0 0 0 0 0 0 0 0 0 0 0 0 0 0 0 0 0 0.25 0"/>
<feBlend mode="normal" in2="BackgroundImageFix" result="effect1_dropShadow_147_160174"/>
<feBlend mode="normal" in="SourceGraphic" in2="effect1_dropShadow_147_160174" result="shape"/>
<feColorMatrix in="SourceAlpha" type="matrix" values="0 0 0 0 0 0 0 0 0 0 0 0 0 0 0 0 0 0 127 0" result="hardAlpha"/>
<feOffset dy="4"/>
<feGaussianBlur stdDeviation="2"/>
<feComposite in2="hardAlpha" operator="arithmetic" k2="-1" k3="1"/>
<feColorMatrix type="matrix" values="0 0 0 0 0 0 0 0 0 0 0 0 0 0 0 0 0 0 0.25 0"/>
<feBlend mode="normal" in2="shape" result="effect2_innerShadow_147_160174"/>
</filter>
</defs>
</svg>
