<svg width="149" height="294" viewBox="0 0 149 294" fill="none" xmlns="http://www.w3.org/2000/svg">
<g clip-path="url(#clip0_610_65)">
<path d="M62.8017 175.502C77.0017 175.402 98.1017 156.002 98.2017 150.402C98.3017 145.402 77.6017 125.802 63.4017 125.902C49.2017 126.002 37.6016 137.202 37.5016 150.902C37.3016 164.602 48.6017 175.602 62.8017 175.502Z" fill="#F17471"/>
<path d="M123.401 175.002C109.201 175.102 88.5014 156.102 88.6014 150.502C88.7014 145.502 109.801 125.502 124.001 125.402C138.201 125.302 149.502 136.302 149.302 150.002C149.202 163.702 137.601 174.902 123.401 175.002Z" fill="#F17471"/>
<path d="M68.0015 121.402C67.8015 135.002 87.5016 155.102 93.3016 155.002C98.5016 155.002 119.302 134.602 119.502 121.002C119.702 107.402 108.301 96.4017 94.1015 96.5017C79.9015 96.6017 68.2015 107.802 68.0015 121.402Z" fill="#F17471"/>
<path d="M67.3014 179.802C67.5014 166.202 87.6014 145.802 93.5014 145.802C98.7014 145.802 119.001 165.802 118.801 179.402C118.601 193.002 107.001 204.202 92.7014 204.302C78.5014 204.402 67.1014 193.502 67.3014 179.802Z" fill="#F17471"/>
<path d="M78.8018 122.501C78.8018 124.101 79.4017 126.201 80.6017 128.801C81.9017 131.301 83.6017 133.901 85.6017 136.201C87.6017 138.501 89.6018 140.501 91.3018 141.901C92.1018 142.501 92.8018 143.001 93.3018 143.201C93.8018 142.901 94.4018 142.501 95.2018 141.801C97.0018 140.401 99.1017 138.401 101.102 136.001C103.102 133.601 105.002 131.001 106.402 128.501C107.802 125.901 108.402 123.801 108.402 122.201C108.502 114.601 102.102 108.101 93.8018 108.201C85.5018 108.301 78.9018 114.801 78.8018 122.501Z" stroke="#A51D1E" stroke-width="9.1084"/>
<path d="M107.802 178.502C107.802 176.902 107.202 174.802 106.002 172.202C104.702 169.702 103.002 167.102 101.002 164.802C99.0018 162.502 97.0018 160.502 95.3018 159.102C94.5018 158.502 93.8018 158.002 93.3018 157.802C92.8018 158.102 92.2018 158.502 91.4018 159.202C89.6018 160.602 87.5018 162.602 85.5018 165.002C83.5018 167.402 81.6018 170.002 80.2018 172.502C78.8018 175.102 78.2018 177.202 78.2018 178.802C78.1018 186.402 84.5018 192.902 92.8018 192.802C101.102 192.702 107.702 186.202 107.802 178.502Z" stroke="#A51D1E" stroke-width="9.1084"/>
<path d="M122.701 136.102C121.001 136.102 118.701 136.702 116.001 138.002C113.401 139.302 110.601 141.002 108.201 143.002C105.701 144.902 103.601 146.902 102.201 148.602C101.601 149.302 101.201 149.902 100.901 150.302C101.201 150.702 101.601 151.302 102.101 151.902C103.501 153.602 105.601 155.602 108.001 157.502C110.401 159.402 113.101 161.202 115.701 162.402C118.401 163.702 120.601 164.302 122.301 164.302C130.601 164.202 137.201 157.702 137.301 150.102C137.401 142.502 131.001 136.102 122.701 136.102Z" stroke="#A51D1E" stroke-width="9.1084"/>
<path d="M64.0015 164.901C65.7015 164.901 68.0016 164.301 70.7016 163.001C73.3016 161.701 76.1015 160.001 78.5015 158.001C81.0015 156.101 83.1015 154.101 84.5015 152.401C85.1015 151.701 85.5016 151.101 85.8016 150.701C85.5016 150.301 85.1015 149.701 84.6015 149.101C83.2015 147.401 81.1016 145.401 78.7016 143.501C76.3016 141.601 73.6015 139.801 71.0015 138.601C68.3015 137.301 66.1015 136.701 64.4015 136.701C56.1015 136.801 49.5015 143.301 49.4015 150.901C49.2015 158.501 55.6015 164.901 64.0015 164.901Z" stroke="#A51D1E" stroke-width="9.1084"/>
<path d="M88.3018 150.602C88.3018 153.002 90.3017 155.102 93.1017 155.102C96.0017 155.102 98.0017 152.902 98.1017 150.502C98.1017 148.102 96.1018 146.002 93.3018 146.002C90.4018 146.102 88.3018 148.302 88.3018 150.602Z" stroke="#A51D1E" stroke-width="9.1084"/>
<path d="M17.4015 280.302C24.3015 280.202 34.6015 270.802 34.7015 268.102C34.7015 265.702 24.6015 256.102 17.7015 256.102C10.8015 256.202 5.10146 261.602 5.00146 268.302C5.00146 275.002 10.5015 280.302 17.4015 280.302Z" fill="#F17471"/>
<path d="M47.0015 280.001C40.1015 280.101 30.0015 270.801 30.0015 268.001C30.0015 265.601 40.4015 255.801 47.3015 255.801C54.2015 255.701 59.7014 261.101 59.6014 267.801C59.5014 274.501 53.9015 280.001 47.0015 280.001Z" fill="#F17471"/>
<path d="M20.0018 253.901C19.9018 260.601 29.5018 270.301 32.3018 270.301C34.8018 270.301 45.0017 260.401 45.1017 253.701C45.2017 247.001 39.6018 241.701 32.7018 241.801C25.7018 241.801 20.0018 247.301 20.0018 253.901Z" fill="#F17471"/>
<path d="M19.6014 282.401C19.7014 275.701 29.5015 265.801 32.4015 265.801C34.9015 265.801 44.8015 275.501 44.7015 282.201C44.6015 288.901 38.9014 294.301 32.0014 294.401C25.1014 294.401 19.5014 289.101 19.6014 282.401Z" fill="#F17471"/>
<path d="M25.2017 254.401C25.2017 255.201 25.5016 256.201 26.1016 257.501C26.7016 258.701 27.6016 260.001 28.5016 261.101C29.5016 262.201 30.4016 263.201 31.3016 263.901C31.7016 264.201 32.0016 264.401 32.3016 264.601C32.5016 264.501 32.9017 264.201 33.2017 263.901C34.1017 263.201 35.1016 262.201 36.1016 261.101C37.1016 259.901 38.0017 258.701 38.7017 257.401C39.4017 256.101 39.7017 255.101 39.7017 254.401C39.7017 250.701 36.6016 247.501 32.6016 247.601C28.6016 247.701 25.3017 250.701 25.2017 254.401Z" stroke="#A51D1E" stroke-width="4.4419"/>
<path d="M39.4014 281.802C39.4014 281.002 39.1013 280.002 38.5013 278.702C37.9013 277.502 37.0013 276.202 36.1013 275.102C35.1013 274.002 34.2014 273.002 33.3014 272.302C32.9014 272.002 32.6014 271.802 32.3014 271.602C32.1014 271.702 31.7014 272.002 31.4014 272.302C30.5014 273.002 29.5013 274.002 28.5013 275.102C27.5013 276.302 26.6014 277.502 25.9014 278.802C25.2014 280.102 24.9014 281.102 24.9014 281.802C24.9014 285.502 28.0013 288.702 32.0013 288.602C36.1013 288.702 39.3014 285.502 39.4014 281.802Z" stroke="#A51D1E" stroke-width="4.4419"/>
<path d="M46.6014 261.102C45.8014 261.102 44.6015 261.402 43.3015 262.002C42.0015 262.602 40.7015 263.502 39.5015 264.402C38.3015 265.302 37.3014 266.302 36.6014 267.102C36.3014 267.402 36.1015 267.702 36.0015 267.902C36.1015 268.102 36.3014 268.402 36.6014 268.702C37.3014 269.502 38.3015 270.502 39.5015 271.402C40.7015 272.302 42.0015 273.202 43.3015 273.802C44.6015 274.402 45.7015 274.702 46.5015 274.702C50.6015 274.702 53.8015 271.502 53.8015 267.802C53.8015 264.202 50.7014 261.102 46.6014 261.102Z" stroke="#A51D1E" stroke-width="4.4419"/>
<path d="M18.0017 275.101C18.8017 275.101 20.0018 274.801 21.3018 274.201C22.6018 273.601 23.9017 272.701 25.1017 271.801C26.3017 270.901 27.3017 269.901 28.0017 269.101C28.3017 268.801 28.5017 268.501 28.6017 268.301C28.5017 268.101 28.3017 267.801 28.0017 267.501C27.3017 266.701 26.3017 265.701 25.1017 264.801C23.9017 263.901 22.6018 263.001 21.3018 262.401C20.0018 261.801 18.9017 261.501 18.1017 261.501C14.0017 261.501 10.8018 264.701 10.8018 268.401C10.8018 272.001 13.9017 275.101 18.0017 275.101Z" stroke="#A51D1E" stroke-width="4.4419"/>
<path d="M29.8018 268.201C29.8018 269.401 30.8018 270.401 32.2018 270.401C33.6018 270.401 34.6017 269.301 34.6017 268.201C34.6017 267.001 33.6018 266.001 32.2018 266.001C30.9018 266.001 29.9018 267.001 29.8018 268.201Z" stroke="#A51D1E" stroke-width="4.4419"/>
<path d="M12.4013 38.4011C19.3013 38.3011 29.6014 28.9012 29.7014 26.2012C29.7014 23.8012 19.6014 14.2012 12.7014 14.2012C5.80139 14.3012 0.101319 19.7011 0.00131877 26.4011C-0.0986812 33.1011 5.50134 38.5011 12.4013 38.4011Z" fill="#F17471"/>
<path d="M41.9014 38.2014C35.0014 38.3014 24.9014 29.0014 24.9014 26.2014C24.9014 23.8014 35.3014 14.0014 42.2014 14.0014C49.1014 13.9014 54.6013 19.3014 54.5013 26.0014C54.5013 32.7014 48.8014 38.1014 41.9014 38.2014Z" fill="#F17471"/>
<path d="M14.9012 12.1014C14.8012 18.8014 24.4012 28.5014 27.2012 28.5014C29.7012 28.5014 39.9011 18.6014 40.0011 11.9014C40.1011 5.20136 34.5011 -0.0986079 27.6011 0.00139209C20.7011 0.00139209 15.0012 5.40137 14.9012 12.1014Z" fill="#F17471"/>
<path d="M14.6014 40.601C14.7014 33.901 24.5015 24.001 27.4015 24.001C29.9015 24.001 39.8015 33.7009 39.7015 40.4009C39.6015 47.1009 33.9015 52.501 27.0015 52.601C20.0015 52.601 14.5014 47.201 14.6014 40.601Z" fill="#F17471"/>
<path d="M20.2012 12.6011C20.2012 13.4011 20.5011 14.4011 21.1011 15.7011C21.7011 16.9011 22.6011 18.2011 23.5011 19.3011C24.5011 20.4011 25.4011 21.4011 26.3011 22.1011C26.7011 22.4011 27.0011 22.6011 27.3011 22.8011C27.5011 22.7011 27.9012 22.4011 28.2012 22.1011C29.1012 21.4011 30.1011 20.4011 31.1011 19.3011C32.1011 18.1011 33.0012 16.9011 33.7012 15.6011C34.4012 14.3011 34.7012 13.3011 34.7012 12.6011C34.7012 8.9011 31.6011 5.70111 27.6011 5.80111C23.4011 5.70111 20.2012 8.9011 20.2012 12.6011Z" stroke="#A51D1E" stroke-width="4.4419"/>
<path d="M34.3013 39.9011C34.3013 39.1011 34.0012 38.1011 33.4012 36.8011C32.8012 35.6011 31.9012 34.3012 31.0012 33.2012C30.0012 32.1012 29.1013 31.1011 28.2013 30.4011C27.8013 30.1011 27.5013 29.9012 27.2013 29.7012C27.0013 29.8012 26.6013 30.1011 26.3013 30.4011C25.4013 31.1011 24.4012 32.1012 23.4012 33.2012C22.4012 34.4012 21.5013 35.6011 20.8013 36.9011C20.1013 38.2011 19.8013 39.2011 19.8013 39.9011C19.8013 43.6011 22.9012 46.8012 26.9012 46.7012C30.9012 46.6012 34.3013 43.6011 34.3013 39.9011Z" stroke="#A51D1E" stroke-width="4.4419"/>
<path d="M41.6011 19.2012C40.8011 19.2012 39.6011 19.5011 38.3011 20.1011C37.0011 20.7011 35.7011 21.6012 34.5011 22.5012C33.3011 23.4012 32.3011 24.4012 31.6011 25.2012C31.3011 25.5012 31.1011 25.8012 31.0011 26.0012C31.1011 26.2012 31.3011 26.5011 31.6011 26.8011C32.3011 27.6011 33.3011 28.6012 34.5011 29.5012C35.7011 30.4012 37.0011 31.3011 38.3011 31.9011C39.6011 32.5011 40.7011 32.8011 41.5011 32.8011C45.6011 32.8011 48.8011 29.6011 48.8011 25.9011C48.8011 22.3011 45.6011 19.2012 41.6011 19.2012Z" stroke="#A51D1E" stroke-width="4.4419"/>
<path d="M12.9011 33.3011C13.7011 33.3011 14.9012 33.0011 16.2012 32.4011C17.5012 31.8011 18.8011 30.9012 20.0011 30.0012C21.2011 29.1012 22.2011 28.1011 22.9011 27.3011C23.2011 27.0011 23.4011 26.7012 23.5011 26.5012C23.4011 26.3012 23.2011 26.0012 22.9011 25.7012C22.2011 24.9012 21.2011 23.9012 20.0011 23.0012C18.8011 22.1012 17.5012 21.2011 16.2012 20.6011C14.9012 20.0011 13.8011 19.7012 13.0011 19.7012C8.9011 19.7012 5.70117 22.9011 5.70117 26.6011C5.70117 30.2011 8.90112 33.3011 12.9011 33.3011Z" stroke="#A51D1E" stroke-width="4.4419"/>
<path d="M24.8013 26.3016C24.8013 27.5016 25.8013 28.5016 27.2013 28.5016C28.6013 28.5016 29.6012 27.4016 29.6012 26.3016C29.6012 25.1016 28.6013 24.1016 27.2013 24.1016C25.8013 24.1016 24.8013 25.2016 24.8013 26.3016Z" stroke="#A51D1E" stroke-width="4.4419"/>
</g>
<defs>
<clipPath id="clip0_610_65">
<rect width="149" height="294" fill="white"/>
</clipPath>
</defs>
</svg>
