<svg width="172" height="294" viewBox="0 0 172 294" fill="none" xmlns="http://www.w3.org/2000/svg">
<g clip-path="url(#clip0_610_65)">
<path d="M111.903 161.301C111.703 147.601 100.103 136.401 86.0029 136.301C71.8029 136.201 51.2031 155.801 51.2031 160.801C51.3031 166.401 72.403 185.801 86.603 185.901C100.703 186.001 112.103 175.001 111.903 161.301Z" fill="#F17471"/>
<path d="M0.00259193 160.301C-0.197408 146.601 11.2026 135.601 25.3026 135.701C39.5026 135.801 60.6028 155.801 60.7028 160.801C60.8028 166.401 40.1027 185.401 25.9027 185.301C11.8027 185.301 0.202592 174.101 0.00259193 160.301Z" fill="#F17471"/>
<path d="M55.3029 106.901C41.1029 106.801 29.703 117.801 29.903 131.401C30.103 145.001 50.9029 165.401 56.1029 165.401C61.9029 165.401 81.603 145.401 81.403 131.801C81.203 118.201 69.5029 107.001 55.3029 106.901Z" fill="#F17471"/>
<path d="M56.6025 214.702C42.4025 214.602 30.7024 203.402 30.5024 189.802C30.3024 176.202 50.6025 156.102 55.8025 156.202C61.6025 156.202 81.8024 176.602 82.0024 190.202C82.3024 203.902 70.9025 214.802 56.6025 214.702Z" fill="#F17471"/>
<path d="M55.5024 118.601C47.2024 118.501 40.8025 125.001 40.9025 132.601C40.9025 134.101 41.6025 136.301 42.9025 138.901C44.2025 141.401 46.1026 144.001 48.2026 146.401C50.2026 148.801 52.4025 150.801 54.1025 152.201C54.9025 152.801 55.5024 153.301 56.0024 153.601C56.5024 153.301 57.2024 152.901 58.0024 152.301C59.7024 150.901 61.8026 149.001 63.7026 146.601C65.7026 144.301 67.4026 141.701 68.7026 139.201C70.0026 136.601 70.6024 134.501 70.5024 132.901C70.4024 125.201 63.9024 118.701 55.5024 118.601Z" stroke="#A51D1E" stroke-width="9.1084"/>
<path d="M56.6025 203.201C64.9025 203.301 71.3026 196.801 71.2026 189.201C71.2026 187.701 70.5026 185.501 69.2026 182.901C67.9026 180.401 66.0026 177.801 63.9026 175.401C61.9026 173.001 59.7024 171.001 58.0024 169.601C57.2024 169.001 56.6025 168.501 56.1025 168.201C55.6025 168.501 54.9025 168.901 54.1025 169.501C52.4025 170.901 50.3026 172.801 48.4026 175.201C46.4026 177.501 44.7026 180.101 43.4026 182.601C42.1026 185.201 41.5025 187.301 41.6025 188.901C41.7025 196.601 48.2025 203.101 56.6025 203.201Z" stroke="#A51D1E" stroke-width="9.1084"/>
<path d="M12.1027 160.501C12.2027 168.101 18.8027 174.701 27.1027 174.701C28.8027 174.701 31.1028 174.101 33.7028 172.801C36.3028 171.501 39.0028 169.801 41.4028 167.901C43.8028 166.001 45.9027 164.001 47.3027 162.301C47.8027 161.701 48.3026 161.101 48.5026 160.701C48.2026 160.301 47.8028 159.701 47.2028 159.001C45.8028 157.301 43.7028 155.301 41.2028 153.401C38.7028 151.501 36.0028 149.701 33.4028 148.401C30.7028 147.101 28.4028 146.501 26.7028 146.501C18.4028 146.501 12.0027 152.901 12.1027 160.501Z" stroke="#A51D1E" stroke-width="9.1084"/>
<path d="M100.103 161.302C100.003 153.702 93.403 147.102 85.103 147.102C83.403 147.102 81.1029 147.702 78.5029 149.002C75.9029 150.302 73.203 152.001 70.803 153.901C68.403 155.801 66.3031 157.802 64.9031 159.502C64.4031 160.102 63.9031 160.702 63.7031 161.102C64.0031 161.502 64.4029 162.102 65.0029 162.802C66.4029 164.502 68.5029 166.501 71.0029 168.401C73.5029 170.301 76.203 172.101 78.803 173.401C81.503 174.701 83.8029 175.302 85.5029 175.302C93.8029 175.302 100.203 168.902 100.103 161.302Z" stroke="#A51D1E" stroke-width="9.1084"/>
<path d="M56.1025 156.401C53.2025 156.401 51.2024 158.601 51.3024 160.901C51.3024 163.301 53.4024 165.501 56.3024 165.501C59.2024 165.501 61.2025 163.301 61.1025 161.001C61.1025 158.701 59.0025 156.501 56.1025 156.401Z" stroke="#A51D1E" stroke-width="9.1084"/>
<path d="M172.203 228.202C172.103 221.702 166.603 216.302 159.803 216.302C153.103 216.202 143.203 225.602 143.203 228.002C143.203 230.702 153.303 239.902 160.103 240.002C166.903 240.002 172.303 234.802 172.203 228.202Z" fill="#F17471"/>
<path d="M118.903 227.801C118.803 221.301 124.203 216.001 131.003 216.101C137.703 216.201 147.803 225.701 147.903 228.101C147.903 230.801 138.103 239.801 131.303 239.801C124.503 239.801 119.003 234.301 118.903 227.801Z" fill="#F17471"/>
<path d="M145.203 202.301C138.403 202.201 133.003 207.501 133.103 214.001C133.203 220.501 143.103 230.201 145.603 230.201C148.403 230.201 157.703 220.701 157.703 214.201C157.603 207.701 152.003 202.401 145.203 202.301Z" fill="#F17471"/>
<path d="M145.903 253.701C139.103 253.601 133.603 248.301 133.503 241.801C133.403 235.301 143.103 225.801 145.603 225.801C148.403 225.801 158.003 235.501 158.103 242.001C158.103 248.501 152.603 253.801 145.903 253.701Z" fill="#F17471"/>
<path d="M145.303 207.901C141.303 207.901 138.303 210.901 138.303 214.601C138.303 215.301 138.603 216.301 139.303 217.601C139.903 218.801 140.803 220.001 141.803 221.201C142.803 222.301 143.803 223.301 144.603 224.001C145.003 224.301 145.303 224.501 145.503 224.601C145.703 224.501 146.103 224.301 146.403 224.001C147.203 223.401 148.203 222.401 149.103 221.301C150.003 220.201 150.903 219.001 151.503 217.801C152.103 216.601 152.403 215.601 152.403 214.801C152.403 211.101 149.303 208.001 145.303 207.901Z" stroke="#A51D1E" stroke-width="4.3374"/>
<path d="M145.803 248.201C149.803 248.201 152.803 245.201 152.803 241.501C152.803 240.801 152.503 239.801 151.803 238.501C151.203 237.301 150.303 236.101 149.303 234.901C148.303 233.801 147.303 232.801 146.503 232.101C146.103 231.801 145.803 231.601 145.603 231.401C145.403 231.501 145.003 231.701 144.703 232.001C143.903 232.601 142.903 233.601 142.003 234.701C141.103 235.801 140.203 237.001 139.603 238.201C139.003 239.401 138.703 240.401 138.703 241.201C138.703 245.001 141.903 248.201 145.803 248.201Z" stroke="#A51D1E" stroke-width="4.3374"/>
<path d="M124.603 227.901C124.603 231.501 127.803 234.702 131.703 234.702C132.503 234.702 133.603 234.402 134.903 233.802C136.103 233.202 137.403 232.401 138.603 231.401C139.803 230.501 140.703 229.502 141.403 228.702C141.703 228.402 141.902 228.101 142.002 227.901C141.902 227.701 141.703 227.402 141.403 227.102C140.703 226.302 139.702 225.301 138.502 224.401C137.302 223.501 136.002 222.602 134.802 222.002C133.502 221.402 132.403 221.102 131.603 221.102C127.603 221.202 124.603 224.301 124.603 227.901Z" stroke="#A51D1E" stroke-width="4.3374"/>
<path d="M166.502 228.201C166.502 224.601 163.303 221.401 159.403 221.401C158.603 221.401 157.503 221.701 156.203 222.301C155.003 222.901 153.702 223.701 152.502 224.701C151.302 225.601 150.403 226.601 149.703 227.401C149.403 227.701 149.203 228.001 149.103 228.201C149.203 228.401 149.403 228.701 149.703 229.001C150.403 229.801 151.403 230.801 152.603 231.701C153.803 232.601 155.102 233.501 156.302 234.101C157.602 234.701 158.702 235.001 159.502 235.001C163.502 234.901 166.602 231.901 166.502 228.201Z" stroke="#A51D1E" stroke-width="4.3374"/>
<path d="M145.603 225.901C144.203 225.901 143.303 226.901 143.303 228.101C143.303 229.201 144.303 230.301 145.703 230.301C147.103 230.301 148.003 229.301 148.003 228.101C148.003 227.001 147.003 226.001 145.603 225.901Z" stroke="#A51D1E" stroke-width="4.3374"/>
<path d="M130.002 25.9017C129.902 19.4017 124.402 14.0018 117.602 14.0018C110.902 13.9018 101.002 23.3017 101.002 25.7017C101.002 28.4017 111.102 37.6017 117.902 37.7017C124.702 37.7017 130.102 32.5017 130.002 25.9017Z" fill="#F17471"/>
<path d="M76.8021 25.5013C76.7021 19.0013 82.1022 13.7012 88.9022 13.8012C95.6022 13.9012 105.702 23.4012 105.802 25.8012C105.802 28.5012 96.0023 37.5013 89.2023 37.5013C82.4023 37.5013 76.9021 32.0013 76.8021 25.5013Z" fill="#F17471"/>
<path d="M103.102 0.00139225C96.3024 -0.0986077 90.9023 5.20134 91.0023 11.7013C91.1023 18.2013 101.002 27.9013 103.502 27.9013C106.302 27.9013 115.602 18.4013 115.602 11.9013C115.402 5.40129 109.902 0.101392 103.102 0.00139225Z" fill="#F17471"/>
<path d="M103.703 51.4009C96.9027 51.3009 91.4025 46.001 91.3025 39.501C91.2025 33.001 100.903 23.501 103.403 23.501C106.203 23.501 115.803 33.2009 115.903 39.7009C115.903 46.2009 110.503 51.4009 103.703 51.4009Z" fill="#F17471"/>
<path d="M103.202 5.60156C99.2021 5.60156 96.2021 8.60151 96.2021 12.3015C96.2021 13.0015 96.5021 14.0015 97.2021 15.3015C97.8021 16.5015 98.7021 17.7015 99.7021 18.9015C100.702 20.0015 101.702 21.0015 102.502 21.7015C102.902 22.0015 103.202 22.2015 103.402 22.3015C103.602 22.2015 104.002 22.0015 104.302 21.7015C105.102 21.1015 106.102 20.1016 107.002 19.0016C107.902 17.9016 108.802 16.7016 109.402 15.5016C110.002 14.3016 110.302 13.3016 110.302 12.5016C110.302 8.80159 107.202 5.70156 103.202 5.60156Z" stroke="#A51D1E" stroke-width="4.3374"/>
<path d="M103.703 45.9015C107.703 45.9015 110.703 42.9015 110.703 39.2015C110.703 38.5015 110.403 37.5015 109.703 36.2015C109.103 35.0015 108.203 33.8016 107.203 32.6016C106.203 31.5016 105.203 30.5015 104.403 29.8015C104.003 29.5015 103.702 29.3016 103.502 29.1016C103.302 29.2016 102.903 29.4015 102.603 29.7015C101.803 30.3015 100.803 31.3015 99.9026 32.4015C99.0026 33.5015 98.1024 34.7015 97.5024 35.9015C96.9024 37.1015 96.6025 38.1015 96.6025 38.9015C96.6025 42.7015 99.7026 45.8015 103.703 45.9015Z" stroke="#A51D1E" stroke-width="4.3374"/>
<path d="M82.502 25.6008C82.502 29.2008 85.7021 32.4008 89.6021 32.4008C90.4021 32.4008 91.502 32.1009 92.802 31.5009C94.002 30.9009 95.302 30.1008 96.502 29.1008C97.702 28.2008 98.602 27.2008 99.302 26.4008C99.602 26.1008 99.8021 25.8008 99.9021 25.6008C99.8021 25.4008 99.602 25.1008 99.302 24.8008C98.602 24.0008 97.6021 23.0008 96.4021 22.1008C95.2021 21.2008 93.9021 20.3008 92.7021 19.7008C91.4021 19.1008 90.302 18.8008 89.502 18.8008C85.502 18.9008 82.502 21.9008 82.502 25.6008Z" stroke="#A51D1E" stroke-width="4.3374"/>
<path d="M124.402 25.9015C124.402 22.3015 121.202 19.1016 117.302 19.1016C116.502 19.1016 115.402 19.4016 114.102 20.0016C112.902 20.6016 111.602 21.4015 110.402 22.4015C109.202 23.3015 108.302 24.3016 107.602 25.1016C107.302 25.4016 107.102 25.7015 107.002 25.9015C107.102 26.1015 107.302 26.4015 107.602 26.7015C108.302 27.5015 109.302 28.5015 110.502 29.4015C111.702 30.3015 113.002 31.2015 114.202 31.8015C115.502 32.4015 116.602 32.7015 117.402 32.7015C121.402 32.6015 124.502 29.6015 124.402 25.9015Z" stroke="#A51D1E" stroke-width="4.3374"/>
<path d="M103.502 23.6016C102.102 23.6016 101.202 24.6015 101.202 25.8015C101.202 26.9015 102.202 28.0016 103.602 28.0016C105.002 28.0016 105.902 27.0015 105.902 25.8015C105.802 24.7015 104.902 23.6016 103.502 23.6016Z" stroke="#A51D1E" stroke-width="4.3374"/>
</g>
<defs>
<clipPath id="clip0_610_65">
<rect width="172" height="294" fill="white"/>
</clipPath>
</defs>
</svg>
