<svg width="435" height="275" viewBox="0 0 435 275" fill="none" xmlns="http://www.w3.org/2000/svg">
<path d="M434.949 111.145C434.821 111.018 434.309 110.762 434.053 110.762C433.541 110.507 433.029 110.251 432.389 109.996C431.62 109.741 430.724 109.613 430.084 109.23C427.267 107.698 425.987 106.293 422.914 105.272C421.377 104.761 419.713 104.506 418.048 104.506C416.384 104.506 414.975 104.889 413.439 105.655C413.055 105.91 412.543 106.038 412.158 106.293L408.574 101.952C408.574 101.824 408.701 101.824 408.701 101.696C409.086 100.93 408.702 100.036 407.933 99.6534C407.165 99.2703 406.269 99.6534 405.885 100.42C405.757 100.675 405.756 100.803 405.756 101.058C405.5 100.803 405.244 100.675 404.86 100.547C404.092 100.419 403.196 100.93 403.068 101.696C402.94 102.207 403.068 102.718 403.452 102.973C403.068 103.229 402.94 103.612 402.812 104.122C402.812 104.633 403.068 105.144 403.452 105.527C402.684 105.655 402.043 106.549 402.299 107.315C402.427 107.825 402.683 108.208 403.196 108.336C402.94 108.719 402.94 109.102 403.068 109.613C403.324 110.379 404.22 110.762 404.988 110.507C405.629 110.251 406.013 109.741 406.013 109.102C406.525 109.102 407.421 109.23 408.445 109.358C408.061 109.741 407.677 110.124 407.293 110.379C405.373 112.167 403.324 113.827 400.763 114.721C398.714 115.359 396.538 115.359 394.361 115.359C390.008 115.359 385.398 115.104 381.429 112.933C379.764 112.039 366.192 105.782 366.064 103.867C365.552 96.2058 367.345 88.4168 369.393 81.0109C369.906 79.351 370.418 77.5634 371.314 76.0311C372.466 74.1158 374.259 72.7112 375.795 71.0513C376.82 70.0298 377.844 68.8806 378.74 67.7314C380.533 65.5607 379.38 63.1346 380.149 60.7085C380.405 60.0701 380.661 59.5593 381.045 58.9209C382.325 56.8779 383.606 54.7072 384.63 52.5365C385.398 51.0042 386.295 49.3443 386.807 47.6844C387.447 45.5137 387.703 43.343 387.959 41.0446C388.471 36.4478 389.368 31.851 388.343 27.2543C388.087 25.8497 387.447 24.5728 386.807 23.4236C386.551 23.0406 384.886 20.4868 384.374 21.5083C384.118 21.8914 384.374 22.4021 384.374 22.7852C384.502 23.2959 384.502 23.9344 384.502 24.4451C384.502 26.4882 383.99 28.4035 383.606 30.3188C382.582 35.2986 381.045 40.2785 379.637 45.1306C379.893 44.2368 379.637 43.343 379.637 42.4492C379.637 41.3 379.637 40.1508 379.637 39.0016C379.637 36.3201 379.636 33.6387 379.508 30.8295C379.38 28.0204 379.381 25.2113 378.74 22.5298C378.1 19.7207 376.82 17.0392 375.411 14.6132C374.643 13.3363 373.875 12.1871 372.979 11.0379C372.594 10.5272 370.93 7.97339 370.29 8.73951C370.034 9.12258 370.034 9.88872 370.034 10.2718C369.906 11.421 370.034 12.5702 370.034 13.5917C370.034 16.0177 370.034 18.4438 370.162 20.8699C370.29 23.5513 370.29 26.1051 370.418 28.7865C370.29 26.9989 369.649 25.0836 369.265 23.296C368.753 20.8699 368.369 18.4438 367.473 16.1454C366.577 13.9747 365.296 11.9317 363.888 10.1441C362.479 8.35646 360.815 6.69652 359.15 5.16427C358.766 4.7812 356.333 1.84437 356.077 3.50432C356.077 3.63201 356.077 3.632 356.077 3.75969C356.077 4.90888 356.333 6.18577 356.589 7.33496C357.358 10.7825 358.254 14.2301 359.15 17.6777C359.918 20.9976 360.687 24.1898 361.327 27.5097C360.687 25.722 360.046 23.9344 359.406 22.1468C358.51 19.593 357.87 16.6562 356.333 14.4855C354.285 11.5487 351.852 8.8672 349.419 6.18575C348.907 5.54731 347.115 2.86587 346.09 3.37662C345.066 3.88737 345.322 5.67501 345.45 6.56882C345.578 8.35645 346.346 10.1441 346.987 11.9317C349.035 18.4438 351.34 24.9559 353.517 31.468C353.261 30.5742 352.62 29.808 352.236 29.0419C351.852 28.1481 351.34 27.382 350.956 26.4882C350.06 24.7005 349.163 23.0406 348.267 21.2529C347.499 19.593 346.602 18.1884 345.45 16.7839C344.298 15.2516 343.145 13.847 341.993 12.3148C340.073 9.88871 338.024 7.46264 336.103 5.03657C335.975 4.90888 335.335 4.14276 335.335 4.7812C335.207 7.84571 335.207 10.6549 336.103 13.464C337.127 17.0393 339.048 20.3591 340.585 23.679C342.249 27.2543 343.914 30.8295 345.45 34.4048C344.81 32.8726 343.401 31.5957 342.505 30.3188C341.481 28.9142 340.584 27.5097 339.56 25.9774C338.152 23.9344 336.743 21.8914 335.207 19.9761C334.439 19.0822 333.67 18.1884 332.646 17.2946C331.75 16.5285 330.726 15.7624 329.829 14.8685C328.805 13.9747 327.909 13.2086 327.012 12.1871C326.628 11.804 326.244 11.421 325.86 11.0379C325.476 10.6548 324.964 10.2718 324.451 10.1441C323.683 10.0164 323.94 11.0379 324.068 11.421C324.196 12.1871 324.324 13.0809 324.324 13.9747C324.324 14.8685 324.452 15.507 324.836 16.2731C325.86 18.5715 327.269 20.6145 328.549 22.7852C329.445 24.3175 330.341 25.722 331.238 27.2543C331.622 28.0204 332.006 28.6589 332.518 29.425C332.774 29.9357 333.671 30.8296 333.671 31.3403C333.927 31.8511 334.31 32.6172 334.695 33.1279C332.902 31.468 331.494 29.6803 329.829 27.8927C327.269 24.9559 324.58 22.1468 321.891 19.3376C320.866 18.3161 319.714 17.2946 318.818 16.2731C317.794 15.1239 316.769 14.1024 315.745 13.0809C315.617 12.9532 315.361 12.6978 315.233 12.5702C315.105 12.4425 314.977 12.3148 314.721 12.1871C314.209 12.0594 313.952 12.6978 314.08 13.2086C314.08 13.847 314.336 14.3578 314.592 14.9962C314.849 15.6347 314.977 16.2731 315.233 16.9116C315.617 18.1884 316.129 19.3376 316.641 20.6145C317.153 21.8914 317.793 23.296 318.434 24.4451C319.458 26.1051 320.61 27.5097 321.635 29.1696C321.379 28.9142 320.995 28.6589 320.738 28.4035C320.354 28.1481 319.97 27.765 319.714 27.5097C317.665 25.5943 315.617 23.679 313.44 21.8914C312.8 21.2529 312.032 20.7422 311.264 20.3591C310.623 19.9761 309.855 19.593 309.087 19.8484C308.319 20.1038 308.959 21.5083 309.215 22.0191C310.367 25.0836 311.776 27.8927 313.696 30.4465C314.465 31.5957 315.361 32.6172 315.873 34.0217C316.001 34.2771 316.001 34.6602 316.129 35.0433C316.257 35.2986 314.209 35.1709 313.824 34.7879C312.928 33.8941 311.904 32.8726 311.136 31.8511C310.367 30.7019 309.727 29.2973 309.215 27.8927C308.447 26.2328 307.678 24.4451 306.91 22.7852C305.63 19.8484 304.349 16.9115 303.197 13.847C302.429 12.1871 301.789 10.3995 300.892 8.73951C300.892 8.61183 300.636 8.35647 300.508 8.35647C299.484 8.35647 299.612 12.8255 299.612 16.0177C299.612 16.7839 300.252 18.5715 301.404 20.8699C301.789 22.0191 302.301 23.0406 302.685 24.1898C303.197 25.339 303.453 26.6158 303.069 27.8927C302.941 28.4035 302.557 29.0419 302.557 29.5527C302.557 29.9357 302.813 30.1911 303.069 30.5742C304.477 32.7449 306.526 35.554 306.526 35.554C306.526 35.554 303.069 35.554 302.429 35.554C300.38 35.4263 289.625 10.7825 289.369 10.3995C288.601 9.63333 288.345 16.4008 289.369 19.4653C290.393 22.5298 299.484 35.554 299.484 35.554L296.411 36.5755C287.32 27.382 280.662 11.5487 280.278 11.421C279.254 11.1656 280.278 17.4223 281.302 21.5083C282.327 25.5943 293.466 37.597 293.466 37.597H292.442C279.51 27.765 272.596 13.7194 272.212 13.464C271.315 12.9532 273.236 21.5083 274.26 23.5513C275.284 25.5943 287.32 39.64 287.32 39.64H286.296C285.528 41.5553 266.706 16.9116 266.066 16.5285C265.297 15.8901 267.09 24.5728 268.114 26.6158C269.138 28.6588 281.302 39.64 281.686 40.1508C282.199 40.6615 282.199 40.9169 281.686 41.3C271.699 32.6172 261.456 20.9976 261.072 20.6145C260.304 19.9761 262.096 24.7005 263.633 27.765C264.145 29.0419 267.218 32.1064 271.059 35.6817C272.468 37.3416 274.388 39.257 276.309 41.0446C276.565 41.3 276.949 41.683 276.821 42.0661C276.693 42.4492 276.309 42.7045 275.925 42.5768C275.541 42.4491 275.156 42.1938 274.9 41.9384C273.748 40.9169 272.596 39.8954 271.443 38.8739C264.913 32.3618 259.664 26.6158 259.28 26.6158C258.895 26.6158 261.968 32.1064 262.993 35.1709C263.505 36.5755 267.346 40.4062 271.955 44.3645C271.571 44.4922 271.315 44.4922 270.931 44.3645C263.121 38.2355 257.231 32.7449 256.847 32.6172C255.951 32.2341 259.024 38.4908 260.944 41.683C261.328 42.4492 262.865 43.726 264.913 45.2583C264.913 45.2583 264.913 45.386 265.041 45.386C258.255 43.5984 253.134 42.0661 252.493 41.9384C250.957 41.683 256.975 46.2798 259.92 48.4505C260.56 48.9612 262.096 49.3443 264.017 49.8551C263.249 49.9828 262.353 50.1104 261.584 50.3658C260.816 50.6212 260.048 50.4935 259.408 50.8766C258.768 51.2596 258.255 52.0258 258.383 52.6642C258.511 53.3026 259.023 53.6857 259.536 54.0688C261.2 55.3456 263.121 56.3672 264.273 58.1548C264.401 58.2825 264.401 58.5378 264.401 58.6655V58.7932C264.401 58.9209 264.273 58.9209 264.145 59.0486C263.249 59.5594 262.224 59.5593 261.2 59.5593C260.176 59.5593 259.024 59.687 258.383 60.5809C258.127 60.8362 257.999 61.2193 258.127 61.6024C258.255 62.2408 259.023 62.3685 259.536 62.6239C260.176 62.8792 260.688 63.39 261.072 64.0284C261.456 64.5392 261.969 65.0499 261.969 65.6884C261.969 65.9437 261.968 66.3268 261.712 66.5822C261.328 67.0929 260.432 66.9653 259.792 66.9653C258.895 66.9653 257.359 67.2206 256.975 68.1144C255.95 70.1574 261.072 72.2004 260.048 73.0943C259.024 74.1158 256.975 74.1158 255.95 76.1588C254.926 78.2018 260.944 78.2018 260.944 79.2233C260.944 80.2448 256.847 81.2663 256.847 84.2031C256.847 87.2676 263.889 86.2461 263.889 87.2676C263.889 88.2891 258.895 89.3106 258.895 92.2475C258.895 95.312 264.913 92.2475 264.913 94.2905C264.913 96.3335 260.816 97.355 260.816 100.292C260.816 103.229 268.883 103.356 268.883 104.378C268.883 105.399 263.889 109.358 263.889 112.422C263.889 113.954 265.426 114.593 266.706 115.104C267.474 115.359 270.675 115.614 270.803 116.508C270.803 116.764 270.675 117.019 270.675 117.274C270.291 118.296 269.651 120.977 268.627 121.36C268.498 121.488 268.242 121.488 268.114 121.488C264.401 120.211 260.56 119.062 256.719 118.296C252.365 117.53 247.884 117.274 243.531 118.423C248.652 119.19 253.774 119.956 258.639 121.233C258.383 121.233 258.255 121.36 257.999 121.36C256.975 121.105 255.951 120.85 254.926 120.722C252.75 120.339 250.573 119.956 248.268 119.828C244.811 119.573 241.354 119.956 238.025 119.19C242.378 121.616 247.372 122.893 252.366 123.914C252.75 124.042 253.262 124.042 253.646 124.169C253.518 124.297 253.518 124.297 253.39 124.425C253.006 124.297 252.622 124.297 252.237 124.169C247.244 123.02 242.122 121.999 237.129 123.02C238.153 123.148 239.305 123.403 240.33 123.531C233.8 123.276 227.142 123.659 220.612 124.425C228.166 125.319 235.72 126.723 243.147 128.511C237.897 128.128 232.648 127.872 227.398 128C229.831 128.255 232.263 128.639 234.696 129.022C229.062 129.022 223.301 129.915 217.667 129.532C223.173 130.937 228.678 131.831 234.312 132.342C221.124 134.64 207.68 133.363 194.364 134.001C198.717 135.278 203.07 136.3 207.424 137.066C203.07 137.704 198.717 136.811 194.492 135.917C196.796 137.449 199.357 138.726 202.046 139.62C199.997 139.62 196.925 139.747 196.284 139.747C196.156 139.747 196.028 139.747 195.9 139.747C194.748 139.492 193.595 139.364 192.315 139.237C187.321 138.726 182.2 138.981 177.206 139.492C180.535 139.875 183.865 140.514 187.066 141.152L186.297 141.663C184.505 141.535 182.84 141.535 181.047 141.535C182.584 141.663 183.993 141.918 185.401 142.173L183.736 143.323C183.096 143.45 182.456 143.578 181.816 143.706C177.462 144.6 173.237 146.26 169.652 148.813C174.902 147.536 180.279 146.132 185.785 145.493L186.041 145.749C184.377 146.004 182.712 146.259 181.047 146.643C178.871 147.153 176.694 147.664 174.645 148.303C171.444 149.452 168.372 150.984 165.043 151.75C170.036 152.389 175.158 151.622 180.023 150.601C180.92 150.346 181.944 150.218 182.84 149.962C182.584 150.09 182.328 150.346 182.2 150.473C181.432 150.601 180.792 150.729 180.023 150.856C175.03 151.75 169.908 152.772 165.683 155.581C169.908 154.432 174.133 153.665 178.487 153.027C176.694 154.176 174.902 155.07 173.493 155.581C162.738 159.284 151.854 161.071 140.715 162.731C130.984 164.264 121.125 165.413 111.266 165.668C91.548 166.434 71.7019 164.391 53.0081 158.134C50.3193 157.241 47.7587 156.347 45.1979 155.325C51.5999 159.922 59.1543 162.22 66.7086 163.88C56.0813 162.093 45.1978 160.177 36.107 153.921C46.9904 161.454 59.026 166.817 71.5738 170.393C69.5252 170.52 67.3487 170.648 65.3 170.903C54.2887 168.733 43.2773 166.051 32.394 163.497C38.924 167.456 45.7102 170.393 52.6243 172.691C37.1315 175.372 21.8948 179.714 6.78615 184.183C25.0958 180.608 43.4052 177.032 61.9709 175.5C66.1962 176.649 70.5497 177.543 74.903 178.309C49.8073 181.629 25.2237 192.483 0 189.29C9.09079 193.376 19.206 194.142 29.193 193.249C31.3697 193.504 33.6743 194.143 35.851 194.27C38.9239 194.526 42.125 194.653 45.1979 194.653C46.6064 194.653 47.8867 194.653 49.2951 194.526C47.1185 195.164 44.9417 195.802 42.765 196.441C41.7407 196.185 40.7166 195.93 39.8203 195.419C40.5886 195.802 41.4849 196.186 42.3811 196.569C32.9062 199.378 23.3031 202.059 13.7001 204.485C25.6078 203.208 37.3875 201.038 49.0391 198.228C53.0083 198.867 57.1056 198.867 61.2028 198.612C61.4589 198.612 61.7148 198.612 61.9709 198.612C51.9838 201.038 41.8687 202.698 31.8817 203.591C46.9903 202.315 62.0989 200.527 76.6954 196.952C79.1282 196.313 81.5612 195.802 83.9939 195.164C87.707 194.398 91.2921 193.504 94.8772 192.61C93.7249 193.504 92.4444 194.526 91.2921 195.547C88.3472 196.441 85.4021 197.207 82.4572 198.101C76.6954 199.761 71.0619 201.421 65.4282 203.336C63.2515 204.102 60.9466 204.868 58.7699 205.634C51.0876 206.273 43.2772 206.528 35.4668 206.528C38.2837 206.528 41.3568 207.55 44.3017 207.805C46.8625 208.06 49.2951 208.188 51.8559 208.188C45.582 210.487 39.3082 212.785 32.7782 214.317C27.7847 215.594 22.6629 216.36 17.5413 216.871C23.5592 218.403 29.8332 217.254 35.851 216.105C45.8381 214.189 55.9531 212.147 65.5561 208.827C67.0925 208.316 68.6289 207.677 70.2935 207.167C73.1103 206.784 76.0555 206.401 78.8723 206.017C77.2078 207.677 75.5432 209.465 74.0068 211.253C62.8674 214.19 51.5998 216.105 40.3324 217.126C51.2157 216.233 61.971 215.083 72.5982 213.168C70.4216 216.233 68.6292 219.425 67.3488 223C70.2937 219.297 73.3664 215.722 76.6954 212.402C79.5123 211.891 82.3293 211.253 85.1461 210.614C92.7005 208.827 100.255 206.656 107.553 203.847C108.065 203.847 108.705 203.719 109.218 203.591L108.065 203.719C108.833 203.464 109.474 203.208 110.242 202.825C110.626 202.825 110.882 202.953 111.266 202.953C112.162 202.57 113.059 202.187 113.955 201.931C120.101 199.633 126.759 198.867 133.289 197.973C133.929 197.845 134.569 197.718 135.21 197.718C122.022 205.251 108.833 212.53 94.1089 215.594C102.303 215.722 110.242 212.53 117.924 209.465C128.808 204.996 139.691 200.655 150.062 195.292C150.83 194.909 151.599 194.526 152.367 194.143C155.184 193.376 157.872 192.61 160.689 191.716C153.647 196.441 146.349 200.527 138.282 203.336C146.477 202.315 153.903 198.229 160.945 194.015C164.658 191.972 168.244 189.801 171.957 187.63C193.467 179.458 213.698 168.222 234.952 159.411C241.226 156.858 247.628 154.432 254.03 152.133C257.231 150.984 260.304 149.835 263.505 148.686C263.761 148.558 264.913 148.175 266.322 147.664C266.322 147.664 266.322 147.664 266.194 147.664C264.529 148.686 262.865 149.962 261.072 150.601C263.121 151.112 265.169 151.112 267.218 150.729C268.498 150.473 269.779 150.218 271.059 149.835C271.187 149.835 271.187 149.962 271.315 149.962C268.37 151.112 265.17 151.878 261.969 152.133C261.584 152.133 261.2 152.261 260.944 152.516C263.377 153.282 265.938 153.538 268.498 153.41C267.602 153.793 266.706 154.176 265.81 154.559C265.426 154.815 265.041 154.942 264.657 155.198C264.273 155.453 263.889 155.836 263.377 155.964C266.066 155.836 268.754 155.581 271.315 155.325C273.236 155.07 275.156 154.815 277.077 154.304C279.51 153.665 281.686 152.516 283.863 151.112C284.759 150.601 285.528 149.835 286.04 149.069C288.088 148.302 290.265 148.175 292.186 149.069C295.643 150.856 291.418 155.836 294.875 157.241C295.643 157.496 296.411 157.624 297.179 157.624C304.862 157.624 312.416 156.985 320.098 156.73C320.61 156.73 321.251 156.73 321.635 157.113C321.891 157.496 321.891 158.007 322.019 158.39C322.275 159.156 323.043 159.794 323.811 160.05C324.58 160.433 325.476 160.561 326.244 160.688C327.012 160.944 326.5 161.582 326.116 161.71C325.732 161.837 325.22 161.837 324.836 161.837C323.811 161.837 327.781 165.03 330.085 164.391C332.39 163.753 334.567 161.965 334.951 159.539C335.207 157.879 334.567 156.347 334.054 154.815C333.67 153.665 332.774 151.622 333.286 150.345C333.414 150.09 333.67 149.962 333.927 149.962C336.871 149.069 339.816 148.303 342.761 147.536C345.066 146.898 347.242 146.387 349.419 145.621C352.108 144.727 368.113 138.087 370.034 137.066C373.491 135.278 376.692 132.852 379.765 130.554C380.533 130.043 381.429 130.171 382.325 130.171C383.35 130.298 384.502 130.299 385.526 130.299C387.447 130.299 389.495 130.299 391.416 130.299C392.184 130.299 392.953 130.298 393.721 130.171C394.489 129.915 395.385 129.788 396.153 129.532C399.354 128.511 402.427 126.851 405.116 124.808C406.525 123.786 407.933 122.637 409.214 121.488C411.39 119.7 413.951 118.551 416.512 117.402C418.561 116.508 420.737 115.997 422.786 115.231C424.578 114.593 425.859 113.316 427.779 113.061C429.316 113.061 431.108 112.55 432.645 112.422C433.029 112.422 433.413 112.294 433.797 112.167C434.437 112.039 435.206 111.401 434.949 111.145ZM95.1333 184.821C95.2613 184.821 95.2612 184.949 95.3893 184.949C94.7491 185.077 94.2371 185.204 93.5969 185.332C94.109 185.077 94.6211 184.949 95.1333 184.821ZM31.2415 192.738C32.3938 192.61 33.5463 192.483 34.5706 192.355C46.2222 190.695 57.4895 187.375 69.0131 185.204C73.3664 184.438 77.8478 183.8 82.2012 183.417C74.9029 185.97 67.6049 188.524 60.3066 190.823C50.7037 191.972 40.9725 192.61 31.2415 192.738ZM89.1155 190.056C78.4882 192.738 67.8608 195.164 56.9775 196.313C61.971 195.036 67.0927 193.632 72.0862 192.099C76.6956 191.333 81.3051 190.44 85.9145 189.418C89.8837 188.524 94.3649 187.758 98.2061 186.226C95.2612 187.63 92.1884 188.907 89.1155 190.056ZM89.8835 200.144C90.1396 200.782 90.9079 200.91 91.5481 200.91C91.6761 200.91 91.9321 200.91 92.0601 200.91C90.6517 201.165 89.3714 201.421 87.9629 201.676C88.6031 201.165 89.2433 200.655 89.8835 200.144ZM83.4816 201.804C83.2255 202.059 82.8414 202.315 82.5853 202.57C82.3293 202.57 82.0733 202.698 81.6891 202.698C81.4331 202.698 81.1769 202.825 80.9208 202.825C81.689 202.57 82.5853 202.187 83.4816 201.804ZM79.2562 209.848C80.9207 208.188 82.5854 206.656 84.2499 205.124C87.707 204.485 91.036 203.847 94.4931 203.081C96.4137 202.698 98.4621 202.315 100.383 201.804C100.895 201.804 101.535 201.931 102.047 201.931C94.621 204.868 86.9386 207.55 79.2562 209.848ZM103.584 191.972C102.175 192.355 100.895 192.738 99.4865 192.993C100.895 192.1 102.303 191.206 103.712 190.312C104.224 190.184 104.736 190.056 105.248 189.929C104.864 190.95 104.352 191.461 103.584 191.972ZM408.701 108.975L405.885 108.719C405.885 108.592 405.884 108.464 405.756 108.464C405.628 108.081 405.372 107.825 404.988 107.57C405.116 107.442 405.116 107.315 405.116 107.187C406.012 107.442 407.549 107.825 409.47 108.336C409.342 108.592 409.086 108.719 408.701 108.975ZM409.854 108.081L405.373 106.932C405.373 106.804 405.373 106.676 405.373 106.676C405.373 106.549 405.372 106.421 405.244 106.421C405.5 106.549 405.629 106.549 405.885 106.549C406.525 106.549 407.037 106.165 407.293 105.655C408.189 106.165 409.342 106.804 410.494 107.442C410.238 107.57 409.982 107.825 409.854 108.081ZM410.75 107.059L407.293 105.272C407.293 105.144 407.293 105.016 407.293 105.016C407.293 104.122 406.653 103.484 405.756 103.484C405.628 103.484 405.628 103.484 405.5 103.484C405.5 103.356 405.372 103.229 405.244 103.229C405.372 103.101 405.5 102.973 405.5 102.846C406.397 103.612 408.573 105.272 410.75 106.932C411.006 106.932 410.878 107.059 410.75 107.059ZM411.39 106.676C411.262 106.676 411.262 106.676 411.39 106.676L406.013 102.59C406.013 102.463 406.141 102.463 406.141 102.335C406.141 102.207 406.141 102.079 406.141 101.952C406.269 102.079 406.397 102.207 406.653 102.335C407.165 102.59 407.933 102.463 408.317 102.079C408.957 102.846 410.366 104.633 411.902 106.421C411.646 106.549 411.518 106.549 411.39 106.676Z" fill="#F17471"/>
</svg>
