<svg width="164" height="230" viewBox="0 0 164 230" fill="none" xmlns="http://www.w3.org/2000/svg">
<path d="M76.4999 153.3C90.6999 153.2 111.8 133.8 111.9 128.2C112 123.2 91.2999 103.5 77.0999 103.7C62.8999 103.9 51.2999 115 51.1999 128.7C50.9999 142.4 62.2999 153.4 76.4999 153.3Z" fill="#54BB9C"/>
<path d="M137.1 152.8C122.9 152.9 102.2 133.9 102.3 128.3C102.4 123.3 123.5 103.3 137.7 103.2C151.9 103.1 163.2 114.1 163 127.8C162.8 141.5 151.2 152.7 137.1 152.8Z" fill="#54BB9C"/>
<path d="M81.6998 99.2C81.4998 112.9 101.2 132.9 107 132.8C112.2 132.8 133 112.4 133.2 98.8C133.4 85.2 122 74.2 107.8 74.3C93.5999 74.4 81.8998 85.6 81.6998 99.2Z" fill="#54BB9C"/>
<path d="M80.9997 157.6C81.1997 143.9 101.3 123.6 107.2 123.6C112.4 123.6 132.7 143.6 132.5 157.2C132.3 170.8 120.7 182 106.4 182.1C92.1997 182.2 80.7997 171.3 80.9997 157.6Z" fill="#54BB9C"/>
<path d="M92.5 100.3C92.5 101.9 93 104 94.3 106.6C95.5 109.1 97.3 111.7 99.3 114C101.2 116.3 103.3 118.3 105 119.7C105.8 120.3 106.5 120.8 107 121C107.5 120.7 108.1 120.3 108.9 119.6C110.7 118.2 112.8 116.2 114.8 113.8C116.8 111.4 118.7 108.8 120.1 106.3C121.5 103.7 122.1 101.6 122.1 100.1C122.2 92.4002 115.8 86.0002 107.5 86.1002C99.2 86.2002 92.6 92.6001 92.5 100.3Z" stroke="#004B47" stroke-width="9.1084"/>
<path d="M121.5 156.3C121.5 154.7 120.9 152.6 119.7 150C118.5 147.5 116.7 144.9 114.7 142.6C112.7 140.3 110.7 138.3 109 136.9C108.2 136.3 107.5 135.8 107 135.6C106.5 135.9 105.9 136.3 105.1 137C103.3 138.4 101.2 140.4 99.2 142.8C97.1 145.2 95.3001 147.8 93.9001 150.3C92.5001 152.9 91.9001 155 91.9001 156.5C91.8001 164.2 98.2001 170.6 106.5 170.5C114.8 170.5 121.4 163.9 121.5 156.3Z" stroke="#004B47" stroke-width="9.1084"/>
<path d="M136.4 113.9C134.7 113.9 132.4 114.5 129.7 115.8C127.1 117.1 124.3 118.8 121.9 120.8C119.4 122.7 117.3 124.7 115.9 126.4C115.3 127.1 114.9 127.6 114.6 128.1C114.9 128.5 115.3 129.1 115.8 129.7C117.2 131.4 119.3 133.4 121.7 135.3C124.1 137.2 126.8 139 129.4 140.2C132.1 141.5 134.3 142.1 136 142.1C144.4 142 150.9 135.5 151 127.9C151.1 120.3 144.7 113.9 136.4 113.9ZM114.1 127.5C114.1 127.4 114.1 127.4 114.1 127.5Z" stroke="#004B47" stroke-width="9.1084"/>
<path d="M77.6998 142.7C79.3998 142.7 81.6998 142.1 84.3998 140.8C86.9998 139.5 89.7998 137.8 92.1998 135.8C94.6998 133.9 96.7998 131.9 98.1998 130.2C98.7998 129.5 99.1998 129 99.4998 128.5C99.1998 128.1 98.7999 127.5 98.2999 126.9C96.8999 125.2 94.7998 123.2 92.3998 121.3C89.9998 119.4 87.2998 117.6 84.6998 116.4C81.9998 115.1 79.7998 114.5 78.0998 114.5C69.7998 114.6 63.1998 121.1 63.0998 128.7C62.8998 136.3 69.2998 142.7 77.6998 142.7Z" stroke="#004B47" stroke-width="9.1084"/>
<path d="M102 128.4C102 130.8 104 133 106.9 132.9C109.8 132.9 111.8 130.7 111.9 128.3C111.9 125.9 109.9 123.7 107 123.8C104.1 123.9 102 126.1 102 128.4Z" stroke="#004B47" stroke-width="9.1084"/>
<path d="M22.3999 34.1C28.4999 34 37.5999 25.6999 37.5999 23.2999C37.5999 21.0999 28.6999 12.7 22.5999 12.7C16.4999 12.7 11.4999 17.6 11.3999 23.5C11.3999 29.4 16.2999 34.1 22.3999 34.1Z" fill="#54BB9C"/>
<path d="M48.5 33.9C42.4 34 33.5 25.6999 33.5 23.2999C33.5 21.0999 42.7 12.4999 48.7 12.4999C54.8 12.3999 59.7 17.1999 59.6 23.0999C59.5 28.9999 54.6 33.8 48.5 33.9Z" fill="#54BB9C"/>
<path d="M24.7001 10.7999C24.6001 16.6999 33.1001 25.2999 35.6001 25.2999C37.8001 25.2999 46.8002 16.5 46.9002 10.6C47.0002 4.69998 42.1002 0 35.9002 0C29.8002 0.1 24.7001 4.89993 24.7001 10.7999Z" fill="#54BB9C"/>
<path d="M24.3999 35.9C24.4999 30 33.1999 21.2 35.6999 21.2C37.8999 21.2 46.6999 29.8 46.5999 35.7C46.4999 41.6 41.4999 46.4 35.3999 46.4C29.1999 46.6 24.2999 41.8 24.3999 35.9Z" fill="#54BB9C"/>
<path d="M29.2998 11.2C29.2998 11.9 29.4997 12.8001 30.0997 13.9001C30.5997 15.0001 31.3997 16.1 32.1997 17.1C32.9997 18.1 33.8997 19 34.6997 19.5C35.0997 19.8 35.2997 20 35.5997 20.1C35.7997 20 36.0998 19.8 36.3998 19.5C37.1998 18.9 38.0998 18 38.9998 17C39.8998 16 40.6998 14.8 41.2998 13.8C41.8998 12.7 42.1997 11.8 42.1997 11.1C42.1997 7.80001 39.4998 5.00001 35.8998 5.10001C32.1998 5.10001 29.3998 7.89999 29.2998 11.2Z" stroke="#004B47" stroke-width="3.9249"/>
<path d="M41.8 35.4C41.8 34.7 41.6 33.8 41 32.7C40.5 31.6 39.7 30.5 38.9 29.5C38.1 28.5 37.2 27.6 36.4 27.1C36.1 26.8 35.8 26.6 35.6 26.5C35.4 26.6 35.1 26.8 34.8 27.1C34 27.7 33.1 28.6 32.2 29.6C31.3 30.6 30.5 31.7999 29.9 32.7999C29.3 33.8999 29 34.8 29 35.5C29 38.8 31.7 41.6 35.3 41.5C38.9 41.5 41.8 38.7 41.8 35.4Z" stroke="#004B47" stroke-width="3.9249"/>
<path d="M48.1996 17.1C47.3996 17.1 46.4997 17.4 45.2997 17.9C44.1997 18.5 42.9997 19.2 41.8997 20C40.7997 20.8 39.8997 21.7 39.2997 22.4C39.0997 22.7 38.8996 22.9 38.6996 23.1C38.7996 23.3 38.9996 23.4999 39.1996 23.7999C39.7996 24.4999 40.6997 25.4 41.7997 26.2C42.7997 27 43.9996 27.7999 45.0996 28.2999C46.2996 28.8999 47.1996 29.1 47.9996 29.1C51.5996 29.1 54.3996 26.3 54.4996 23C54.5996 19.9 51.7996 17.1 48.1996 17.1Z" stroke="#004B47" stroke-width="3.9249"/>
<path d="M22.9 29.5C23.7 29.5 24.6001 29.2 25.8001 28.7C26.9001 28.1 28.1 27.4 29.2 26.6C30.3 25.8 31.2001 24.9 31.8001 24.2C32.0001 23.9 32.2 23.7 32.4 23.5C32.3 23.3 32.1 23.0999 31.9 22.7999C31.3 22.0999 30.4 21.2 29.4 20.4C28.3 19.6 27.2 18.7999 26.1 18.2999C25 17.6999 24 17.5 23.2 17.5C19.6 17.5 16.8 20.3 16.7 23.6C16.6 26.8 19.3 29.5 22.9 29.5Z" stroke="#004B47" stroke-width="3.9249"/>
<path d="M33.3999 23.4C33.3999 24.4 34.2999 25.3999 35.4999 25.2999C36.6999 25.2999 37.5999 24.2999 37.5999 23.2999C37.5999 22.2999 36.6999 21.3 35.4999 21.4C34.2999 21.4 33.3999 22.4 33.3999 23.4Z" stroke="#004B47" stroke-width="3.9249"/>
<path d="M11 217.5C17.1 217.4 26.2 209.1 26.2 206.7C26.2 204.5 17.3 196.1 11.2 196.1C5.09995 196.1 0.1 201 0 206.9C0 212.8 4.9 217.6 11 217.5Z" fill="#54BB9C"/>
<path d="M37.1001 217.3C31.0001 217.4 22.1001 209.1 22.1001 206.7C22.1001 204.5 31.2002 195.9 37.3002 195.9C43.4002 195.8 48.3001 200.6 48.2001 206.5C48.2001 212.4 43.2001 217.3 37.1001 217.3Z" fill="#54BB9C"/>
<path d="M13.2001 194.2C13.1001 200.1 21.6001 208.7 24.1001 208.7C26.3001 208.7 35.3002 199.9 35.4002 194C35.5002 188.1 30.6002 183.4 24.4002 183.4C18.3002 183.5 13.3001 188.3 13.2001 194.2Z" fill="#54BB9C"/>
<path d="M12.8999 219.4C12.9999 213.5 21.6999 204.7 24.1999 204.7C26.3999 204.7 35.1999 213.3 35.0999 219.2C34.9999 225.1 29.9999 229.9 23.8999 229.9C17.6999 230 12.7999 225.3 12.8999 219.4Z" fill="#54BB9C"/>
<path d="M17.8999 194.7C17.8999 195.4 18.0998 196.3 18.6998 197.4C19.1998 198.5 19.9999 199.6 20.7999 200.6C21.5999 201.6 22.4999 202.5 23.2999 203C23.6999 203.3 23.8998 203.5 24.1998 203.6C24.3998 203.5 24.6999 203.3 24.9999 203C25.7999 202.4 26.6999 201.5 27.5999 200.5C28.4999 199.5 29.2999 198.3 29.8999 197.3C30.4999 196.2 30.7999 195.3 30.7999 194.6C30.7999 191.3 28.0999 188.5 24.4999 188.6C20.6999 188.6 17.8999 191.4 17.8999 194.7Z" stroke="#004B47" stroke-width="3.9249"/>
<path d="M30.3 218.8C30.3 218.1 30.1 217.2 29.5 216.1C29 215 28.2 213.9 27.4 212.9C26.6 211.9 25.7 211 24.9 210.5C24.5 210.2 24.3 210 24 209.9C23.8 210 23.5 210.2 23.2 210.5C22.4 211.1 21.5 212 20.7 213C19.9 214 19 215.2 18.4 216.2C17.8 217.3 17.5 218.2 17.5 218.9C17.5 222.2 20.2 225 23.8 224.9C27.5 224.9 30.3 222.1 30.3 218.8Z" stroke="#004B47" stroke-width="3.9249"/>
<path d="M36.7998 200.6C35.9998 200.6 35.0998 200.9 33.8998 201.4C32.7998 202 31.5998 202.7 30.4998 203.5C29.3998 204.3 28.4998 205.2 27.8998 205.9C27.6998 206.2 27.4998 206.4 27.2998 206.6C27.3998 206.8 27.5998 207 27.7998 207.3C28.3998 208 29.2998 208.9 30.3998 209.7C31.3998 210.5 32.5997 211.3 33.6997 211.8C34.8997 212.4 35.7997 212.6 36.5997 212.6C40.1997 212.6 42.9997 209.8 43.0997 206.5C43.0997 203.3 40.3998 200.5 36.7998 200.6Z" stroke="#004B47" stroke-width="3.9249"/>
<path d="M11.5001 212.9C12.3001 212.9 13.2001 212.6 14.4001 212.1C15.5001 211.5 16.7001 210.8 17.8001 210C18.9001 209.2 19.8001 208.3 20.4001 207.6C20.6001 207.3 20.8001 207.1 21.0001 206.9C20.9001 206.7 20.7001 206.5 20.5001 206.2C19.9001 205.5 19.0001 204.6 18.0001 203.8C16.9001 203 15.8 202.2 14.7 201.7C13.6 201.1 12.6001 200.9 11.8001 200.9C8.20012 200.9 5.40012 203.7 5.30012 207C5.10012 210.2 7.90007 213 11.5001 212.9Z" stroke="#004B47" stroke-width="3.9249"/>
<path d="M21.8999 206.8C21.8999 207.8 22.7999 208.8 23.9999 208.7C25.1999 208.7 26.0999 207.7 26.0999 206.7C26.0999 205.7 25.2999 204.7 23.9999 204.8C22.7999 204.9 21.9999 205.8 21.8999 206.8Z" stroke="#004B47" stroke-width="3.9249"/>
</svg>
