<svg width="170" height="271" viewBox="0 0 170 271" fill="none" xmlns="http://www.w3.org/2000/svg">
<path d="M25.3026 165.901C39.5026 165.801 60.6026 146.401 60.7026 140.801C60.8026 135.801 40.1026 116.201 25.9026 116.301C11.7026 116.401 0.102614 127.601 0.00261438 141.301C-0.197386 155.001 11.1026 166.001 25.3026 165.901Z" fill="#54BB9C"/>
<path d="M85.9025 165.401C71.7025 165.501 51.1025 146.501 51.1025 140.901C51.2025 135.901 72.3025 115.901 86.5025 115.801C100.703 115.701 112.003 126.701 111.803 140.401C111.703 154.101 100.003 165.301 85.9025 165.401Z" fill="#54BB9C"/>
<path d="M30.5025 111.801C30.3025 125.501 50.0025 145.501 55.8025 145.401C61.0025 145.401 81.8025 125.001 82.0025 111.401C82.2025 97.8011 70.8025 86.8011 56.6025 86.9011C42.4025 87.0011 30.7025 98.2011 30.5025 111.801Z" fill="#54BB9C"/>
<path d="M29.8024 170.201C30.0024 156.501 50.1024 136.201 56.0024 136.201C61.2024 136.201 81.5024 156.201 81.3024 169.801C81.1024 183.501 69.5024 194.601 55.2024 194.701C41.0024 194.801 29.6024 183.901 29.8024 170.201Z" fill="#54BB9C"/>
<path d="M41.3027 112.901C41.3027 114.501 41.9027 116.601 43.1027 119.201C44.3027 121.701 46.1027 124.301 48.1027 126.601C50.0027 128.901 52.1027 130.901 53.8027 132.301C54.6027 132.901 55.3027 133.401 55.8027 133.601C56.3027 133.301 56.9027 132.901 57.7027 132.201C59.5027 130.801 61.6027 128.801 63.6027 126.401C65.6027 124.001 67.5027 121.401 68.9027 118.901C70.3027 116.301 70.9027 114.201 70.9027 112.701C71.0027 105.101 64.6027 98.6011 56.2027 98.7011C48.0027 98.7011 41.4027 105.201 41.3027 112.901Z" stroke="#004B47" stroke-width="9.1084"/>
<path d="M70.3028 168.901C70.3028 167.301 69.7028 165.201 68.5028 162.601C67.3028 160.101 65.5028 157.501 63.5028 155.201C61.5028 152.901 59.5028 150.901 57.8028 149.501C57.0028 148.901 56.3028 148.401 55.8028 148.201C55.3028 148.501 54.7028 148.901 53.9028 149.601C52.1028 151.001 50.0028 153.001 48.0028 155.401C46.0028 157.801 44.1028 160.401 42.7028 162.901C41.3028 165.501 40.7028 167.601 40.7028 169.101C40.6028 176.801 47.0028 183.201 55.3028 183.101C63.6028 183.101 70.2028 176.501 70.3028 168.901Z" stroke="#004B47" stroke-width="9.1084"/>
<path d="M85.2028 126.501C83.5028 126.501 81.2028 127.101 78.5028 128.401C75.9028 129.701 73.1028 131.401 70.7028 133.401C68.2028 135.301 66.1028 137.401 64.7028 139.001C64.1028 139.701 63.7028 140.201 63.4028 140.701C63.7028 141.101 64.1028 141.701 64.6028 142.301C66.0028 144.001 68.1028 146.001 70.5028 147.901C72.9028 149.801 75.6028 151.601 78.2028 152.801C80.9028 154.101 83.1028 154.701 84.8028 154.701C93.2028 154.601 99.7028 148.101 99.8028 140.501C99.9028 132.901 93.5028 126.501 85.2028 126.501ZM62.9028 140.101C62.9028 140.001 62.9028 140.001 62.9028 140.101Z" stroke="#004B47" stroke-width="9.1084"/>
<path d="M26.5025 155.301C28.2025 155.301 30.5025 154.701 33.2025 153.401C35.8025 152.101 38.6025 150.401 41.0025 148.401C43.5025 146.501 45.6025 144.401 47.0025 142.801C47.6025 142.101 48.0025 141.601 48.3025 141.101C48.0025 140.701 47.6025 140.101 47.1025 139.501C45.7025 137.801 43.6025 135.801 41.2025 133.901C38.8025 132.001 36.1025 130.201 33.5025 128.901C30.8025 127.601 28.6025 127.001 26.9025 127.001C18.6025 127.101 12.0025 133.601 11.9025 141.201C11.7025 148.901 18.1025 155.301 26.5025 155.301Z" stroke="#004B47" stroke-width="9.1084"/>
<path d="M50.8027 141.001C50.8027 143.401 52.8027 145.601 55.7027 145.501C58.6027 145.501 60.6027 143.301 60.7027 140.901C60.7027 138.501 58.7027 136.301 55.9027 136.401C52.9027 136.501 50.8027 138.701 50.8027 141.001Z" stroke="#004B47" stroke-width="9.1084"/>
<path d="M130.503 32.9016C136.403 32.9016 145.203 24.8016 145.303 22.4016C145.303 20.3016 136.703 12.1016 130.803 12.2016C124.903 12.2016 120.103 16.9016 120.003 22.6016C119.903 28.4016 124.603 33.0016 130.503 32.9016Z" fill="#54BB9C"/>
<path d="M155.803 32.7017C149.903 32.7017 141.303 24.8017 141.303 22.5017C141.303 20.4017 150.103 12.1017 156.103 12.0017C162.003 12.0017 166.703 16.5017 166.603 22.3017C166.503 28.0017 161.703 32.7017 155.803 32.7017Z" fill="#54BB9C"/>
<path d="M132.703 10.4016C132.603 16.1016 140.803 24.4016 143.303 24.4016C145.503 24.4016 154.103 15.9016 154.203 10.2016C154.303 4.5016 149.503 -0.0983999 143.603 0.00160011C137.603 0.1016 132.803 4.70159 132.703 10.4016Z" fill="#54BB9C"/>
<path d="M132.403 34.8016C132.503 29.1016 140.903 20.6016 143.303 20.6016C145.503 20.6016 153.903 28.9016 153.903 34.6016C153.803 40.3016 149.003 44.9016 143.003 45.0016C137.103 45.0016 132.303 40.4016 132.403 34.8016Z" fill="#54BB9C"/>
<path d="M137.203 10.9017C137.203 11.5017 137.403 12.4017 138.003 13.5017C138.503 14.5017 139.303 15.6017 140.103 16.6017C140.903 17.6017 141.803 18.4016 142.503 19.0016C142.803 19.3016 143.103 19.5017 143.303 19.6017C143.503 19.5017 143.803 19.3016 144.103 19.0016C144.803 18.4016 145.703 17.6017 146.603 16.6017C147.403 15.6017 148.203 14.5017 148.803 13.5017C149.403 12.4017 149.603 11.5017 149.603 10.9017C149.603 7.70165 147.003 5.00165 143.503 5.10165C140.003 4.90165 137.303 7.70165 137.203 10.9017Z" stroke="#004B47" stroke-width="3.7958"/>
<path d="M149.303 34.2015C149.303 33.5015 149.103 32.7015 148.503 31.6015C148.003 30.6015 147.203 29.5015 146.403 28.5015C145.603 27.5015 144.703 26.7015 144.003 26.1015C143.703 25.8015 143.403 25.6015 143.203 25.5015C143.003 25.6015 142.703 25.8015 142.403 26.1015C141.703 26.7015 140.803 27.5015 139.903 28.5015C139.003 29.5015 138.303 30.6015 137.703 31.6015C137.103 32.7015 136.903 33.6015 136.803 34.2015C136.803 37.4015 139.403 40.1015 142.903 40.0015C146.503 40.1015 149.203 37.4015 149.303 34.2015Z" stroke="#004B47" stroke-width="3.7958"/>
<path d="M155.503 16.5015C154.803 16.5015 153.803 16.8015 152.703 17.3015C151.603 17.8015 150.503 18.6015 149.403 19.4015C148.403 20.2015 147.503 21.0015 146.903 21.8015C146.703 22.1015 146.503 22.3015 146.403 22.5015C146.503 22.7015 146.703 22.9015 146.903 23.2015C147.503 23.9015 148.303 24.7015 149.403 25.5015C150.403 26.3015 151.503 27.0015 152.603 27.6015C153.703 28.1015 154.703 28.4015 155.403 28.4015C158.903 28.4015 161.603 25.6015 161.603 22.5015C161.603 19.2015 159.003 16.5015 155.503 16.5015Z" stroke="#004B47" stroke-width="3.7958"/>
<path d="M131.003 28.5016C131.703 28.5016 132.703 28.2016 133.803 27.7016C134.903 27.2016 136.003 26.4016 137.103 25.6016C138.103 24.8016 139.003 24.0016 139.603 23.2016C139.803 22.9016 140.003 22.7016 140.103 22.5016C140.003 22.3016 139.803 22.1016 139.603 21.8016C139.003 21.1016 138.203 20.3016 137.103 19.5016C136.103 18.7016 135.003 18.0016 133.903 17.4016C132.803 16.9016 131.803 16.6016 131.103 16.6016C127.603 16.6016 124.903 19.4016 124.903 22.5016C124.903 25.6016 127.503 28.5016 131.003 28.5016Z" stroke="#004B47" stroke-width="3.7958"/>
<path d="M141.103 22.6017C141.103 23.6017 141.903 24.5016 143.103 24.5016C144.303 24.5016 145.203 23.6017 145.203 22.6017C145.203 21.6017 144.403 20.7017 143.203 20.7017C142.003 20.7017 141.203 21.6017 141.103 22.6017Z" stroke="#004B47" stroke-width="3.7958"/>
<path d="M123.802 254.902C131.302 254.802 142.602 244.502 142.602 241.602C142.602 238.902 131.602 228.502 124.102 228.602C116.602 228.702 110.402 234.602 110.302 241.902C110.202 249.102 116.302 254.902 123.802 254.902Z" fill="#54BB9C"/>
<path d="M156.002 254.602C148.502 254.702 137.502 244.502 137.502 241.602C137.502 238.902 148.802 228.302 156.302 228.302C163.802 228.202 169.902 234.102 169.802 241.402C169.702 248.602 163.502 254.502 156.002 254.602Z" fill="#54BB9C"/>
<path d="M126.602 226.102C126.502 233.302 137.002 244.002 140.102 244.002C142.902 244.002 153.902 233.202 154.002 225.902C154.102 218.602 148.002 212.802 140.502 212.902C133.002 213.002 126.702 218.902 126.602 226.102Z" fill="#54BB9C"/>
<path d="M126.202 257.202C126.302 250.002 137.002 239.102 140.102 239.102C142.902 239.102 153.702 249.702 153.602 257.002C153.502 264.202 147.302 270.202 139.802 270.202C132.102 270.302 126.102 264.402 126.202 257.202Z" fill="#54BB9C"/>
<path d="M132.302 226.702C132.302 227.502 132.602 228.702 133.302 230.002C134.002 231.302 134.902 232.702 135.902 233.902C136.902 235.102 138.002 236.202 138.902 236.902C139.302 237.202 139.702 237.502 140.002 237.602C140.302 237.402 140.602 237.202 141.002 236.902C141.902 236.202 143.102 235.102 144.202 233.802C145.302 232.502 146.302 231.202 147.002 229.802C147.702 228.402 148.102 227.302 148.102 226.502C148.202 222.402 144.802 219.002 140.302 219.102C135.902 219.202 132.402 222.602 132.302 226.702Z" stroke="#004B47" stroke-width="4.841"/>
<path d="M147.703 256.502C147.703 255.702 147.403 254.502 146.703 253.202C146.003 251.902 145.103 250.502 144.103 249.302C143.103 248.102 142.003 247.002 141.103 246.302C140.703 246.002 140.303 245.702 140.103 245.602C139.803 245.802 139.503 246.002 139.103 246.302C138.203 247.002 137.003 248.102 135.903 249.402C134.803 250.702 133.803 252.002 133.103 253.402C132.403 254.802 132.003 255.902 132.003 256.702C131.903 260.802 135.303 264.202 139.803 264.102C144.203 264.002 147.603 260.502 147.703 256.502Z" stroke="#004B47" stroke-width="4.841"/>
<path d="M155.602 234.002C154.702 234.002 153.502 234.302 152.002 235.002C150.602 235.702 149.102 236.602 147.802 237.602C146.502 238.602 145.402 239.702 144.602 240.602C144.302 241.002 144.102 241.302 143.902 241.502C144.002 241.702 144.302 242.002 144.602 242.402C145.402 243.302 146.502 244.402 147.702 245.402C149.002 246.402 150.402 247.402 151.802 248.002C153.202 248.702 154.402 249.002 155.302 249.002C159.702 249.002 163.202 245.502 163.302 241.402C163.402 237.302 160.002 233.902 155.602 234.002ZM143.802 241.202C143.802 241.102 143.802 241.102 143.802 241.202Z" stroke="#004B47" stroke-width="4.841"/>
<path d="M124.402 249.202C125.302 249.202 126.502 248.902 128.002 248.202C129.402 247.502 130.802 246.602 132.202 245.602C133.602 244.602 134.602 243.502 135.402 242.602C135.702 242.202 135.902 241.902 136.102 241.702C135.902 241.502 135.702 241.202 135.402 240.802C134.602 239.902 133.602 238.902 132.302 237.802C131.002 236.702 129.602 235.802 128.202 235.202C126.802 234.502 125.602 234.202 124.702 234.202C120.302 234.202 116.802 237.702 116.702 241.802C116.602 245.902 120.002 249.302 124.402 249.202Z" stroke="#004B47" stroke-width="4.841"/>
<path d="M137.302 241.702C137.302 243.002 138.402 244.102 139.902 244.102C141.402 244.102 142.502 242.902 142.502 241.602C142.502 240.302 141.502 239.202 139.902 239.202C138.502 239.202 137.402 240.402 137.302 241.702Z" stroke="#004B47" stroke-width="4.841"/>
</svg>
