<svg width="1920" height="786" viewBox="0 0 1920 786" fill="none" xmlns="http://www.w3.org/2000/svg">
<g filter="url(#filter0_di_147_160120)">
<path fill-rule="evenodd" clip-rule="evenodd" d="M1542.77 78.4596L1527.09 67.8031L1532.18 61.1151L1525.98 69.2541L1531.83 73.4431L1525.23 93.2462L1571.86 128.844L1566.42 135.038L1586.19 112.573L1601.01 123.304L1601.82 123.891L1603.08 122.405L1594.72 116.266L1606.7 98.1488L1613.36 88.7861L1613.36 88.7851L1606.7 98.1486L1560.66 63.2868L1542.77 78.4596ZM1571.69 47.2406L1580.72 26.5024L1542.02 0L1522.65 20.3884L1504.41 51.682L1510.72 56.6943L1509.83 57.7169L1508.75 56.9477L1493.43 45.9924L1471.02 66.3808L1453.05 100.744L1469.12 112.723L1458.2 130.291L1452.45 125.999L1429.62 146.213L1412.42 176.558L1450.98 206.554L1450.98 206.553L1459.5 198.875L1459.69 307.947L1442.87 322.346L1442.4 393.269L1379.73 450.841H1329.32V475.796L1310.48 475.796L1310.81 586.572H1384.32L1384.32 533.218L1444.44 481.912L1444.44 482.784V582.851L1391.54 585.449V591.015L1397.53 591.096V605.563L1397.53 604.64L1384.32 606.304V586.572H1310.81L1310.95 637.488L1269.56 642.023V648.96L1276.94 649.181L1276.94 663.684L1189 674.839V680.357C938.025 686.421 675.265 677.725 586 666C479.938 652.07 408.558 663.199 338.474 674.126C297.878 680.455 257.716 686.717 211.5 688C110.7 690.8 5.16667 654.5 -35 636V736.5H-21V787H1955V736.5H1957L2002.5 676.5C1973.65 691.674 1954.91 673.299 1930.99 649.853C1891.08 610.721 1836.76 557.465 1697 622.5C1696.77 622.609 1696.53 622.717 1696.3 622.826L1696.03 622.949L1695.92 622.999L1695.52 623.18C1694.98 623.426 1694.43 623.671 1693.87 623.915V613.493L1698.14 613.124V608.982L1698.11 608.984L1698.14 608.982L1673.01 604.394L1672.98 592.237L1672.63 466.737L1655.81 466.238V447.971L1637.05 446.748L1632.68 446.969L1600.04 384.46L1578.23 384.585L1576.86 452.851L1578.23 384.56L1600.06 384.435L1603.61 391.273L1603.18 325.89L1595.15 308.322L1595.37 206.13L1595.4 197.945V205.207L1595.4 206.13L1615.78 185.492L1626.99 167.15L1615.78 159.264L1625.54 141.097L1616.95 134.872L1617.71 135.407L1619.29 133.477L1632.15 142.494L1632.16 142.49L1655.11 114.045L1670.36 90.1632L1634.2 63.1616L1619.03 80.8047L1571.69 47.2406ZM1672.98 592.237L1641.84 592.362L1641.84 592.337L1614.79 592.436H1603.98L1609.59 592.412L1641.84 592.337L1672.98 592.237ZM1484.57 474.248L1484.19 202.663L1514.92 222.925L1521.39 213.412L1521.4 213.392L1521.46 213.326L1502.19 241.691L1540.39 270.963L1551.95 255.691V254.596L1552.62 395.915L1551.65 473.75L1550.8 564.561H1484.65L1484.57 474.248ZM1550.58 609.481L1550.58 610.579V609.477L1403.77 605.723L1550.58 609.481ZM1576.43 474.399L1551.66 473.75L1576.43 474.249L1576.43 474.399ZM1576.43 474.249L1571.09 474.124L1576.43 474.224L1576.43 474.249ZM1562.52 639.244L1603.62 634.315L1596.07 635.235L1562.52 639.244ZM1526.92 124.751L1557.86 147.959L1555.48 151.586L1524.71 128.182L1526.92 124.751ZM1551.4 157.792L1551.47 157.696L1545.88 166.202L1559.73 176.238L1551.6 183.521L1551.65 194.95L1543.16 189.285L1527.5 205.85L1527.62 205.706L1481.13 173.638L1490.23 154.099L1482.47 148.334L1475.55 143.197L1475.55 143.196L1485.44 150.53L1487.21 151.852L1492.42 145.611L1502.89 152.901L1515.8 140.206L1516.99 141.097L1526.44 148.209L1547.48 163.756L1551.4 157.792ZM1551.86 237.939L1551.91 247.021L1551.86 237.932L1551.86 237.939Z" fill="#004B47"/>
</g>
<defs>
<filter id="filter0_di_147_160120" x="-39" y="0" width="2045.5" height="795" filterUnits="userSpaceOnUse" color-interpolation-filters="sRGB">
<feFlood flood-opacity="0" result="BackgroundImageFix"/>
<feColorMatrix in="SourceAlpha" type="matrix" values="0 0 0 0 0 0 0 0 0 0 0 0 0 0 0 0 0 0 127 0" result="hardAlpha"/>
<feOffset dy="4"/>
<feGaussianBlur stdDeviation="2"/>
<feComposite in2="hardAlpha" operator="out"/>
<feColorMatrix type="matrix" values="0 0 0 0 0 0 0 0 0 0 0 0 0 0 0 0 0 0 0.25 0"/>
<feBlend mode="normal" in2="BackgroundImageFix" result="effect1_dropShadow_147_160120"/>
<feBlend mode="normal" in="SourceGraphic" in2="effect1_dropShadow_147_160120" result="shape"/>
<feColorMatrix in="SourceAlpha" type="matrix" values="0 0 0 0 0 0 0 0 0 0 0 0 0 0 0 0 0 0 127 0" result="hardAlpha"/>
<feOffset dy="4"/>
<feGaussianBlur stdDeviation="2"/>
<feComposite in2="hardAlpha" operator="arithmetic" k2="-1" k3="1"/>
<feColorMatrix type="matrix" values="0 0 0 0 0 0 0 0 0 0 0 0 0 0 0 0 0 0 0.25 0"/>
<feBlend mode="normal" in2="shape" result="effect2_innerShadow_147_160120"/>
</filter>
</defs>
</svg>
