<svg width="457" height="1024" viewBox="0 0 457 1024" fill="none" xmlns="http://www.w3.org/2000/svg">
<path d="M420.17 317.058V315.539H347.443V317.058H345.851V382.984H421.666V317.058H420.147H420.17ZM369.514 364.265V335.777H393.781V364.265H369.514Z" fill="#004B47"/>
<path d="M420.243 318.554L378.56 299.064L347.926 318.506L347.178 317.324L378.463 297.448L420.821 317.276L420.243 318.554Z" fill="#004B47"/>
<path d="M456.136 138.556V132.381H407.121C406.469 128.16 402.947 124.928 398.702 124.928C396.651 124.928 394.77 125.676 393.299 126.93L179.168 32.5646V16.6922H171.642C169.375 7.11578 161.053 0 151.09 0C150.487 0 149.884 0.0483381 149.281 0.0965819C148.678 0.0483381 148.075 0 147.472 0C137.51 0 129.187 7.11578 126.92 16.6922H126.004V36.0139L37.3791 119.524C35.5941 118.366 33.4959 117.715 31.2285 117.715C30.9631 117.715 30.6976 117.715 30.4322 117.763C30.1669 117.763 29.9014 117.715 29.636 117.715C29.2501 117.715 28.8642 117.715 28.4782 117.788C28.0923 117.739 27.7064 117.715 27.3204 117.715C21.0728 117.715 15.9835 122.781 15.6458 129.173C15.4528 129.463 15.3324 129.824 15.2842 130.186H13.3785C13.2337 129.004 12.2448 128.064 11.0146 128.064H2.47531C1.82401 128.064 1.22049 128.329 0.7863 128.763C0.352105 129.197 0.0866699 129.8 0.0866699 130.452V139.714V192.276C0.0866699 193.603 1.17272 194.664 2.47531 194.664H11.0146C12.3413 194.664 13.402 193.578 13.402 192.276V190.539H15.2595V192.276C15.2595 193.603 16.3455 194.664 17.6481 194.664H26.1874C27.5141 194.664 28.5748 193.578 28.5748 192.276V190.539H30.4322V192.276C30.4322 193.603 31.5183 194.664 32.8209 194.664H41.359C42.6857 194.664 43.7476 193.578 43.7476 192.276V190.539H45.605V192.276C45.605 193.603 46.6899 194.664 47.9925 194.664H56.5317C57.8585 194.664 58.9204 193.578 58.9204 192.276V190.539H60.7778V192.276C60.7778 193.603 61.8627 194.664 63.1653 194.664H101.495C102.822 194.664 103.884 193.578 103.884 192.276V164.102H109.455V212.104H112.857V230.268H125.931V881.994C125.931 881.994 119.684 1024 124.146 1024C128.609 1024 132.396 1020.19 132.396 1015.46C132.396 1013.94 132.01 1012.52 131.334 1011.26H144.192C143.516 1012.49 143.13 1013.94 143.13 1015.46C143.13 1020.16 146.821 1024 151.38 1024C155.939 1024 159.46 1020.33 159.605 1015.77H178.879C179.023 1020.36 182.666 1024 187.105 1024C191.543 1024 184.644 986.563 184.644 986.563V978.023H179.095V164.102H319.124L326.601 176.935H331.811C332.511 179.781 334.996 181.903 337.987 181.903C339.024 181.903 339.989 181.614 340.857 181.18L369.249 224.84C365.775 227.108 363.46 231.185 363.46 235.84C363.46 242.956 368.839 248.721 375.472 248.721C375.569 248.721 375.666 248.721 375.762 248.721V257.695C373.109 258.322 371.106 260.758 371.106 263.701C371.106 265.655 371.999 267.368 373.35 268.501L373.18 280.008C377.884 283.095 380.345 284.808 381.02 286.52C381.623 288.088 381.623 298.533 376.099 299.353C376.099 299.353 376.075 299.353 376.051 299.353C372.746 298.774 372.626 295.011 372.626 295.011C372.626 293.853 370.913 293.443 369.659 293.733C368.404 293.443 366.692 293.853 366.692 295.011C366.692 295.011 366.258 301.403 374.966 301.403C375.28 301.403 375.569 301.403 375.882 301.379C376.124 301.379 376.364 301.403 376.605 301.403C386.085 301.403 391.272 295.686 391.272 289.873C391.272 280.851 379.91 276.413 379.814 275.159C379.79 274.845 379.766 274.097 379.766 273.157L381.575 271.951V267.729C382.467 266.644 383.047 265.269 383.047 263.725C383.047 260.999 381.334 258.732 378.971 257.911V248.746C379.115 248.746 379.259 248.746 379.404 248.746C386.279 248.746 391.851 242.98 391.851 235.864C391.851 231.233 389.487 227.18 385.941 224.913L409.894 181.542C410.546 181.783 411.245 181.927 411.969 181.927C414.96 181.927 417.444 179.805 418.144 176.959H429.505L436.983 164.126H456.088V157.95V138.556H456.136ZM172.872 916.03H158.35V912.315C158.35 912.171 158.326 912.05 158.302 911.905V902.16C158.302 902.015 158.35 901.895 158.35 901.75V886.192C158.35 886.047 158.326 885.926 158.302 885.781V865.76H172.848V916.03H172.872ZM132.276 509.937H142.768V560.208H132.276V509.937ZM132.276 262.953H142.768V313.223H132.276V262.953ZM152.031 908.118H149.064V905.947H152.031V908.118ZM149.064 958.195H152.031V960.367H149.064V958.195ZM149.064 934.242V932.071H152.031V934.242H149.064ZM149.064 738.107V687.837H152.031V738.107H149.064ZM152.031 747.153V797.423H149.064V747.153H152.031ZM149.064 678.791V628.521H152.031V678.791H149.064ZM149.064 619.475V569.205H152.031V619.475H149.064ZM149.064 560.159V509.89H152.031V560.159H149.064ZM149.064 500.844V440.828H152.031V500.844H149.064ZM149.064 431.783V381.512H152.031V431.783H149.064ZM149.064 372.466V322.197H152.031V372.466H149.064ZM149.064 313.151V262.881H152.031V313.151H149.064ZM149.064 806.396H152.031V856.666H149.064V806.396ZM152.031 75.9358H149.064V43.7092C149.064 43.7092 149.208 43.7092 149.256 43.7092C149.859 43.7575 150.462 43.8052 151.065 43.8052C151.379 43.8052 151.718 43.781 152.031 43.7569V75.9599V75.9358ZM142.768 43.2505V75.9358H132.276V37.1475C135.074 40.1387 138.715 42.2856 142.768 43.2263V43.2505ZM149.04 84.9815H152.007V132.309H149.04V84.9815ZM223.794 138.484H238.797V157.878H223.794V138.484ZM218.415 157.878H208.886V138.484H218.415V157.878ZM244.201 138.484H253.729V157.878H244.201V138.484ZM259.108 138.484H274.112V157.878H259.108V138.484ZM279.515 138.484H289.043V157.878H279.515V138.484ZM294.422 138.484H309.427V157.878H294.422V138.484ZM314.83 138.484H324.358V157.878H314.83V138.484ZM329.737 138.484H344.74V157.878H329.737V138.484ZM350.144 157.878V138.484H359.673V157.878H350.144ZM365.052 138.484H380.055V157.878H365.052V138.484ZM385.459 138.484H394.987V157.878H385.459V138.484ZM172.848 157.589H169.52C169.278 155.731 167.71 154.284 165.78 154.284H158.302V144.273H172.848V157.589ZM149.04 154.284V144.273H152.007V154.284H149.04ZM132.251 144.273H142.744V154.284H132.251V144.273ZM103.932 138.46H125.955V154.26H115.679C113.749 154.26 112.182 155.707 111.94 157.565H109.48V157.854H103.908V138.46H103.932ZM179.12 138.46H183.075V157.854H179.12V138.46ZM188.454 138.46H203.459V157.854H188.454V138.46ZM400.366 157.854V138.46H415.37V157.854H400.366ZM158.278 132.285V84.9574H172.823V132.285H158.278ZM172.823 75.9116H158.278V42.4307C163.73 40.3803 168.144 36.0621 170.46 30.5864L172.823 31.6241V75.9116ZM132.227 84.9574H142.719V132.285H132.227V84.9574ZM151.983 230.195V253.835H149.016V230.195H151.983ZM132.227 322.197H142.719V372.466H132.227V322.197ZM132.227 381.512H142.719V431.783H132.227V381.512ZM132.227 440.828H142.719V500.844H132.227V440.828ZM132.227 569.205H142.719V619.475H132.227V569.205ZM132.227 628.521H142.719V678.791H132.227V628.521ZM132.227 687.837H142.719V738.107H132.227V687.837ZM132.227 747.153H142.719V797.423H132.227V747.153ZM132.227 806.469H142.719V856.738H132.227V806.469ZM149.016 865.784H151.983V882.018H149.016V865.784ZM172.823 856.738H158.278V806.469H172.823V856.738ZM172.823 797.423H158.278V747.153H172.823V797.423ZM172.823 738.107H158.278V687.837H172.823V738.107ZM172.823 678.791H158.278V628.521H172.823V678.791ZM172.823 619.475H158.278V569.205H172.823V619.475ZM172.823 560.159H158.278V509.89H172.823V560.159ZM158.278 500.844V440.828H172.823V500.844H158.278ZM172.823 431.783H158.278V381.512H172.823V431.783ZM172.823 372.466H158.278V322.197H172.823V372.466ZM172.823 313.151H158.278V262.881H172.823V313.151ZM172.823 253.835H158.278V212.032H158.35L160.859 203.565H172.823V253.835ZM420.773 157.878V138.484H430.301V157.878H420.773ZM391.971 128.208C391.079 129.366 390.477 130.765 390.235 132.309H179.12V34.422L391.971 128.208ZM172.848 29.7425L171.087 28.9705C171.449 27.9091 171.714 26.8233 171.907 25.6896H172.848V29.7425ZM125.979 38.3295V132.309H103.956V130.403C103.956 129.077 102.871 128.015 101.568 128.015H63.2383C62.9006 128.015 62.5867 128.087 62.2972 128.208C61.5253 128.546 60.9703 129.269 60.8497 130.138H58.9439C58.7992 128.956 57.8103 128.015 56.58 128.015H48.0408C47.7031 128.015 47.3903 128.087 47.1009 128.208C47.0285 128.232 46.9801 128.28 46.9077 128.304C46.8353 128.353 46.7634 128.377 46.691 128.425C46.1362 128.811 45.7498 129.414 45.6533 130.138H43.7476C43.6752 129.511 43.362 128.956 42.8795 128.57C42.566 125.362 41.0458 122.515 38.7783 120.537L125.979 38.3536V38.3295ZM134.012 230.195H142.768V253.835H132.276V230.195H134.012ZM132.276 865.688H142.768V881.922H132.276V865.688ZM160.956 977.951H158.35V964.491C158.35 964.347 158.326 964.226 158.302 964.081V954.336C158.302 954.191 158.35 954.07 158.35 953.926V938.367C158.35 938.222 158.326 938.102 158.302 937.957V928.212C158.302 928.067 158.35 927.947 158.35 927.802V925.004H172.872V977.951H160.956ZM172.872 194.519H163.561L172.558 164.029H172.848V194.519H172.872ZM384.47 223.996C382.926 223.297 381.237 222.886 379.452 222.886C379.163 222.886 378.874 222.911 378.584 222.935C378.295 222.935 378.006 222.886 377.716 222.886C377.354 222.886 376.967 222.911 376.605 222.935C376.244 222.911 375.906 222.886 375.544 222.886C373.88 222.886 372.288 223.249 370.841 223.924L342.353 180.118C343.27 179.25 343.945 178.141 344.259 176.862H354.752L362.229 164.029H393.998L401.475 176.862H405.818C406.204 178.43 407.12 179.78 408.399 180.673L384.47 223.996ZM450.733 157.854H435.729V138.46H450.733V157.854Z" fill="#004B47"/>
<path d="M202.687 978.023H100.579V1023.98H202.687V978.023Z" fill="#004B47"/>
</svg>
