<svg width="812" height="1003" viewBox="0 0 812 1003" fill="none" xmlns="http://www.w3.org/2000/svg">
<g filter="url(#filter0_ddi_491_84601)">
<path fill-rule="evenodd" clip-rule="evenodd" d="M640.595 806.161H539.554V732.833V653.915H615.146H641.041L640.595 806.161Z" fill="#439179" fill-opacity="0.7"/>
<path fill-rule="evenodd" clip-rule="evenodd" d="M539.555 653.914V732.833L456.932 662.317L459.744 540.493L545.865 619.617H615.146V653.914H539.555Z" fill="#439179" fill-opacity="0.7"/>
<path fill-rule="evenodd" clip-rule="evenodd" d="M456.931 663.518V811.888H401.644L401.781 651.788H456.966L456.931 663.518Z" fill="#439179" fill-opacity="0.7"/>
<path fill-rule="evenodd" clip-rule="evenodd" d="M273.063 528.557L275.533 651.788L237.84 719.011V796.557V814.22L229.951 814.186L229.574 644.997L229.505 615.878L273.063 528.557Z" fill="#439179" fill-opacity="0.7"/>
<path fill-rule="evenodd" clip-rule="evenodd" d="M273.063 528.558L229.505 615.879L198.226 614.301L243.087 528.386L273.063 528.558Z" fill="#439179" fill-opacity="0.7"/>
<path fill-rule="evenodd" clip-rule="evenodd" d="M184.027 641.945L184.713 641.979L191.47 642.459L192.224 613.992L229.506 615.879L192.224 613.992L229.506 615.879L229.574 644.997L229.951 814.186L185.639 814.083L184.027 641.945Z" fill="#439179" fill-opacity="0.7"/>
<path fill-rule="evenodd" clip-rule="evenodd" d="M184.027 641.944L185.639 814.083L142.836 813.946L143.316 641.464L166.432 640.778L184.027 641.944Z" fill="#439179" fill-opacity="0.7"/>
<path fill-rule="evenodd" clip-rule="evenodd" d="M275.533 651.788L278.173 845.843L237.84 842.413V719.011L275.533 651.788Z" fill="#439179" fill-opacity="0.7"/>
<path fill-rule="evenodd" clip-rule="evenodd" d="M260.271 264.844L298.478 242.208L309.659 252.223L309.59 267.931L309.179 349.765L308.253 544.128L309.59 651.102L275.533 651.788L282.873 651.616L280.815 448.301L290.212 423.744V248.21H288.36L260.271 264.844Z" fill="#439179" fill-opacity="0.7"/>
<path fill-rule="evenodd" clip-rule="evenodd" d="M238.183 537.749L238.766 447.89L280.814 448.301L282.872 651.616L275.532 651.754L273.063 528.523L243.053 528.352L238.183 537.749ZM249.809 423.744L249.501 283.297L249.466 272.047L260.27 264.845L288.36 248.21H290.212V423.744H249.809Z" fill="#439179" fill-opacity="0.7"/>
<path fill-rule="evenodd" clip-rule="evenodd" d="M347.489 287.892L309.281 327.026L309.59 267.931L321.251 260.146L347.489 287.892Z" fill="#439179" fill-opacity="0.7"/>
<path fill-rule="evenodd" clip-rule="evenodd" d="M447.946 283.88L423.389 243.649L477.304 200.948L500.935 242.654L447.946 283.88Z" fill="#439179" fill-opacity="0.7"/>
<path fill-rule="evenodd" clip-rule="evenodd" d="M477.304 200.948L423.389 243.649L393.996 211.786L404.662 203.864L415.981 195.461L433.301 217.891L453.433 203.864L436.182 180.439L445.922 173.167L477.304 200.948Z" fill="#439179" fill-opacity="0.7"/>
<path fill-rule="evenodd" clip-rule="evenodd" d="M453.433 203.864L433.266 219.058L402.81 169.978L423.012 154.922L453.433 203.864Z" fill="#439179" fill-opacity="0.7"/>
<path fill-rule="evenodd" clip-rule="evenodd" d="M408.572 187.881L376.607 210.14L358.052 178.861L343.579 171.453L366.078 154.544L394.339 176.289L399.072 172.756L408.572 187.881Z" fill="#439179" fill-opacity="0.7"/>
<path fill-rule="evenodd" clip-rule="evenodd" d="M402.81 169.978L394.339 176.289L367.553 131.119L420.405 91.231L445.099 138.459L423.012 154.921L402.81 169.978Z" fill="#439179" fill-opacity="0.7"/>
<path fill-rule="evenodd" clip-rule="evenodd" d="M420.405 91.2312L367.552 131.119L336.822 100.937L348.277 92.7403L368.547 78.2668L389.606 63.2103L420.405 91.2312Z" fill="#439179" fill-opacity="0.7"/>
<path fill-rule="evenodd" clip-rule="evenodd" d="M336.822 100.937L367.553 131.119L394.339 176.289L366.078 154.544L372.114 150.017L364.054 136.71L350.061 127.621L346.563 130.159L336.822 100.937Z" fill="#439179" fill-opacity="0.7"/>
<path fill-rule="evenodd" clip-rule="evenodd" d="M346.563 130.159L350.061 127.621L364.054 136.709L372.114 150.017L364.569 155.676L338.091 175.534L301.05 203.349L289.732 186.098L283.215 176.151L346.563 130.159Z" fill="#439179" fill-opacity="0.7"/>
<path fill-rule="evenodd" clip-rule="evenodd" d="M262.122 154.716L289.732 186.098L233.93 226.809L208.035 193.917L223.366 182.805L241.75 169.463L262.122 154.716Z" fill="#439179" fill-opacity="0.7"/>
<path fill-rule="evenodd" clip-rule="evenodd" d="M289.732 186.098L301.05 203.349L317.513 228.421L262.911 268L233.93 226.809L289.732 186.098Z" fill="#439179" fill-opacity="0.7"/>
<path fill-rule="evenodd" clip-rule="evenodd" d="M227.173 154.441L208.378 167.851L220.966 180.404L198.947 195.838L170.24 154.715L221.446 117.331L233.93 134.892L250.393 159.791L238.903 168.229L227.173 154.441Z" fill="#439179" fill-opacity="0.7"/>
<path fill-rule="evenodd" clip-rule="evenodd" d="M208.378 167.852L227.173 154.441L240.652 170.287L221.651 184.074L208.378 167.852Z" fill="#439179" fill-opacity="0.7"/>
<path fill-rule="evenodd" clip-rule="evenodd" d="M382.746 185.138L397.597 174.231L415.98 195.461L400.581 206.882L382.746 185.138Z" fill="#439179" fill-opacity="0.7"/>
<path fill-rule="evenodd" clip-rule="evenodd" d="M221.446 117.332L170.24 154.716L146.437 123.917L196.134 86.807L216.987 111.055L221.446 117.332Z" fill="#439179" fill-opacity="0.7"/>
<path fill-rule="evenodd" clip-rule="evenodd" d="M233.93 134.892L216.987 111.055L282.049 64.9251L284.759 63.1074L296.111 71.2701L302.182 83.3085L297.209 86.9784L233.93 134.892Z" fill="#439179" fill-opacity="0.7"/>
<path fill-rule="evenodd" clip-rule="evenodd" d="M297.209 86.9783L301.187 84.0287L302.182 83.3085L296.111 71.2701L284.759 63.1073L282.049 64.925L269.634 36.4239L297.415 65.6796L321.8 107.831L297.209 86.9783Z" fill="#439179" fill-opacity="0.7"/>
<path fill-rule="evenodd" clip-rule="evenodd" d="M349.444 28.021L297.414 65.6795L269.633 36.4238L322.829 0L349.444 28.021Z" fill="#439179" fill-opacity="0.7"/>
<path fill-rule="evenodd" clip-rule="evenodd" d="M297.415 65.6796L349.444 28.0211L374.515 71.03L365.838 77.9238L355.343 65.8511L337.028 78.2325L336.342 83.9944L343.339 93.1861L321.8 107.831L297.415 65.6796Z" fill="#439179" fill-opacity="0.7"/>
<path fill-rule="evenodd" clip-rule="evenodd" d="M367.073 79.3298L348.278 92.7401L346.46 91.0938L336.342 83.9942L337.028 78.2323L355.343 65.8509L367.073 79.3298Z" fill="#439179" fill-opacity="0.7"/>
<path fill-rule="evenodd" clip-rule="evenodd" d="M245.419 247.284L260.27 264.845L249.466 272.047V282.028L232.626 258.088L245.419 247.284Z" fill="#439179" fill-opacity="0.7"/>
<path fill-rule="evenodd" clip-rule="evenodd" d="M245.419 247.284L232.627 258.088L206.046 229.724L221.446 218.886L245.419 247.284Z" fill="#439179" fill-opacity="0.7"/>
<path fill-rule="evenodd" clip-rule="evenodd" d="M206.046 229.724L232.627 258.088L249.467 282.028V283.297L221.446 254.933L206.046 229.724Z" fill="#439179" fill-opacity="0.7"/>
<path fill-rule="evenodd" clip-rule="evenodd" d="M245.419 247.284L221.445 218.886L208.035 193.918L233.93 226.809L262.911 268L260.27 264.845L245.419 247.284Z" fill="#439179" fill-opacity="0.7"/>
<path fill-rule="evenodd" clip-rule="evenodd" d="M406.515 238.641L409.258 236.755L419.239 248.245L427.264 262.204L425.309 263.473L418.073 257.711L422.531 265.085L401.85 278.804L360.179 306.276L351.158 293.277L342.618 282.714L406.515 238.641Z" fill="#439179" fill-opacity="0.7"/>
<path fill-rule="evenodd" clip-rule="evenodd" d="M406.515 238.641L393.996 211.786L423.389 243.649L447.946 283.88L425.31 263.473L427.265 262.204L419.239 248.245L409.259 236.755L406.515 238.641Z" fill="#439179" fill-opacity="0.7"/>
<path fill-rule="evenodd" clip-rule="evenodd" d="M351.158 293.277L419.239 248.245L427.264 262.204L404.388 277.157L360.076 306.379L351.158 293.277Z" fill="#439179" fill-opacity="0.7"/>
<path fill-rule="evenodd" clip-rule="evenodd" d="M377.568 332.17L325.058 372.401L309.179 348.496L309.35 319L347.489 287.892L377.568 332.17Z" fill="#439179" fill-opacity="0.7"/>
<path fill-rule="evenodd" clip-rule="evenodd" d="M364.054 136.709L292.132 189.699L289.732 186.098L281.809 177.078L350.815 124.397L364.054 136.709Z" fill="#439179" fill-opacity="0.7"/>
<path fill-rule="evenodd" clip-rule="evenodd" d="M292.133 189.699L364.054 136.71L372.114 150.017L364.569 155.676L343.579 171.453L301.05 203.349L292.133 189.699Z" fill="#439179" fill-opacity="0.7"/>
<path fill-rule="evenodd" clip-rule="evenodd" d="M287.914 77.1692L224.773 122.03L216.987 111.055L282.049 64.9251L285.788 61.9069L296.111 71.2701L287.914 77.1692Z" fill="#439179" fill-opacity="0.7"/>
<path fill-rule="evenodd" clip-rule="evenodd" d="M539.554 806.161H640.594L640.354 889.812H539.554V806.161Z" fill="#439179" fill-opacity="0.7"/>
<path fill-rule="evenodd" clip-rule="evenodd" d="M185.639 814.083L222.818 814.22V916.735L186.359 923.149L185.639 814.083Z" fill="#439179" fill-opacity="0.7"/>
<path fill-rule="evenodd" clip-rule="evenodd" d="M222.818 890.429V814.22H237.84V891.561L222.818 890.429Z" fill="#439179" fill-opacity="0.7"/>
<path fill-rule="evenodd" clip-rule="evenodd" d="M185.639 814.117L186.359 923.149L142.63 914.643L142.836 813.946L185.639 814.117Z" fill="#439179" fill-opacity="0.7"/>
<path fill-rule="evenodd" clip-rule="evenodd" d="M166.433 640.779V615.673L192.224 613.992L191.47 642.459L166.433 640.779Z" fill="#439179" fill-opacity="0.7"/>
<path fill-rule="evenodd" clip-rule="evenodd" d="M249.809 423.745H290.212L280.814 448.302L238.766 447.89L249.809 423.745Z" fill="#439179" fill-opacity="0.7"/>
<path fill-rule="evenodd" clip-rule="evenodd" d="M294.739 801.668L431.86 799.816V775.91H294.739V801.668Z" fill="#439179" fill-opacity="0.7"/>
<path fill-rule="evenodd" clip-rule="evenodd" d="M294.739 838.057L521.411 832.261V804.617L294.739 808.733V838.057Z" fill="#439179" fill-opacity="0.7"/>
<path fill-rule="evenodd" clip-rule="evenodd" d="M294.74 878.562L576.733 870.365V839.257L294.74 846.768V878.562Z" fill="#439179" fill-opacity="0.7"/>
<path fill-rule="evenodd" clip-rule="evenodd" d="M294.739 878.562L237.84 871.737V842.413L294.842 848.518L294.739 878.562Z" fill="#439179" fill-opacity="0.7"/>
<path fill-rule="evenodd" clip-rule="evenodd" d="M279.991 927.951L687.136 915.295V882.37L279.991 887V927.951Z" fill="#439179" fill-opacity="0.7"/>
<path fill-rule="evenodd" clip-rule="evenodd" d="M279.991 927.951L222.817 912.826V885.353L279.991 887.548V927.951Z" fill="#439179" fill-opacity="0.7"/>
<path fill-rule="evenodd" clip-rule="evenodd" d="M264.729 994.488L797.539 962.076V927.573L264.729 946.025V994.488Z" fill="#439179" fill-opacity="0.7"/>
<path fill-rule="evenodd" clip-rule="evenodd" d="M264.729 994.488L182.449 958.27L142.561 948.118L142.664 923.115L186.359 923.149L264.729 946.712V994.488Z" fill="#439179" fill-opacity="0.7"/>
<path fill-rule="evenodd" clip-rule="evenodd" d="M142.561 948.118L10.0019 935.976L9.8989 907.612L142.63 914.643L142.561 948.118Z" fill="#439179" fill-opacity="0.7"/>
<path fill-rule="evenodd" clip-rule="evenodd" d="M142.664 899.244L69.3023 893.653V869.096L142.733 874.858L142.664 899.244Z" fill="#439179" fill-opacity="0.7"/>
<path fill-rule="evenodd" clip-rule="evenodd" d="M142.733 863.883L114.129 861.551V837.954L142.802 839.498L142.733 863.883Z" fill="#439179" fill-opacity="0.7"/>
<path fill-rule="evenodd" clip-rule="evenodd" d="M294.739 784.485L438.377 782.358V775.91H294.739V784.485Z" fill="#439179" fill-opacity="0.7"/>
<path fill-rule="evenodd" clip-rule="evenodd" d="M294.74 815.455L529.643 812.266V804.617L294.74 808.733V815.455Z" fill="#439179" fill-opacity="0.7"/>
<path fill-rule="evenodd" clip-rule="evenodd" d="M289.423 856.612L586.988 848.792V839.257L289.595 846.803L289.423 856.612Z" fill="#439179" fill-opacity="0.7"/>
<path fill-rule="evenodd" clip-rule="evenodd" d="M289.423 856.612L237.84 850.919V842.413L289.595 846.803L289.423 856.612Z" fill="#439179" fill-opacity="0.7"/>
<path fill-rule="evenodd" clip-rule="evenodd" d="M276.836 904.457L697.288 891.904V882.37L277.008 894.065L276.836 904.457Z" fill="#439179" fill-opacity="0.7"/>
<path fill-rule="evenodd" clip-rule="evenodd" d="M276.836 904.457L221.103 894.682V885.422L277.008 894.065L276.836 904.457Z" fill="#439179" fill-opacity="0.7"/>
<path fill-rule="evenodd" clip-rule="evenodd" d="M259.619 958.852L808 936.971V927.47L259.927 946.368L259.619 958.852Z" fill="#439179" fill-opacity="0.7"/>
<path fill-rule="evenodd" clip-rule="evenodd" d="M259.619 958.852L185.399 932.718L142.665 923.115L142.631 914.643L186.36 923.149L259.928 946.368L259.619 958.852Z" fill="#439179" fill-opacity="0.7"/>
<path fill-rule="evenodd" clip-rule="evenodd" d="M142.665 923.115L3.99995 911.282V903.668L142.63 914.643L142.665 923.115Z" fill="#439179" fill-opacity="0.7"/>
<path fill-rule="evenodd" clip-rule="evenodd" d="M142.767 880.963L64.3978 874.412V868.719L142.733 874.858L142.767 880.963Z" fill="#439179" fill-opacity="0.7"/>
<path fill-rule="evenodd" clip-rule="evenodd" d="M142.836 845.637L108.264 842.653V836.96L142.802 839.498L142.836 845.637Z" fill="#439179" fill-opacity="0.7"/>
<path fill-rule="evenodd" clip-rule="evenodd" d="M808 927.471L259.927 946.369L279.991 927.951L687.136 915.295V912.14L808 927.471Z" fill="#439179" fill-opacity="0.7"/>
<path fill-rule="evenodd" clip-rule="evenodd" d="M186.359 923.149L259.927 946.369L279.991 927.951L222.817 912.826L186.359 923.149Z" fill="#439179" fill-opacity="0.7"/>
<path fill-rule="evenodd" clip-rule="evenodd" d="M3.99995 903.668L142.63 914.643L142.665 899.244L79.1114 894.511V894.408L69.3023 893.653V890.875L3.99995 903.668Z" fill="#439179" fill-opacity="0.7"/>
<path fill-rule="evenodd" clip-rule="evenodd" d="M64.3978 868.719L142.733 874.859V863.472V863.883L114.129 861.551V859.596L64.3978 868.719Z" fill="#439179" fill-opacity="0.7"/>
<path fill-rule="evenodd" clip-rule="evenodd" d="M108.264 836.959L142.802 839.669L142.836 830.649L108.264 836.959Z" fill="#439179" fill-opacity="0.7"/>
<path fill-rule="evenodd" clip-rule="evenodd" d="M277.008 894.065L294.739 878.563L576.733 870.366V869.165L697.288 882.37L277.008 894.065Z" fill="#439179" fill-opacity="0.7"/>
<path fill-rule="evenodd" clip-rule="evenodd" d="M277.008 894.065L294.739 878.562L248.541 873.041L237.84 871.737V880.689L221.103 885.422L277.008 894.065Z" fill="#439179" fill-opacity="0.7"/>
<path fill-rule="evenodd" clip-rule="evenodd" d="M294.877 808.733L529.643 804.617L431.861 799.815L294.74 801.668L294.877 808.733Z" fill="#439179" fill-opacity="0.7"/>
<path fill-rule="evenodd" clip-rule="evenodd" d="M278.173 845.843L275.533 651.994L309.59 651.102L311.065 808.767V839.155L278.173 845.843Z" fill="#439179" fill-opacity="0.7"/>
<path fill-rule="evenodd" clip-rule="evenodd" d="M586.988 839.258L289.595 846.803L278.174 845.843L311.065 839.155V837.646L521.411 832.261V830.992L586.988 839.258Z" fill="#439179" fill-opacity="0.7"/>
<path fill-rule="evenodd" clip-rule="evenodd" d="M348.689 92.4318L344.916 95.2442L336.342 83.9946L337.028 78.2327L348.689 92.4318Z" fill="#439179" fill-opacity="0.7"/>
<path fill-rule="evenodd" clip-rule="evenodd" d="M221.651 184.074L218.805 186.097L211.842 177.626L208.378 167.851L221.651 184.074Z" fill="#439179" fill-opacity="0.7"/>
<path fill-rule="evenodd" clip-rule="evenodd" d="M400.581 206.882L398.146 208.7L386.965 195.289L382.747 185.137L400.581 206.882Z" fill="#439179" fill-opacity="0.7"/>
<path fill-rule="evenodd" clip-rule="evenodd" d="M434.158 219.195L422.223 209.626L399.072 172.756L402.81 169.978L434.158 219.195Z" fill="#439179" fill-opacity="0.7"/>
<path fill-rule="evenodd" clip-rule="evenodd" d="M170.24 154.715L198.947 195.838L167.393 156.739L146.437 123.916L170.24 154.715Z" fill="#439179" fill-opacity="0.7"/>
<path fill-rule="evenodd" clip-rule="evenodd" d="M309.179 348.496L325.058 372.401L309.179 351.411V348.496Z" fill="#439179" fill-opacity="0.7"/>
<path fill-rule="evenodd" clip-rule="evenodd" d="M456.966 651.788H401.781L402.33 259.837L419.239 248.245L436.25 267.142L435.976 423.23L459.092 443.02L459.744 540.493L456.932 662.317L456.966 651.788Z" fill="#439179" fill-opacity="0.7"/>
<path fill-rule="evenodd" clip-rule="evenodd" d="M309.453 298.559L309.556 272.836L320.291 288.75L309.453 298.559Z" fill="#439179" fill-opacity="0.7"/>
<path fill-rule="evenodd" clip-rule="evenodd" d="M346.117 169.532L358.052 178.861L376.607 210.141L354.417 188.327L343.579 171.453L346.117 169.532Z" fill="#439179" fill-opacity="0.7"/>
<path fill-rule="evenodd" clip-rule="evenodd" d="M346.117 169.532L366.078 154.544L378.048 163.736L358.052 178.861L346.117 169.532Z" fill="#439179" fill-opacity="0.7"/>
<path fill-rule="evenodd" clip-rule="evenodd" d="M356.955 182.119L309.933 216.863L303.931 208.631L348.071 175.054L356.955 182.119Z" fill="#439179" fill-opacity="0.7"/>
<path fill-rule="evenodd" clip-rule="evenodd" d="M309.933 216.862L356.955 182.119L361.928 190.385L357.229 193.917L344.23 203.692L315.318 225.06L309.933 216.862Z" fill="#439179" fill-opacity="0.7"/>
</g>
<defs>
<filter id="filter0_ddi_491_84601" x="0" y="0" width="812" height="1002.49" filterUnits="userSpaceOnUse" color-interpolation-filters="sRGB">
<feFlood flood-opacity="0" result="BackgroundImageFix"/>
<feColorMatrix in="SourceAlpha" type="matrix" values="0 0 0 0 0 0 0 0 0 0 0 0 0 0 0 0 0 0 127 0" result="hardAlpha"/>
<feOffset dy="4"/>
<feGaussianBlur stdDeviation="2"/>
<feComposite in2="hardAlpha" operator="out"/>
<feColorMatrix type="matrix" values="0 0 0 0 0 0 0 0 0 0 0 0 0 0 0 0 0 0 0.25 0"/>
<feBlend mode="normal" in2="BackgroundImageFix" result="effect1_dropShadow_491_84601"/>
<feColorMatrix in="SourceAlpha" type="matrix" values="0 0 0 0 0 0 0 0 0 0 0 0 0 0 0 0 0 0 127 0" result="hardAlpha"/>
<feOffset dy="4"/>
<feGaussianBlur stdDeviation="2"/>
<feComposite in2="hardAlpha" operator="out"/>
<feColorMatrix type="matrix" values="0 0 0 0 0 0 0 0 0 0 0 0 0 0 0 0 0 0 0.25 0"/>
<feBlend mode="normal" in2="effect1_dropShadow_491_84601" result="effect2_dropShadow_491_84601"/>
<feBlend mode="normal" in="SourceGraphic" in2="effect2_dropShadow_491_84601" result="shape"/>
<feColorMatrix in="SourceAlpha" type="matrix" values="0 0 0 0 0 0 0 0 0 0 0 0 0 0 0 0 0 0 127 0" result="hardAlpha"/>
<feOffset dy="4"/>
<feGaussianBlur stdDeviation="2"/>
<feComposite in2="hardAlpha" operator="arithmetic" k2="-1" k3="1"/>
<feColorMatrix type="matrix" values="0 0 0 0 0 0 0 0 0 0 0 0 0 0 0 0 0 0 0.25 0"/>
<feBlend mode="normal" in2="shape" result="effect3_innerShadow_491_84601"/>
</filter>
</defs>
</svg>
